<?xml version="1.0" encoding="UTF-8" standalone="no"?>
<!DOCTYPE svg PUBLIC "-//W3C//DTD SVG 1.1//EN" "http://www.w3.org/Graphics/SVG/1.1/DTD/svg11.dtd">
<svg width="100%" height="100%" viewBox="0 0 685 879" version="1.1" xmlns="http://www.w3.org/2000/svg" xmlns:xlink="http://www.w3.org/1999/xlink" xml:space="preserve" xmlns:serif="http://www.serif.com/" style="fill-rule:evenodd;clip-rule:evenodd;stroke-linecap:round;stroke-linejoin:round;stroke-miterlimit:1.5;">
    <g transform="matrix(1,0,0,1,-113.215,-652.64)">
        <g transform="matrix(1,0,0,1.48798,0,-1303.5)">
            <rect x="257.143" y="1454.41" width="117.351" height="85.662" style="fill:rgb(242,13,13);fill-opacity:0.3;"/>
        </g>
        <g transform="matrix(1,0,0,1.54258,0,-1082.49)">
            <rect x="257.143" y="1454.41" width="117.351" height="85.662" style="fill:rgb(242,13,13);fill-opacity:0.3;"/>
        </g>
        <g transform="matrix(1,0,0,1,1.46935,-72.444)">
            <g transform="matrix(1.32884,0,0,1.13813,-105.278,-149.437)">
                <rect x="257.143" y="1454.41" width="117.351" height="85.662" style="fill:rgb(242,13,13);fill-opacity:0.3;"/>
            </g>
            <g transform="matrix(1,0,0,1,-11.9828,-0.889169)">
                <g transform="matrix(34.0083,0,0,34.0083,283.304,1548.49)">
                    <path d="M0.583,-0L0.456,-0L0.176,-0.585C0.18,-0.539 0.183,-0.497 0.186,-0.458C0.188,-0.419 0.189,-0.371 0.189,-0.316L0.189,-0L0.1,-0L0.1,-0.689L0.224,-0.689L0.507,-0.103C0.505,-0.12 0.502,-0.151 0.499,-0.194C0.496,-0.237 0.494,-0.277 0.494,-0.313L0.494,-0.689L0.583,-0.689L0.583,-0Z" style="fill-rule:nonzero;"/>
                </g>
                <g transform="matrix(34.0083,0,0,34.0083,306.532,1548.49)">
                    <path d="M0.293,-0.539C0.367,-0.539 0.425,-0.514 0.466,-0.465C0.507,-0.416 0.527,-0.349 0.527,-0.264C0.527,-0.209 0.518,-0.161 0.499,-0.12C0.48,-0.078 0.453,-0.046 0.418,-0.023C0.383,0.001 0.341,0.012 0.292,0.012C0.218,0.012 0.16,-0.013 0.119,-0.062C0.078,-0.111 0.057,-0.178 0.057,-0.263C0.057,-0.318 0.066,-0.366 0.085,-0.408C0.104,-0.449 0.131,-0.482 0.166,-0.505C0.201,-0.528 0.244,-0.539 0.293,-0.539ZM0.293,-0.465C0.202,-0.465 0.156,-0.398 0.156,-0.263C0.156,-0.129 0.201,-0.062 0.292,-0.062C0.383,-0.062 0.428,-0.129 0.428,-0.264C0.428,-0.398 0.383,-0.465 0.293,-0.465Z" style="fill-rule:nonzero;"/>
                </g>
                <g transform="matrix(34.0083,0,0,34.0083,326.393,1548.49)">
                    <path d="M0.187,-0.527L0.187,-0L0.095,-0L0.095,-0.527L0.187,-0.527ZM0.14,-0.78C0.159,-0.78 0.175,-0.774 0.187,-0.762C0.199,-0.75 0.205,-0.735 0.205,-0.717C0.205,-0.699 0.199,-0.684 0.187,-0.673C0.175,-0.661 0.159,-0.655 0.14,-0.655C0.121,-0.655 0.106,-0.661 0.094,-0.673C0.082,-0.684 0.076,-0.699 0.076,-0.717C0.076,-0.735 0.082,-0.75 0.094,-0.762C0.106,-0.774 0.121,-0.78 0.14,-0.78Z" style="fill-rule:nonzero;"/>
                </g>
                <g transform="matrix(34.0083,0,0,34.0083,335.983,1548.49)">
                    <path d="M0.238,-0.539C0.274,-0.539 0.306,-0.534 0.335,-0.524C0.364,-0.514 0.391,-0.499 0.417,-0.479L0.378,-0.421C0.354,-0.436 0.331,-0.448 0.31,-0.455C0.288,-0.462 0.265,-0.466 0.241,-0.466C0.211,-0.466 0.187,-0.46 0.17,-0.448C0.153,-0.435 0.144,-0.418 0.144,-0.397C0.144,-0.376 0.152,-0.359 0.169,-0.347C0.185,-0.335 0.214,-0.323 0.257,-0.312C0.316,-0.297 0.36,-0.277 0.389,-0.252C0.418,-0.227 0.432,-0.192 0.432,-0.148C0.432,-0.096 0.412,-0.056 0.372,-0.029C0.331,-0.002 0.282,0.012 0.224,0.012C0.144,0.012 0.078,-0.011 0.025,-0.057L0.074,-0.113C0.119,-0.079 0.168,-0.062 0.222,-0.062C0.257,-0.062 0.284,-0.069 0.305,-0.084C0.325,-0.098 0.335,-0.117 0.335,-0.142C0.335,-0.16 0.331,-0.175 0.324,-0.186C0.317,-0.197 0.304,-0.206 0.286,-0.215C0.268,-0.223 0.242,-0.232 0.207,-0.241C0.151,-0.256 0.111,-0.275 0.086,-0.3C0.061,-0.325 0.048,-0.356 0.048,-0.394C0.048,-0.421 0.056,-0.446 0.073,-0.469C0.089,-0.491 0.112,-0.508 0.141,-0.521C0.169,-0.533 0.202,-0.539 0.238,-0.539Z" style="fill-rule:nonzero;"/>
                </g>
                <g transform="matrix(34.0083,0,0,34.0083,351.865,1548.49)">
                    <path d="M0.493,-0.279C0.493,-0.264 0.492,-0.248 0.491,-0.232L0.155,-0.232C0.159,-0.174 0.174,-0.131 0.199,-0.104C0.224,-0.077 0.257,-0.063 0.297,-0.063C0.322,-0.063 0.346,-0.067 0.367,-0.074C0.388,-0.081 0.411,-0.093 0.434,-0.109L0.474,-0.054C0.418,-0.01 0.357,0.012 0.29,0.012C0.217,0.012 0.16,-0.012 0.119,-0.06C0.078,-0.108 0.057,-0.174 0.057,-0.258C0.057,-0.313 0.066,-0.361 0.084,-0.404C0.101,-0.446 0.127,-0.479 0.16,-0.503C0.193,-0.527 0.231,-0.539 0.276,-0.539C0.346,-0.539 0.4,-0.516 0.437,-0.47C0.474,-0.424 0.493,-0.36 0.493,-0.279ZM0.402,-0.306C0.402,-0.358 0.392,-0.398 0.371,-0.425C0.35,-0.452 0.319,-0.466 0.278,-0.466C0.203,-0.466 0.162,-0.411 0.155,-0.3L0.402,-0.3L0.402,-0.306Z" style="fill-rule:nonzero;"/>
                </g>
                <g transform="matrix(34.0083,0,0,34.0083,274.644,1581.82)">
                    <path d="M0.716,-0L0.624,-0L0.6,-0.311C0.59,-0.433 0.584,-0.527 0.583,-0.592L0.434,-0.078L0.345,-0.078L0.188,-0.593C0.188,-0.51 0.184,-0.413 0.175,-0.304L0.152,-0L0.062,-0L0.119,-0.689L0.247,-0.689L0.392,-0.188L0.53,-0.689L0.659,-0.689L0.716,-0Z" style="fill-rule:nonzero;"/>
                </g>
                <g transform="matrix(34.0083,0,0,34.0083,301.103,1581.82)">
                    <path d="M0.45,-0.123C0.45,-0.102 0.454,-0.086 0.461,-0.076C0.468,-0.065 0.479,-0.057 0.494,-0.052L0.473,0.012C0.446,0.009 0.424,0.001 0.407,-0.011C0.39,-0.023 0.378,-0.042 0.37,-0.067C0.335,-0.014 0.282,0.012 0.213,0.012C0.161,0.012 0.12,-0.003 0.09,-0.032C0.06,-0.061 0.045,-0.1 0.045,-0.147C0.045,-0.203 0.065,-0.246 0.106,-0.276C0.146,-0.306 0.203,-0.321 0.277,-0.321L0.358,-0.321L0.358,-0.36C0.358,-0.397 0.349,-0.424 0.331,-0.44C0.313,-0.456 0.285,-0.464 0.248,-0.464C0.209,-0.464 0.162,-0.455 0.106,-0.436L0.083,-0.503C0.148,-0.527 0.209,-0.539 0.265,-0.539C0.327,-0.539 0.373,-0.524 0.404,-0.494C0.435,-0.463 0.45,-0.42 0.45,-0.364L0.45,-0.123ZM0.234,-0.057C0.287,-0.057 0.328,-0.084 0.358,-0.139L0.358,-0.26L0.289,-0.26C0.192,-0.26 0.143,-0.224 0.143,-0.152C0.143,-0.121 0.151,-0.097 0.166,-0.081C0.181,-0.065 0.204,-0.057 0.234,-0.057Z" style="fill-rule:nonzero;"/>
                </g>
                <g transform="matrix(34.0083,0,0,34.0083,319.603,1581.82)">
                    <path d="M0.324,-0.539C0.343,-0.539 0.36,-0.537 0.376,-0.533L0.359,-0.443C0.343,-0.447 0.328,-0.449 0.313,-0.449C0.28,-0.449 0.254,-0.437 0.234,-0.413C0.214,-0.389 0.198,-0.352 0.187,-0.301L0.187,-0L0.095,-0L0.095,-0.527L0.174,-0.527L0.183,-0.42C0.197,-0.459 0.216,-0.489 0.24,-0.509C0.264,-0.529 0.292,-0.539 0.324,-0.539Z" style="fill-rule:nonzero;"/>
                </g>
                <g transform="matrix(34.0083,0,0,34.0083,331.855,1581.82)">
                    <path d="M0.52,-0.503C0.5,-0.496 0.478,-0.492 0.454,-0.49C0.43,-0.488 0.401,-0.487 0.366,-0.487C0.428,-0.459 0.459,-0.415 0.459,-0.354C0.459,-0.301 0.441,-0.258 0.405,-0.225C0.369,-0.192 0.32,-0.175 0.258,-0.175C0.234,-0.175 0.212,-0.178 0.191,-0.185C0.183,-0.18 0.177,-0.172 0.172,-0.164C0.167,-0.155 0.165,-0.145 0.165,-0.136C0.165,-0.107 0.188,-0.093 0.234,-0.093L0.318,-0.093C0.353,-0.093 0.385,-0.087 0.412,-0.074C0.439,-0.061 0.46,-0.044 0.476,-0.022C0.491,0 0.498,0.025 0.498,0.053C0.498,0.104 0.477,0.144 0.435,0.172C0.393,0.199 0.332,0.213 0.251,0.213C0.194,0.213 0.15,0.207 0.117,0.196C0.084,0.184 0.06,0.166 0.046,0.143C0.032,0.12 0.025,0.09 0.025,0.053L0.108,0.053C0.108,0.074 0.112,0.091 0.12,0.104C0.128,0.116 0.142,0.125 0.163,0.132C0.184,0.138 0.213,0.141 0.251,0.141C0.306,0.141 0.346,0.134 0.37,0.121C0.393,0.107 0.405,0.086 0.405,0.059C0.405,0.034 0.396,0.016 0.377,0.003C0.358,-0.01 0.332,-0.016 0.299,-0.016L0.216,-0.016C0.171,-0.016 0.137,-0.025 0.115,-0.045C0.092,-0.064 0.08,-0.087 0.08,-0.116C0.08,-0.133 0.085,-0.15 0.095,-0.166C0.105,-0.182 0.119,-0.196 0.138,-0.209C0.107,-0.225 0.085,-0.245 0.071,-0.269C0.056,-0.292 0.049,-0.321 0.049,-0.355C0.049,-0.39 0.058,-0.422 0.076,-0.45C0.093,-0.478 0.118,-0.5 0.149,-0.516C0.18,-0.531 0.214,-0.539 0.252,-0.539C0.293,-0.538 0.328,-0.54 0.356,-0.544C0.384,-0.547 0.407,-0.552 0.426,-0.559C0.444,-0.565 0.466,-0.574 0.493,-0.586L0.52,-0.503ZM0.252,-0.473C0.217,-0.473 0.191,-0.462 0.172,-0.441C0.153,-0.419 0.143,-0.39 0.143,-0.355C0.143,-0.319 0.153,-0.29 0.172,-0.269C0.191,-0.247 0.219,-0.236 0.254,-0.236C0.29,-0.236 0.318,-0.247 0.337,-0.268C0.356,-0.289 0.365,-0.318 0.365,-0.356C0.365,-0.434 0.327,-0.473 0.252,-0.473Z" style="fill-rule:nonzero;"/>
                </g>
                <g transform="matrix(34.0083,0,0,34.0083,349.54,1581.82)">
                    <path d="M0.187,-0.527L0.187,-0L0.095,-0L0.095,-0.527L0.187,-0.527ZM0.14,-0.78C0.159,-0.78 0.175,-0.774 0.187,-0.762C0.199,-0.75 0.205,-0.735 0.205,-0.717C0.205,-0.699 0.199,-0.684 0.187,-0.673C0.175,-0.661 0.159,-0.655 0.14,-0.655C0.121,-0.655 0.106,-0.661 0.094,-0.673C0.082,-0.684 0.076,-0.699 0.076,-0.717C0.076,-0.735 0.082,-0.75 0.094,-0.762C0.106,-0.774 0.121,-0.78 0.14,-0.78Z" style="fill-rule:nonzero;"/>
                </g>
                <g transform="matrix(34.0083,0,0,34.0083,359.13,1581.82)">
                    <path d="M0.343,-0.539C0.391,-0.539 0.429,-0.525 0.456,-0.496C0.483,-0.467 0.496,-0.428 0.496,-0.378L0.496,-0L0.404,-0L0.404,-0.365C0.404,-0.402 0.397,-0.429 0.383,-0.444C0.369,-0.459 0.348,-0.467 0.321,-0.467C0.293,-0.467 0.268,-0.459 0.247,-0.443C0.226,-0.427 0.206,-0.404 0.187,-0.374L0.187,-0L0.095,-0L0.095,-0.527L0.174,-0.527L0.182,-0.449C0.201,-0.477 0.224,-0.499 0.252,-0.515C0.279,-0.531 0.31,-0.539 0.343,-0.539Z" style="fill-rule:nonzero;"/>
                </g>
            </g>
        </g>
        <path d="M239.107,772.367L392.661,772.367" style="fill:none;stroke:black;stroke-width:12.5px;"/>
        <path d="M315.884,772.367L315.884,1389.53" style="fill:none;stroke:black;stroke-width:12.5px;"/>
        <path d="M239.107,1389.53L392.661,1389.53" style="fill:none;stroke:black;stroke-width:12.5px;"/>
        <g>
            <g transform="matrix(1,0,0,1,-264.812,0.940215)">
                <g transform="matrix(58.3333,0,0,58.3333,417.152,781.606)">
                    <path d="M0.55,-0.689L0.33,-0L0.228,-0L0.006,-0.689L0.108,-0.689L0.281,-0.103L0.454,-0.689L0.55,-0.689Z" style="fill-rule:nonzero;"/>
                </g>
                <g transform="matrix(34.0083,0,0,34.0083,449.585,801.031)">
                    <path d="M0.341,-0.701C0.382,-0.701 0.417,-0.696 0.446,-0.685C0.474,-0.674 0.503,-0.657 0.532,-0.633L0.48,-0.572C0.438,-0.606 0.394,-0.623 0.347,-0.623C0.29,-0.623 0.244,-0.601 0.209,-0.557C0.173,-0.513 0.156,-0.442 0.156,-0.345C0.156,-0.25 0.173,-0.181 0.208,-0.136C0.243,-0.091 0.289,-0.068 0.346,-0.068C0.375,-0.068 0.401,-0.073 0.423,-0.083C0.445,-0.093 0.468,-0.107 0.493,-0.125L0.54,-0.065C0.519,-0.043 0.491,-0.025 0.458,-0.01C0.425,0.005 0.386,0.012 0.343,0.012C0.287,0.012 0.237,-0.002 0.194,-0.03C0.15,-0.057 0.116,-0.098 0.092,-0.152C0.067,-0.205 0.055,-0.27 0.055,-0.345C0.055,-0.42 0.068,-0.485 0.093,-0.539C0.118,-0.592 0.153,-0.633 0.196,-0.66C0.239,-0.687 0.288,-0.701 0.341,-0.701Z" style="fill-rule:nonzero;"/>
                </g>
                <g transform="matrix(34.0083,0,0,34.0083,467.463,801.031)">
                    <path d="M0.341,-0.701C0.382,-0.701 0.417,-0.696 0.446,-0.685C0.474,-0.674 0.503,-0.657 0.532,-0.633L0.48,-0.572C0.438,-0.606 0.394,-0.623 0.347,-0.623C0.29,-0.623 0.244,-0.601 0.209,-0.557C0.173,-0.513 0.156,-0.442 0.156,-0.345C0.156,-0.25 0.173,-0.181 0.208,-0.136C0.243,-0.091 0.289,-0.068 0.346,-0.068C0.375,-0.068 0.401,-0.073 0.423,-0.083C0.445,-0.093 0.468,-0.107 0.493,-0.125L0.54,-0.065C0.519,-0.043 0.491,-0.025 0.458,-0.01C0.425,0.005 0.386,0.012 0.343,0.012C0.287,0.012 0.237,-0.002 0.194,-0.03C0.15,-0.057 0.116,-0.098 0.092,-0.152C0.067,-0.205 0.055,-0.27 0.055,-0.345C0.055,-0.42 0.068,-0.485 0.093,-0.539C0.118,-0.592 0.153,-0.633 0.196,-0.66C0.239,-0.687 0.288,-0.701 0.341,-0.701Z" style="fill-rule:nonzero;"/>
                </g>
            </g>
            <g transform="matrix(1,0,0,1,-271.828,91.3706)">
                <g transform="matrix(58.3333,0,0,58.3333,417.152,781.606)">
                    <path d="M0.55,-0.689L0.33,-0L0.228,-0L0.006,-0.689L0.108,-0.689L0.281,-0.103L0.454,-0.689L0.55,-0.689Z" style="fill-rule:nonzero;"/>
                </g>
                <g transform="matrix(34.0083,0,0,34.0083,449.585,801.031)">
                    <path d="M0.346,-0.701C0.404,-0.701 0.455,-0.687 0.499,-0.66C0.542,-0.632 0.576,-0.591 0.601,-0.538C0.625,-0.485 0.637,-0.42 0.637,-0.344C0.637,-0.269 0.625,-0.205 0.601,-0.152C0.576,-0.099 0.542,-0.058 0.499,-0.03C0.455,-0.002 0.404,0.012 0.346,0.012C0.288,0.012 0.237,-0.002 0.194,-0.029C0.15,-0.056 0.116,-0.097 0.092,-0.15C0.067,-0.203 0.055,-0.268 0.055,-0.343C0.055,-0.417 0.067,-0.481 0.092,-0.535C0.116,-0.589 0.15,-0.63 0.194,-0.659C0.238,-0.687 0.289,-0.701 0.346,-0.701ZM0.346,-0.623C0.286,-0.623 0.239,-0.6 0.206,-0.555C0.173,-0.51 0.156,-0.439 0.156,-0.343C0.156,-0.248 0.173,-0.178 0.207,-0.133C0.24,-0.088 0.287,-0.066 0.346,-0.066C0.473,-0.066 0.536,-0.159 0.536,-0.344C0.536,-0.53 0.473,-0.623 0.346,-0.623Z" style="fill-rule:nonzero;"/>
                </g>
                <g transform="matrix(34.0083,0,0,34.0083,473.119,801.031)">
                    <path d="M0.485,-0L0.485,-0.323L0.195,-0.323L0.195,-0L0.1,-0L0.1,-0.689L0.195,-0.689L0.195,-0.401L0.485,-0.401L0.485,-0.689L0.58,-0.689L0.58,-0L0.485,-0Z" style="fill-rule:nonzero;"/>
                </g>
            </g>
            <g transform="matrix(1,0,0,1,-258.327,216.683)">
                <g transform="matrix(58.3333,0,0,58.3333,417.152,781.606)">
                    <path d="M0.55,-0.689L0.33,-0L0.228,-0L0.006,-0.689L0.108,-0.689L0.281,-0.103L0.454,-0.689L0.55,-0.689Z" style="fill-rule:nonzero;"/>
                </g>
                <g transform="matrix(34.0083,0,0,34.0083,449.585,801.031)">
                    <rect x="0.1" y="-0.689" width="0.095" height="0.689" style="fill-rule:nonzero;"/>
                </g>
                <g transform="matrix(34.0083,0,0,34.0083,459.618,801.031)">
                    <path d="M0.485,-0L0.485,-0.323L0.195,-0.323L0.195,-0L0.1,-0L0.1,-0.689L0.195,-0.689L0.195,-0.401L0.485,-0.401L0.485,-0.689L0.58,-0.689L0.58,-0L0.485,-0Z" style="fill-rule:nonzero;"/>
                </g>
            </g>
            <g transform="matrix(1,0,0,1,-240.847,302.528)">
                <g transform="matrix(58.3333,0,0,58.3333,417.152,781.606)">
                    <path d="M0.55,-0.689L0.33,-0L0.228,-0L0.006,-0.689L0.108,-0.689L0.281,-0.103L0.454,-0.689L0.55,-0.689Z" style="fill-rule:nonzero;"/>
                </g>
                <g transform="matrix(34.0083,0,0,34.0083,449.585,801.031)">
                    <path d="M0.361,-0.024C0.326,0 0.287,0.012 0.243,0.012C0.198,0.012 0.164,-0.001 0.139,-0.027C0.114,-0.052 0.101,-0.089 0.101,-0.138L0.101,-0.456L0.009,-0.456L0.009,-0.527L0.101,-0.527L0.101,-0.646L0.193,-0.657L0.193,-0.527L0.318,-0.527L0.308,-0.456L0.193,-0.456L0.193,-0.142C0.193,-0.115 0.198,-0.095 0.208,-0.083C0.217,-0.07 0.233,-0.064 0.256,-0.064C0.277,-0.064 0.3,-0.071 0.326,-0.085L0.361,-0.024Z" style="fill-rule:nonzero;"/>
                </g>
            </g>
            <g transform="matrix(1,0,0,1,-254.858,388.373)">
                <g transform="matrix(58.3333,0,0,58.3333,417.152,781.606)">
                    <path d="M0.55,-0.689L0.33,-0L0.228,-0L0.006,-0.689L0.108,-0.689L0.281,-0.103L0.454,-0.689L0.55,-0.689Z" style="fill-rule:nonzero;"/>
                </g>
                <g transform="matrix(34.0083,0,0,34.0083,449.585,801.031)">
                    <rect x="0.1" y="-0.689" width="0.095" height="0.689" style="fill-rule:nonzero;"/>
                </g>
                <g transform="matrix(34.0083,0,0,34.0083,459.618,801.031)">
                    <path d="M0.195,-0.689L0.195,-0.083L0.478,-0.083L0.467,-0L0.1,-0L0.1,-0.689L0.195,-0.689Z" style="fill-rule:nonzero;"/>
                </g>
            </g>
            <g transform="matrix(1,0,0,1,-268.359,520.513)">
                <g transform="matrix(58.3333,0,0,58.3333,417.152,781.606)">
                    <path d="M0.55,-0.689L0.33,-0L0.228,-0L0.006,-0.689L0.108,-0.689L0.281,-0.103L0.454,-0.689L0.55,-0.689Z" style="fill-rule:nonzero;"/>
                </g>
                <g transform="matrix(34.0083,0,0,34.0083,449.585,801.031)">
                    <path d="M0.346,-0.701C0.404,-0.701 0.455,-0.687 0.499,-0.66C0.542,-0.632 0.576,-0.591 0.601,-0.538C0.625,-0.485 0.637,-0.42 0.637,-0.344C0.637,-0.269 0.625,-0.205 0.601,-0.152C0.576,-0.099 0.542,-0.058 0.499,-0.03C0.455,-0.002 0.404,0.012 0.346,0.012C0.288,0.012 0.237,-0.002 0.194,-0.029C0.15,-0.056 0.116,-0.097 0.092,-0.15C0.067,-0.203 0.055,-0.268 0.055,-0.343C0.055,-0.417 0.067,-0.481 0.092,-0.535C0.116,-0.589 0.15,-0.63 0.194,-0.659C0.238,-0.687 0.289,-0.701 0.346,-0.701ZM0.346,-0.623C0.286,-0.623 0.239,-0.6 0.206,-0.555C0.173,-0.51 0.156,-0.439 0.156,-0.343C0.156,-0.248 0.173,-0.178 0.207,-0.133C0.24,-0.088 0.287,-0.066 0.346,-0.066C0.473,-0.066 0.536,-0.159 0.536,-0.344C0.536,-0.53 0.473,-0.623 0.346,-0.623Z" style="fill-rule:nonzero;"/>
                </g>
                <g transform="matrix(34.0083,0,0,34.0083,473.119,801.031)">
                    <path d="M0.195,-0.689L0.195,-0.083L0.478,-0.083L0.467,-0L0.1,-0L0.1,-0.689L0.195,-0.689Z" style="fill-rule:nonzero;"/>
                </g>
            </g>
            <g transform="matrix(1,0,0,1,-307.145,624.766)">
                <g transform="matrix(58.3333,0,0,58.3333,417.152,781.606)">
                    <path d="M0.354,-0.701C0.397,-0.701 0.435,-0.695 0.467,-0.683C0.498,-0.67 0.53,-0.651 0.561,-0.625L0.505,-0.567C0.48,-0.587 0.457,-0.601 0.434,-0.61C0.411,-0.619 0.385,-0.623 0.354,-0.623C0.319,-0.623 0.286,-0.614 0.257,-0.595C0.227,-0.576 0.203,-0.545 0.184,-0.504C0.165,-0.462 0.156,-0.409 0.156,-0.345C0.156,-0.248 0.172,-0.178 0.204,-0.133C0.235,-0.088 0.282,-0.066 0.344,-0.066C0.395,-0.066 0.438,-0.076 0.475,-0.097L0.475,-0.305L0.353,-0.305L0.342,-0.382L0.569,-0.382L0.569,-0.049C0.498,-0.008 0.423,0.012 0.344,0.012C0.253,0.012 0.183,-0.018 0.132,-0.079C0.081,-0.14 0.055,-0.228 0.055,-0.345C0.055,-0.42 0.069,-0.484 0.096,-0.538C0.123,-0.591 0.159,-0.632 0.205,-0.66C0.25,-0.687 0.3,-0.701 0.354,-0.701Z" style="fill-rule:nonzero;"/>
                </g>
                <g transform="matrix(58.3333,0,0,58.3333,453.96,781.606)">
                    <path d="M0.583,-0L0.456,-0L0.176,-0.585C0.18,-0.539 0.183,-0.497 0.186,-0.458C0.188,-0.419 0.189,-0.371 0.189,-0.316L0.189,-0L0.1,-0L0.1,-0.689L0.224,-0.689L0.507,-0.103C0.505,-0.12 0.502,-0.151 0.499,-0.194C0.496,-0.237 0.494,-0.277 0.494,-0.313L0.494,-0.689L0.583,-0.689L0.583,-0Z" style="fill-rule:nonzero;"/>
                </g>
                <g transform="matrix(58.3333,0,0,58.3333,493.802,781.606)">
                    <path d="M0.244,-0.689C0.348,-0.689 0.432,-0.665 0.495,-0.617C0.558,-0.568 0.589,-0.479 0.589,-0.348C0.589,-0.221 0.558,-0.131 0.495,-0.079C0.432,-0.026 0.355,-0 0.265,-0L0.1,-0L0.1,-0.689L0.244,-0.689ZM0.195,-0.613L0.195,-0.075L0.272,-0.075C0.336,-0.075 0.388,-0.095 0.428,-0.134C0.468,-0.173 0.488,-0.245 0.488,-0.348C0.488,-0.421 0.478,-0.476 0.457,-0.516C0.436,-0.555 0.41,-0.581 0.378,-0.594C0.346,-0.607 0.308,-0.613 0.265,-0.613L0.195,-0.613Z" style="fill-rule:nonzero;"/>
                </g>
            </g>
        </g>
        <path d="M257.253,862.798L374.603,862.798" style="fill:none;stroke:black;stroke-width:8.33px;"/>
        <g transform="matrix(1,0,0,1,-0.10973,125.313)">
            <path d="M257.253,862.798L374.603,862.798" style="fill:none;stroke:black;stroke-width:8.33px;"/>
        </g>
        <g transform="matrix(1,0,0,1,-0.0658381,211.157)">
            <path d="M257.253,862.798L374.603,862.798" style="fill:none;stroke:black;stroke-width:8.33px;"/>
        </g>
        <g transform="matrix(1,0,0,1,-0.0658381,297.002)">
            <path d="M257.253,862.798L374.603,862.798" style="fill:none;stroke:black;stroke-width:8.33px;"/>
        </g>
        <g transform="matrix(1,0,0,1,-0.0658381,431.225)">
            <path d="M257.253,862.798L374.603,862.798" style="fill:none;stroke:black;stroke-width:8.33px;"/>
        </g>
        <g transform="matrix(1,0,0,1,0,-4.77619)">
            <g transform="matrix(1,0,0,1,-5.28616,15.3985)">
                <g transform="matrix(58.3333,0,0,58.3333,417.152,781.606)">
                    <path d="M0.225,-0.679C0.266,-0.679 0.302,-0.671 0.332,-0.656C0.361,-0.641 0.384,-0.62 0.4,-0.594C0.415,-0.568 0.423,-0.54 0.423,-0.509C0.423,-0.468 0.411,-0.435 0.388,-0.409C0.364,-0.382 0.332,-0.364 0.293,-0.355C0.338,-0.351 0.374,-0.335 0.402,-0.307C0.43,-0.279 0.444,-0.241 0.444,-0.193C0.444,-0.154 0.435,-0.119 0.416,-0.088C0.397,-0.057 0.371,-0.032 0.336,-0.015C0.301,0.003 0.261,0.012 0.216,0.012C0.175,0.012 0.138,0.005 0.104,-0.011C0.07,-0.025 0.04,-0.048 0.015,-0.078L0.07,-0.129C0.092,-0.106 0.115,-0.09 0.138,-0.079C0.161,-0.068 0.186,-0.063 0.213,-0.063C0.255,-0.063 0.288,-0.075 0.312,-0.099C0.336,-0.122 0.348,-0.154 0.348,-0.194C0.348,-0.238 0.337,-0.269 0.314,-0.287C0.291,-0.305 0.258,-0.314 0.215,-0.314L0.165,-0.314L0.176,-0.385L0.21,-0.385C0.245,-0.385 0.274,-0.395 0.297,-0.416C0.32,-0.437 0.331,-0.466 0.331,-0.503C0.331,-0.534 0.321,-0.559 0.301,-0.578C0.281,-0.596 0.254,-0.605 0.22,-0.605C0.194,-0.605 0.17,-0.6 0.149,-0.591C0.127,-0.582 0.105,-0.566 0.082,-0.545L0.034,-0.6C0.091,-0.653 0.154,-0.679 0.225,-0.679Z" style="fill-rule:nonzero;"/>
                </g>
                <g transform="matrix(58.3333,0,0,58.3333,446.26,781.606)">
                    <path d="M0.55,-0.689L0.33,-0L0.228,-0L0.006,-0.689L0.108,-0.689L0.281,-0.103L0.454,-0.689L0.55,-0.689Z" style="fill-rule:nonzero;"/>
                </g>
                <g transform="matrix(58.3333,0,0,58.3333,478.693,781.606)">
                    <path d="M0.225,-0.679C0.266,-0.679 0.302,-0.671 0.332,-0.656C0.361,-0.641 0.384,-0.62 0.4,-0.594C0.415,-0.568 0.423,-0.54 0.423,-0.509C0.423,-0.468 0.411,-0.435 0.388,-0.409C0.364,-0.382 0.332,-0.364 0.293,-0.355C0.338,-0.351 0.374,-0.335 0.402,-0.307C0.43,-0.279 0.444,-0.241 0.444,-0.193C0.444,-0.154 0.435,-0.119 0.416,-0.088C0.397,-0.057 0.371,-0.032 0.336,-0.015C0.301,0.003 0.261,0.012 0.216,0.012C0.175,0.012 0.138,0.005 0.104,-0.011C0.07,-0.025 0.04,-0.048 0.015,-0.078L0.07,-0.129C0.092,-0.106 0.115,-0.09 0.138,-0.079C0.161,-0.068 0.186,-0.063 0.213,-0.063C0.255,-0.063 0.288,-0.075 0.312,-0.099C0.336,-0.122 0.348,-0.154 0.348,-0.194C0.348,-0.238 0.337,-0.269 0.314,-0.287C0.291,-0.305 0.258,-0.314 0.215,-0.314L0.165,-0.314L0.176,-0.385L0.21,-0.385C0.245,-0.385 0.274,-0.395 0.297,-0.416C0.32,-0.437 0.331,-0.466 0.331,-0.503C0.331,-0.534 0.321,-0.559 0.301,-0.578C0.281,-0.596 0.254,-0.605 0.22,-0.605C0.194,-0.605 0.17,-0.6 0.149,-0.591C0.127,-0.582 0.105,-0.566 0.082,-0.545L0.034,-0.6C0.091,-0.653 0.154,-0.679 0.225,-0.679Z" style="fill-rule:nonzero;"/>
                </g>
            </g>
            <g transform="matrix(1,0,0,1,-5.86949,108.962)">
                <g transform="matrix(58.3333,0,0,58.3333,417.152,781.606)">
                    <path d="M0.228,-0.679C0.268,-0.679 0.303,-0.671 0.334,-0.655C0.364,-0.639 0.387,-0.617 0.404,-0.59C0.421,-0.562 0.429,-0.531 0.429,-0.496C0.429,-0.455 0.42,-0.416 0.402,-0.379C0.383,-0.342 0.355,-0.301 0.317,-0.258C0.279,-0.215 0.221,-0.154 0.144,-0.077L0.445,-0.077L0.434,-0L0.039,-0L0.039,-0.073C0.128,-0.166 0.192,-0.234 0.229,-0.277C0.266,-0.32 0.293,-0.357 0.309,-0.389C0.325,-0.421 0.333,-0.455 0.333,-0.492C0.333,-0.527 0.323,-0.554 0.303,-0.574C0.283,-0.593 0.256,-0.603 0.223,-0.603C0.196,-0.603 0.172,-0.597 0.151,-0.586C0.13,-0.575 0.108,-0.556 0.085,-0.53L0.025,-0.578C0.052,-0.612 0.083,-0.637 0.116,-0.654C0.149,-0.671 0.187,-0.679 0.228,-0.679Z" style="fill-rule:nonzero;"/>
                </g>
                <g transform="matrix(58.3333,0,0,58.3333,445.443,781.606)">
                    <path d="M0.55,-0.689L0.33,-0L0.228,-0L0.006,-0.689L0.108,-0.689L0.281,-0.103L0.454,-0.689L0.55,-0.689Z" style="fill-rule:nonzero;"/>
                </g>
                <g transform="matrix(58.3333,0,0,58.3333,476.71,781.606)">
                    <path d="M0.502,-0.238L0.502,-0.165L0.415,-0.165L0.415,-0L0.326,-0L0.326,-0.165L0.04,-0.165L0.04,-0.231L0.241,-0.679L0.318,-0.647L0.137,-0.238L0.327,-0.238L0.335,-0.418L0.415,-0.418L0.415,-0.238L0.502,-0.238Z" style="fill-rule:nonzero;"/>
                </g>
            </g>
            <g transform="matrix(1,0,0,1,-5.28616,233.034)">
                <g transform="matrix(58.3333,0,0,58.3333,417.152,781.606)">
                    <path d="M0.228,-0.679C0.268,-0.679 0.303,-0.671 0.334,-0.655C0.364,-0.639 0.387,-0.617 0.404,-0.59C0.421,-0.562 0.429,-0.531 0.429,-0.496C0.429,-0.455 0.42,-0.416 0.402,-0.379C0.383,-0.342 0.355,-0.301 0.317,-0.258C0.279,-0.215 0.221,-0.154 0.144,-0.077L0.445,-0.077L0.434,-0L0.039,-0L0.039,-0.073C0.128,-0.166 0.192,-0.234 0.229,-0.277C0.266,-0.32 0.293,-0.357 0.309,-0.389C0.325,-0.421 0.333,-0.455 0.333,-0.492C0.333,-0.527 0.323,-0.554 0.303,-0.574C0.283,-0.593 0.256,-0.603 0.223,-0.603C0.196,-0.603 0.172,-0.597 0.151,-0.586C0.13,-0.575 0.108,-0.556 0.085,-0.53L0.025,-0.578C0.052,-0.612 0.083,-0.637 0.116,-0.654C0.149,-0.671 0.187,-0.679 0.228,-0.679Z" style="fill-rule:nonzero;"/>
                </g>
                <g transform="matrix(58.3333,0,0,58.3333,445.443,781.606)">
                    <path d="M0.55,-0.689L0.33,-0L0.228,-0L0.006,-0.689L0.108,-0.689L0.281,-0.103L0.454,-0.689L0.55,-0.689Z" style="fill-rule:nonzero;"/>
                </g>
                <g transform="matrix(58.3333,0,0,58.3333,477.877,781.606)">
                    <path d="M0.279,-0.679C0.353,-0.679 0.409,-0.65 0.447,-0.591C0.484,-0.532 0.503,-0.446 0.503,-0.334C0.503,-0.222 0.484,-0.136 0.447,-0.077C0.409,-0.018 0.353,0.012 0.279,0.012C0.205,0.012 0.149,-0.018 0.112,-0.077C0.074,-0.136 0.055,-0.222 0.055,-0.334C0.055,-0.446 0.074,-0.532 0.112,-0.591C0.149,-0.65 0.205,-0.679 0.279,-0.679ZM0.279,-0.606C0.236,-0.606 0.204,-0.585 0.183,-0.542C0.162,-0.499 0.151,-0.43 0.151,-0.334C0.151,-0.238 0.162,-0.169 0.183,-0.126C0.204,-0.083 0.236,-0.061 0.279,-0.061C0.322,-0.061 0.354,-0.083 0.375,-0.126C0.396,-0.169 0.407,-0.238 0.407,-0.334C0.407,-0.429 0.396,-0.499 0.375,-0.542C0.354,-0.584 0.322,-0.606 0.279,-0.606Z" style="fill-rule:nonzero;"/>
                </g>
            </g>
            <g transform="matrix(1,0,0,1,-6.45283,318.134)">
                <g transform="matrix(58.3333,0,0,58.3333,417.152,781.606)">
                    <path d="M0.323,-0.669L0.323,-0L0.231,-0L0.231,-0.571L0.075,-0.476L0.035,-0.541L0.242,-0.669L0.323,-0.669Z" style="fill-rule:nonzero;"/>
                </g>
                <g transform="matrix(58.3333,0,0,58.3333,442.41,781.606)">
                    <path d="M0.55,-0.689L0.33,-0L0.228,-0L0.006,-0.689L0.108,-0.689L0.281,-0.103L0.454,-0.689L0.55,-0.689Z" style="fill-rule:nonzero;"/>
                </g>
                <g transform="matrix(58.3333,0,0,58.3333,474.26,781.606)">
                    <path d="M0.42,-0.597L0.159,-0.597L0.159,-0.4C0.193,-0.417 0.229,-0.426 0.266,-0.426C0.323,-0.426 0.369,-0.407 0.404,-0.37C0.439,-0.332 0.456,-0.28 0.456,-0.214C0.456,-0.17 0.446,-0.131 0.427,-0.097C0.408,-0.062 0.381,-0.035 0.346,-0.017C0.311,0.003 0.27,0.012 0.224,0.012C0.183,0.012 0.147,0.005 0.115,-0.01C0.083,-0.024 0.053,-0.045 0.026,-0.073L0.08,-0.126C0.101,-0.105 0.123,-0.089 0.146,-0.079C0.169,-0.068 0.194,-0.063 0.223,-0.063C0.266,-0.063 0.299,-0.076 0.324,-0.103C0.348,-0.13 0.36,-0.167 0.36,-0.216C0.36,-0.265 0.349,-0.3 0.327,-0.322C0.305,-0.344 0.275,-0.355 0.238,-0.355C0.221,-0.355 0.205,-0.353 0.19,-0.35C0.175,-0.346 0.16,-0.34 0.143,-0.332L0.071,-0.332L0.071,-0.669L0.433,-0.669L0.42,-0.597Z" style="fill-rule:nonzero;"/>
                </g>
            </g>
            <g transform="matrix(1,0,0,1,-6.45283,403.979)">
                <g transform="matrix(58.3333,0,0,58.3333,417.152,781.606)">
                    <path d="M0.279,-0.679C0.353,-0.679 0.409,-0.65 0.447,-0.591C0.484,-0.532 0.503,-0.446 0.503,-0.334C0.503,-0.222 0.484,-0.136 0.447,-0.077C0.409,-0.018 0.353,0.012 0.279,0.012C0.205,0.012 0.149,-0.018 0.112,-0.077C0.074,-0.136 0.055,-0.222 0.055,-0.334C0.055,-0.446 0.074,-0.532 0.112,-0.591C0.149,-0.65 0.205,-0.679 0.279,-0.679ZM0.279,-0.606C0.236,-0.606 0.204,-0.585 0.183,-0.542C0.162,-0.499 0.151,-0.43 0.151,-0.334C0.151,-0.238 0.162,-0.169 0.183,-0.126C0.204,-0.083 0.236,-0.061 0.279,-0.061C0.322,-0.061 0.354,-0.083 0.375,-0.126C0.396,-0.169 0.407,-0.238 0.407,-0.334C0.407,-0.429 0.396,-0.499 0.375,-0.542C0.354,-0.584 0.322,-0.606 0.279,-0.606Z" style="fill-rule:nonzero;"/>
                </g>
                <g transform="matrix(58.3333,0,0,58.3333,449.702,781.606)">
                    <path d="M0.55,-0.689L0.33,-0L0.228,-0L0.006,-0.689L0.108,-0.689L0.281,-0.103L0.454,-0.689L0.55,-0.689Z" style="fill-rule:nonzero;"/>
                </g>
                <g transform="matrix(58.3333,0,0,58.3333,481.552,781.606)">
                    <path d="M0.365,-0.359C0.459,-0.321 0.506,-0.261 0.506,-0.179C0.506,-0.142 0.496,-0.11 0.477,-0.081C0.457,-0.051 0.429,-0.029 0.394,-0.013C0.359,0.004 0.319,0.012 0.274,0.012C0.229,0.012 0.189,0.004 0.154,-0.012C0.119,-0.028 0.093,-0.05 0.074,-0.079C0.054,-0.108 0.045,-0.14 0.045,-0.177C0.045,-0.218 0.056,-0.253 0.079,-0.281C0.101,-0.309 0.134,-0.332 0.177,-0.351C0.142,-0.369 0.116,-0.391 0.099,-0.417C0.082,-0.442 0.073,-0.472 0.073,-0.507C0.073,-0.543 0.083,-0.574 0.102,-0.6C0.121,-0.626 0.146,-0.646 0.177,-0.659C0.208,-0.672 0.241,-0.679 0.276,-0.679C0.311,-0.679 0.343,-0.673 0.375,-0.66C0.405,-0.647 0.431,-0.628 0.45,-0.603C0.469,-0.577 0.479,-0.546 0.479,-0.51C0.479,-0.477 0.47,-0.448 0.451,-0.424C0.432,-0.4 0.404,-0.378 0.365,-0.359ZM0.276,-0.61C0.241,-0.61 0.214,-0.601 0.194,-0.583C0.173,-0.565 0.163,-0.539 0.163,-0.506C0.163,-0.474 0.173,-0.45 0.193,-0.433C0.212,-0.416 0.244,-0.401 0.287,-0.387L0.304,-0.381C0.334,-0.398 0.356,-0.417 0.369,-0.436C0.382,-0.455 0.389,-0.479 0.389,-0.507C0.389,-0.538 0.379,-0.563 0.36,-0.582C0.34,-0.601 0.312,-0.61 0.276,-0.61ZM0.275,-0.061C0.316,-0.061 0.349,-0.072 0.374,-0.093C0.398,-0.114 0.41,-0.143 0.41,-0.178C0.41,-0.202 0.405,-0.222 0.396,-0.239C0.387,-0.255 0.372,-0.269 0.351,-0.282C0.33,-0.294 0.301,-0.306 0.264,-0.319L0.239,-0.328C0.206,-0.312 0.181,-0.292 0.165,-0.268C0.149,-0.243 0.141,-0.213 0.141,-0.177C0.141,-0.14 0.153,-0.112 0.177,-0.092C0.201,-0.071 0.234,-0.061 0.275,-0.061Z" style="fill-rule:nonzero;"/>
                </g>
            </g>
            <g transform="matrix(1,0,0,1,-6.45283,536.119)">
                <g transform="matrix(58.3333,0,0,58.3333,417.152,781.606)">
                    <path d="M0.279,-0.679C0.353,-0.679 0.409,-0.65 0.447,-0.591C0.484,-0.532 0.503,-0.446 0.503,-0.334C0.503,-0.222 0.484,-0.136 0.447,-0.077C0.409,-0.018 0.353,0.012 0.279,0.012C0.205,0.012 0.149,-0.018 0.112,-0.077C0.074,-0.136 0.055,-0.222 0.055,-0.334C0.055,-0.446 0.074,-0.532 0.112,-0.591C0.149,-0.65 0.205,-0.679 0.279,-0.679ZM0.279,-0.606C0.236,-0.606 0.204,-0.585 0.183,-0.542C0.162,-0.499 0.151,-0.43 0.151,-0.334C0.151,-0.238 0.162,-0.169 0.183,-0.126C0.204,-0.083 0.236,-0.061 0.279,-0.061C0.322,-0.061 0.354,-0.083 0.375,-0.126C0.396,-0.169 0.407,-0.238 0.407,-0.334C0.407,-0.429 0.396,-0.499 0.375,-0.542C0.354,-0.584 0.322,-0.606 0.279,-0.606Z" style="fill-rule:nonzero;"/>
                </g>
                <g transform="matrix(58.3333,0,0,58.3333,449.702,781.606)">
                    <path d="M0.55,-0.689L0.33,-0L0.228,-0L0.006,-0.689L0.108,-0.689L0.281,-0.103L0.454,-0.689L0.55,-0.689Z" style="fill-rule:nonzero;"/>
                </g>
                <g transform="matrix(58.3333,0,0,58.3333,480.968,781.606)">
                    <path d="M0.502,-0.238L0.502,-0.165L0.415,-0.165L0.415,-0L0.326,-0L0.326,-0.165L0.04,-0.165L0.04,-0.231L0.241,-0.679L0.318,-0.647L0.137,-0.238L0.327,-0.238L0.335,-0.418L0.415,-0.418L0.415,-0.238L0.502,-0.238Z" style="fill-rule:nonzero;"/>
                </g>
            </g>
            <g transform="matrix(1,0,0,1,-8.72783,631.089)">
                <g transform="matrix(58.3333,0,0,58.3333,417.152,781.606)">
                    <path d="M0.279,-0.679C0.353,-0.679 0.409,-0.65 0.447,-0.591C0.484,-0.532 0.503,-0.446 0.503,-0.334C0.503,-0.222 0.484,-0.136 0.447,-0.077C0.409,-0.018 0.353,0.012 0.279,0.012C0.205,0.012 0.149,-0.018 0.112,-0.077C0.074,-0.136 0.055,-0.222 0.055,-0.334C0.055,-0.446 0.074,-0.532 0.112,-0.591C0.149,-0.65 0.205,-0.679 0.279,-0.679ZM0.279,-0.606C0.236,-0.606 0.204,-0.585 0.183,-0.542C0.162,-0.499 0.151,-0.43 0.151,-0.334C0.151,-0.238 0.162,-0.169 0.183,-0.126C0.204,-0.083 0.236,-0.061 0.279,-0.061C0.322,-0.061 0.354,-0.083 0.375,-0.126C0.396,-0.169 0.407,-0.238 0.407,-0.334C0.407,-0.429 0.396,-0.499 0.375,-0.542C0.354,-0.584 0.322,-0.606 0.279,-0.606Z" style="fill-rule:nonzero;"/>
                </g>
                <g transform="matrix(58.3333,0,0,58.3333,449.702,781.606)">
                    <path d="M0.55,-0.689L0.33,-0L0.228,-0L0.006,-0.689L0.108,-0.689L0.281,-0.103L0.454,-0.689L0.55,-0.689Z" style="fill-rule:nonzero;"/>
                </g>
            </g>
        </g>
        <g transform="matrix(1,0,0,1,148.776,-4.77619)">
            <g transform="matrix(1,0,0,1,-5.28616,15.3985)">
                <g transform="matrix(58.3333,0,0,58.3333,417.152,781.606)">
                    <path d="M0.42,-0.597L0.159,-0.597L0.159,-0.4C0.193,-0.417 0.229,-0.426 0.266,-0.426C0.323,-0.426 0.369,-0.407 0.404,-0.37C0.439,-0.332 0.456,-0.28 0.456,-0.214C0.456,-0.17 0.446,-0.131 0.427,-0.097C0.408,-0.062 0.381,-0.035 0.346,-0.017C0.311,0.003 0.27,0.012 0.224,0.012C0.183,0.012 0.147,0.005 0.115,-0.01C0.083,-0.024 0.053,-0.045 0.026,-0.073L0.08,-0.126C0.101,-0.105 0.123,-0.089 0.146,-0.079C0.169,-0.068 0.194,-0.063 0.223,-0.063C0.266,-0.063 0.299,-0.076 0.324,-0.103C0.348,-0.13 0.36,-0.167 0.36,-0.216C0.36,-0.265 0.349,-0.3 0.327,-0.322C0.305,-0.344 0.275,-0.355 0.238,-0.355C0.221,-0.355 0.205,-0.353 0.19,-0.35C0.175,-0.346 0.16,-0.34 0.143,-0.332L0.071,-0.332L0.071,-0.669L0.433,-0.669L0.42,-0.597Z" style="fill-rule:nonzero;"/>
                </g>
                <g transform="matrix(58.3333,0,0,58.3333,444.627,781.606)">
                    <path d="M0.55,-0.689L0.33,-0L0.228,-0L0.006,-0.689L0.108,-0.689L0.281,-0.103L0.454,-0.689L0.55,-0.689Z" style="fill-rule:nonzero;"/>
                </g>
            </g>
            <g transform="matrix(1,0,0,1,-5.86949,108.962)">
                <g transform="matrix(58.3333,0,0,58.3333,417.152,781.606)">
                    <path d="M0.502,-0.238L0.502,-0.165L0.415,-0.165L0.415,-0L0.326,-0L0.326,-0.165L0.04,-0.165L0.04,-0.231L0.241,-0.679L0.318,-0.647L0.137,-0.238L0.327,-0.238L0.335,-0.418L0.415,-0.418L0.415,-0.238L0.502,-0.238Z" style="fill-rule:nonzero;"/>
                </g>
                <g transform="matrix(58.3333,0,0,58.3333,447.018,781.606)">
                    <path d="M0.55,-0.689L0.33,-0L0.228,-0L0.006,-0.689L0.108,-0.689L0.281,-0.103L0.454,-0.689L0.55,-0.689Z" style="fill-rule:nonzero;"/>
                </g>
                <g transform="matrix(58.3333,0,0,58.3333,478.285,781.606)">
                    <path d="M0.502,-0.238L0.502,-0.165L0.415,-0.165L0.415,-0L0.326,-0L0.326,-0.165L0.04,-0.165L0.04,-0.231L0.241,-0.679L0.318,-0.647L0.137,-0.238L0.327,-0.238L0.335,-0.418L0.415,-0.418L0.415,-0.238L0.502,-0.238Z" style="fill-rule:nonzero;"/>
                </g>
                <g transform="matrix(58.3333,0,0,58.3333,509.318,781.606)">
                    <path d="M0.502,-0.238L0.502,-0.165L0.415,-0.165L0.415,-0L0.326,-0L0.326,-0.165L0.04,-0.165L0.04,-0.231L0.241,-0.679L0.318,-0.647L0.137,-0.238L0.327,-0.238L0.335,-0.418L0.415,-0.418L0.415,-0.238L0.502,-0.238Z" style="fill-rule:nonzero;"/>
                </g>
            </g>
            <g transform="matrix(1,0,0,1,-5.28616,233.034)">
                <g transform="matrix(58.3333,0,0,58.3333,417.152,781.606)">
                    <path d="M0.225,-0.679C0.266,-0.679 0.302,-0.671 0.332,-0.656C0.361,-0.641 0.384,-0.62 0.4,-0.594C0.415,-0.568 0.423,-0.54 0.423,-0.509C0.423,-0.468 0.411,-0.435 0.388,-0.409C0.364,-0.382 0.332,-0.364 0.293,-0.355C0.338,-0.351 0.374,-0.335 0.402,-0.307C0.43,-0.279 0.444,-0.241 0.444,-0.193C0.444,-0.154 0.435,-0.119 0.416,-0.088C0.397,-0.057 0.371,-0.032 0.336,-0.015C0.301,0.003 0.261,0.012 0.216,0.012C0.175,0.012 0.138,0.005 0.104,-0.011C0.07,-0.025 0.04,-0.048 0.015,-0.078L0.07,-0.129C0.092,-0.106 0.115,-0.09 0.138,-0.079C0.161,-0.068 0.186,-0.063 0.213,-0.063C0.255,-0.063 0.288,-0.075 0.312,-0.099C0.336,-0.122 0.348,-0.154 0.348,-0.194C0.348,-0.238 0.337,-0.269 0.314,-0.287C0.291,-0.305 0.258,-0.314 0.215,-0.314L0.165,-0.314L0.176,-0.385L0.21,-0.385C0.245,-0.385 0.274,-0.395 0.297,-0.416C0.32,-0.437 0.331,-0.466 0.331,-0.503C0.331,-0.534 0.321,-0.559 0.301,-0.578C0.281,-0.596 0.254,-0.605 0.22,-0.605C0.194,-0.605 0.17,-0.6 0.149,-0.591C0.127,-0.582 0.105,-0.566 0.082,-0.545L0.034,-0.6C0.091,-0.653 0.154,-0.679 0.225,-0.679Z" style="fill-rule:nonzero;"/>
                </g>
                <g transform="matrix(58.3333,0,0,58.3333,446.26,781.606)">
                    <path d="M0.55,-0.689L0.33,-0L0.228,-0L0.006,-0.689L0.108,-0.689L0.281,-0.103L0.454,-0.689L0.55,-0.689Z" style="fill-rule:nonzero;"/>
                </g>
                <g transform="matrix(58.3333,0,0,58.3333,478.11,781.606)">
                    <path d="M0.42,-0.597L0.159,-0.597L0.159,-0.4C0.193,-0.417 0.229,-0.426 0.266,-0.426C0.323,-0.426 0.369,-0.407 0.404,-0.37C0.439,-0.332 0.456,-0.28 0.456,-0.214C0.456,-0.17 0.446,-0.131 0.427,-0.097C0.408,-0.062 0.381,-0.035 0.346,-0.017C0.311,0.003 0.27,0.012 0.224,0.012C0.183,0.012 0.147,0.005 0.115,-0.01C0.083,-0.024 0.053,-0.045 0.026,-0.073L0.08,-0.126C0.101,-0.105 0.123,-0.089 0.146,-0.079C0.169,-0.068 0.194,-0.063 0.223,-0.063C0.266,-0.063 0.299,-0.076 0.324,-0.103C0.348,-0.13 0.36,-0.167 0.36,-0.216C0.36,-0.265 0.349,-0.3 0.327,-0.322C0.305,-0.344 0.275,-0.355 0.238,-0.355C0.221,-0.355 0.205,-0.353 0.19,-0.35C0.175,-0.346 0.16,-0.34 0.143,-0.332L0.071,-0.332L0.071,-0.669L0.433,-0.669L0.42,-0.597Z" style="fill-rule:nonzero;"/>
                </g>
            </g>
            <g transform="matrix(1,0,0,1,-6.45283,318.134)">
                <g transform="matrix(58.3333,0,0,58.3333,417.152,781.606)">
                    <path d="M0.228,-0.679C0.268,-0.679 0.303,-0.671 0.334,-0.655C0.364,-0.639 0.387,-0.617 0.404,-0.59C0.421,-0.562 0.429,-0.531 0.429,-0.496C0.429,-0.455 0.42,-0.416 0.402,-0.379C0.383,-0.342 0.355,-0.301 0.317,-0.258C0.279,-0.215 0.221,-0.154 0.144,-0.077L0.445,-0.077L0.434,-0L0.039,-0L0.039,-0.073C0.128,-0.166 0.192,-0.234 0.229,-0.277C0.266,-0.32 0.293,-0.357 0.309,-0.389C0.325,-0.421 0.333,-0.455 0.333,-0.492C0.333,-0.527 0.323,-0.554 0.303,-0.574C0.283,-0.593 0.256,-0.603 0.223,-0.603C0.196,-0.603 0.172,-0.597 0.151,-0.586C0.13,-0.575 0.108,-0.556 0.085,-0.53L0.025,-0.578C0.052,-0.612 0.083,-0.637 0.116,-0.654C0.149,-0.671 0.187,-0.679 0.228,-0.679Z" style="fill-rule:nonzero;"/>
                </g>
                <g transform="matrix(58.3333,0,0,58.3333,445.443,781.606)">
                    <path d="M0.55,-0.689L0.33,-0L0.228,-0L0.006,-0.689L0.108,-0.689L0.281,-0.103L0.454,-0.689L0.55,-0.689Z" style="fill-rule:nonzero;"/>
                </g>
                <g transform="matrix(58.3333,0,0,58.3333,477.293,781.606)">
                    <path d="M0.42,-0.597L0.159,-0.597L0.159,-0.4C0.193,-0.417 0.229,-0.426 0.266,-0.426C0.323,-0.426 0.369,-0.407 0.404,-0.37C0.439,-0.332 0.456,-0.28 0.456,-0.214C0.456,-0.17 0.446,-0.131 0.427,-0.097C0.408,-0.062 0.381,-0.035 0.346,-0.017C0.311,0.003 0.27,0.012 0.224,0.012C0.183,0.012 0.147,0.005 0.115,-0.01C0.083,-0.024 0.053,-0.045 0.026,-0.073L0.08,-0.126C0.101,-0.105 0.123,-0.089 0.146,-0.079C0.169,-0.068 0.194,-0.063 0.223,-0.063C0.266,-0.063 0.299,-0.076 0.324,-0.103C0.348,-0.13 0.36,-0.167 0.36,-0.216C0.36,-0.265 0.349,-0.3 0.327,-0.322C0.305,-0.344 0.275,-0.355 0.238,-0.355C0.221,-0.355 0.205,-0.353 0.19,-0.35C0.175,-0.346 0.16,-0.34 0.143,-0.332L0.071,-0.332L0.071,-0.669L0.433,-0.669L0.42,-0.597Z" style="fill-rule:nonzero;"/>
                </g>
            </g>
            <g transform="matrix(1,0,0,1,-6.45283,403.979)">
                <g transform="matrix(58.3333,0,0,58.3333,417.152,781.606)">
                    <path d="M0.323,-0.669L0.323,-0L0.231,-0L0.231,-0.571L0.075,-0.476L0.035,-0.541L0.242,-0.669L0.323,-0.669Z" style="fill-rule:nonzero;"/>
                </g>
                <g transform="matrix(58.3333,0,0,58.3333,442.41,781.606)">
                    <path d="M0.55,-0.689L0.33,-0L0.228,-0L0.006,-0.689L0.108,-0.689L0.281,-0.103L0.454,-0.689L0.55,-0.689Z" style="fill-rule:nonzero;"/>
                </g>
                <g transform="matrix(58.3333,0,0,58.3333,474.26,781.606)">
                    <path d="M0.42,-0.597L0.159,-0.597L0.159,-0.4C0.193,-0.417 0.229,-0.426 0.266,-0.426C0.323,-0.426 0.369,-0.407 0.404,-0.37C0.439,-0.332 0.456,-0.28 0.456,-0.214C0.456,-0.17 0.446,-0.131 0.427,-0.097C0.408,-0.062 0.381,-0.035 0.346,-0.017C0.311,0.003 0.27,0.012 0.224,0.012C0.183,0.012 0.147,0.005 0.115,-0.01C0.083,-0.024 0.053,-0.045 0.026,-0.073L0.08,-0.126C0.101,-0.105 0.123,-0.089 0.146,-0.079C0.169,-0.068 0.194,-0.063 0.223,-0.063C0.266,-0.063 0.299,-0.076 0.324,-0.103C0.348,-0.13 0.36,-0.167 0.36,-0.216C0.36,-0.265 0.349,-0.3 0.327,-0.322C0.305,-0.344 0.275,-0.355 0.238,-0.355C0.221,-0.355 0.205,-0.353 0.19,-0.35C0.175,-0.346 0.16,-0.34 0.143,-0.332L0.071,-0.332L0.071,-0.669L0.433,-0.669L0.42,-0.597Z" style="fill-rule:nonzero;"/>
                </g>
            </g>
            <g transform="matrix(1,0,0,1,-6.45283,536.119)">
                <g transform="matrix(58.3333,0,0,58.3333,417.152,781.606)">
                    <path d="M0.279,-0.679C0.353,-0.679 0.409,-0.65 0.447,-0.591C0.484,-0.532 0.503,-0.446 0.503,-0.334C0.503,-0.222 0.484,-0.136 0.447,-0.077C0.409,-0.018 0.353,0.012 0.279,0.012C0.205,0.012 0.149,-0.018 0.112,-0.077C0.074,-0.136 0.055,-0.222 0.055,-0.334C0.055,-0.446 0.074,-0.532 0.112,-0.591C0.149,-0.65 0.205,-0.679 0.279,-0.679ZM0.279,-0.606C0.236,-0.606 0.204,-0.585 0.183,-0.542C0.162,-0.499 0.151,-0.43 0.151,-0.334C0.151,-0.238 0.162,-0.169 0.183,-0.126C0.204,-0.083 0.236,-0.061 0.279,-0.061C0.322,-0.061 0.354,-0.083 0.375,-0.126C0.396,-0.169 0.407,-0.238 0.407,-0.334C0.407,-0.429 0.396,-0.499 0.375,-0.542C0.354,-0.584 0.322,-0.606 0.279,-0.606Z" style="fill-rule:nonzero;"/>
                </g>
                <g transform="matrix(58.3333,0,0,58.3333,449.702,781.606)">
                    <path d="M0.55,-0.689L0.33,-0L0.228,-0L0.006,-0.689L0.108,-0.689L0.281,-0.103L0.454,-0.689L0.55,-0.689Z" style="fill-rule:nonzero;"/>
                </g>
                <g transform="matrix(58.3333,0,0,58.3333,481.552,781.606)">
                    <path d="M0.42,-0.597L0.159,-0.597L0.159,-0.4C0.193,-0.417 0.229,-0.426 0.266,-0.426C0.323,-0.426 0.369,-0.407 0.404,-0.37C0.439,-0.332 0.456,-0.28 0.456,-0.214C0.456,-0.17 0.446,-0.131 0.427,-0.097C0.408,-0.062 0.381,-0.035 0.346,-0.017C0.311,0.003 0.27,0.012 0.224,0.012C0.183,0.012 0.147,0.005 0.115,-0.01C0.083,-0.024 0.053,-0.045 0.026,-0.073L0.08,-0.126C0.101,-0.105 0.123,-0.089 0.146,-0.079C0.169,-0.068 0.194,-0.063 0.223,-0.063C0.266,-0.063 0.299,-0.076 0.324,-0.103C0.348,-0.13 0.36,-0.167 0.36,-0.216C0.36,-0.265 0.349,-0.3 0.327,-0.322C0.305,-0.344 0.275,-0.355 0.238,-0.355C0.221,-0.355 0.205,-0.353 0.19,-0.35C0.175,-0.346 0.16,-0.34 0.143,-0.332L0.071,-0.332L0.071,-0.669L0.433,-0.669L0.42,-0.597Z" style="fill-rule:nonzero;"/>
                </g>
            </g>
            <g transform="matrix(1,0,0,1,-8.72783,631.089)">
                <g transform="matrix(58.3333,0,0,58.3333,417.152,781.606)">
                    <path d="M0.279,-0.679C0.353,-0.679 0.409,-0.65 0.447,-0.591C0.484,-0.532 0.503,-0.446 0.503,-0.334C0.503,-0.222 0.484,-0.136 0.447,-0.077C0.409,-0.018 0.353,0.012 0.279,0.012C0.205,0.012 0.149,-0.018 0.112,-0.077C0.074,-0.136 0.055,-0.222 0.055,-0.334C0.055,-0.446 0.074,-0.532 0.112,-0.591C0.149,-0.65 0.205,-0.679 0.279,-0.679ZM0.279,-0.606C0.236,-0.606 0.204,-0.585 0.183,-0.542C0.162,-0.499 0.151,-0.43 0.151,-0.334C0.151,-0.238 0.162,-0.169 0.183,-0.126C0.204,-0.083 0.236,-0.061 0.279,-0.061C0.322,-0.061 0.354,-0.083 0.375,-0.126C0.396,-0.169 0.407,-0.238 0.407,-0.334C0.407,-0.429 0.396,-0.499 0.375,-0.542C0.354,-0.584 0.322,-0.606 0.279,-0.606Z" style="fill-rule:nonzero;"/>
                </g>
                <g transform="matrix(58.3333,0,0,58.3333,449.702,781.606)">
                    <path d="M0.55,-0.689L0.33,-0L0.228,-0L0.006,-0.689L0.108,-0.689L0.281,-0.103L0.454,-0.689L0.55,-0.689Z" style="fill-rule:nonzero;"/>
                </g>
            </g>
        </g>
        <g transform="matrix(1,0,0,1,-25.7881,68.4361)">
            <g transform="matrix(34.0083,0,0,34.0083,362.599,613.009)">
                <path d="M0.253,-0.689L0.168,-0.083L0.448,-0.083L0.426,-0L0.062,-0L0.159,-0.689L0.253,-0.689Z" style="fill-rule:nonzero;"/>
            </g>
            <g transform="matrix(34.0083,0,0,34.0083,374.898,613.009)">
                <path d="M0.604,-0.689L0.289,-0L0.188,-0L0.065,-0.689L0.163,-0.689L0.251,-0.103L0.506,-0.689L0.604,-0.689Z" style="fill-rule:nonzero;"/>
            </g>
            <g transform="matrix(34.0083,0,0,34.0083,393.603,613.009)">
                <path d="M0.562,-0.689L0.54,-0.608L0.35,-0.608L0.265,-0L0.171,-0L0.256,-0.608L0.062,-0.608L0.074,-0.689L0.562,-0.689Z" style="fill-rule:nonzero;"/>
            </g>
            <g transform="matrix(34.0083,0,0,34.0083,410.981,613.009)">
                <path d="M0.562,-0.689L0.54,-0.608L0.35,-0.608L0.265,-0L0.171,-0L0.256,-0.608L0.062,-0.608L0.074,-0.689L0.562,-0.689Z" style="fill-rule:nonzero;"/>
            </g>
            <g transform="matrix(34.0083,0,0,34.0083,428.359,613.009)">
                <path d="M0.253,-0.689L0.168,-0.083L0.448,-0.083L0.426,-0L0.062,-0L0.159,-0.689L0.253,-0.689Z" style="fill-rule:nonzero;"/>
            </g>
            <g transform="matrix(34.0083,0,0,34.0083,453.9,613.009)">
                <path d="M0.357,-0.803C0.279,-0.707 0.223,-0.615 0.188,-0.528C0.153,-0.441 0.135,-0.341 0.135,-0.229C0.135,-0.162 0.142,-0.104 0.158,-0.055C0.172,-0.005 0.196,0.05 0.227,0.109L0.167,0.143C0.138,0.094 0.116,0.052 0.1,0.019C0.083,-0.015 0.069,-0.054 0.059,-0.097C0.048,-0.14 0.042,-0.188 0.042,-0.24C0.042,-0.324 0.052,-0.399 0.072,-0.466C0.091,-0.532 0.119,-0.594 0.156,-0.651C0.193,-0.708 0.242,-0.774 0.303,-0.847L0.357,-0.803Z" style="fill-rule:nonzero;"/>
            </g>
            <g transform="matrix(34.0083,0,0,34.0083,464.714,613.009)">
                <path d="M0.276,-0.679C0.332,-0.679 0.376,-0.664 0.407,-0.634C0.438,-0.604 0.454,-0.566 0.454,-0.521C0.454,-0.481 0.441,-0.446 0.416,-0.417C0.39,-0.387 0.352,-0.366 0.302,-0.354C0.339,-0.351 0.37,-0.337 0.394,-0.313C0.418,-0.289 0.43,-0.257 0.43,-0.216C0.43,-0.18 0.421,-0.145 0.402,-0.11C0.383,-0.075 0.354,-0.046 0.316,-0.023C0.278,0.001 0.232,0.012 0.178,0.012C0.137,0.012 0.101,0.004 0.069,-0.012C0.036,-0.027 0.01,-0.05 -0.011,-0.08L0.049,-0.13C0.067,-0.106 0.087,-0.089 0.109,-0.079C0.13,-0.068 0.155,-0.063 0.182,-0.063C0.228,-0.063 0.265,-0.078 0.294,-0.109C0.323,-0.14 0.337,-0.179 0.337,-0.227C0.337,-0.259 0.327,-0.282 0.308,-0.295C0.288,-0.308 0.259,-0.314 0.221,-0.314L0.169,-0.314L0.19,-0.385L0.222,-0.385C0.266,-0.385 0.3,-0.397 0.325,-0.423C0.35,-0.448 0.362,-0.479 0.362,-0.517C0.362,-0.545 0.354,-0.567 0.338,-0.582C0.321,-0.597 0.298,-0.605 0.269,-0.605C0.242,-0.605 0.218,-0.6 0.195,-0.59C0.171,-0.58 0.147,-0.564 0.122,-0.543L0.077,-0.601C0.14,-0.653 0.206,-0.679 0.276,-0.679Z" style="fill-rule:nonzero;"/>
            </g>
            <g transform="matrix(34.0083,0,0,34.0083,481.48,613.009)">
                <path d="M0.604,-0.689L0.289,-0L0.188,-0L0.065,-0.689L0.163,-0.689L0.251,-0.103L0.506,-0.689L0.604,-0.689Z" style="fill-rule:nonzero;"/>
            </g>
            <g transform="matrix(34.0083,0,0,34.0083,500.185,613.009)">
                <path d="M0.276,-0.679C0.332,-0.679 0.376,-0.664 0.407,-0.634C0.438,-0.604 0.454,-0.566 0.454,-0.521C0.454,-0.481 0.441,-0.446 0.416,-0.417C0.39,-0.387 0.352,-0.366 0.302,-0.354C0.339,-0.351 0.37,-0.337 0.394,-0.313C0.418,-0.289 0.43,-0.257 0.43,-0.216C0.43,-0.18 0.421,-0.145 0.402,-0.11C0.383,-0.075 0.354,-0.046 0.316,-0.023C0.278,0.001 0.232,0.012 0.178,0.012C0.137,0.012 0.101,0.004 0.069,-0.012C0.036,-0.027 0.01,-0.05 -0.011,-0.08L0.049,-0.13C0.067,-0.106 0.087,-0.089 0.109,-0.079C0.13,-0.068 0.155,-0.063 0.182,-0.063C0.228,-0.063 0.265,-0.078 0.294,-0.109C0.323,-0.14 0.337,-0.179 0.337,-0.227C0.337,-0.259 0.327,-0.282 0.308,-0.295C0.288,-0.308 0.259,-0.314 0.221,-0.314L0.169,-0.314L0.19,-0.385L0.222,-0.385C0.266,-0.385 0.3,-0.397 0.325,-0.423C0.35,-0.448 0.362,-0.479 0.362,-0.517C0.362,-0.545 0.354,-0.567 0.338,-0.582C0.321,-0.597 0.298,-0.605 0.269,-0.605C0.242,-0.605 0.218,-0.6 0.195,-0.59C0.171,-0.58 0.147,-0.564 0.122,-0.543L0.077,-0.601C0.14,-0.653 0.206,-0.679 0.276,-0.679Z" style="fill-rule:nonzero;"/>
            </g>
            <g transform="matrix(34.0083,0,0,34.0083,516.951,613.009)">
                <path d="M0.175,-0.843C0.204,-0.794 0.226,-0.752 0.243,-0.719C0.259,-0.685 0.273,-0.646 0.284,-0.603C0.295,-0.56 0.3,-0.512 0.3,-0.46C0.3,-0.376 0.29,-0.301 0.271,-0.235C0.251,-0.168 0.223,-0.106 0.186,-0.049C0.149,0.008 0.1,0.074 0.039,0.147L-0.015,0.103C0.063,0.007 0.12,-0.085 0.155,-0.173C0.19,-0.261 0.208,-0.361 0.208,-0.473C0.208,-0.539 0.2,-0.597 0.185,-0.646C0.17,-0.695 0.146,-0.75 0.115,-0.809L0.175,-0.843Z" style="fill-rule:nonzero;"/>
            </g>
            <g transform="matrix(34.0083,0,0,34.0083,328.465,646.343)">
                <path d="M0.253,-0.689L0.168,-0.083L0.448,-0.083L0.426,-0L0.062,-0L0.159,-0.689L0.253,-0.689Z" style="fill-rule:nonzero;"/>
            </g>
            <g transform="matrix(34.0083,0,0,34.0083,340.764,646.343)">
                <path d="M0.604,-0.689L0.289,-0L0.188,-0L0.065,-0.689L0.163,-0.689L0.251,-0.103L0.506,-0.689L0.604,-0.689Z" style="fill-rule:nonzero;"/>
            </g>
            <g transform="matrix(34.0083,0,0,34.0083,359.177,646.343)">
                <path d="M0.394,-0.701C0.433,-0.701 0.467,-0.695 0.497,-0.683C0.527,-0.671 0.554,-0.653 0.579,-0.63L0.525,-0.577C0.504,-0.593 0.484,-0.605 0.464,-0.612C0.443,-0.619 0.421,-0.623 0.398,-0.623C0.342,-0.623 0.296,-0.604 0.261,-0.568C0.225,-0.531 0.199,-0.484 0.184,-0.429C0.168,-0.374 0.16,-0.317 0.16,-0.26C0.16,-0.194 0.174,-0.146 0.201,-0.115C0.228,-0.084 0.265,-0.068 0.312,-0.068C0.342,-0.068 0.369,-0.073 0.392,-0.084C0.415,-0.094 0.44,-0.108 0.467,-0.127L0.509,-0.063C0.45,-0.013 0.382,0.012 0.306,0.012C0.231,0.012 0.171,-0.012 0.127,-0.061C0.083,-0.11 0.061,-0.179 0.061,-0.268C0.061,-0.335 0.073,-0.401 0.097,-0.468C0.12,-0.535 0.157,-0.59 0.207,-0.635C0.257,-0.679 0.319,-0.701 0.394,-0.701Z" style="fill-rule:nonzero;"/>
            </g>
            <g transform="matrix(34.0083,0,0,34.0083,377.76,646.343)">
                <path d="M0.673,-0L0.582,-0L0.602,-0.314C0.609,-0.431 0.616,-0.524 0.623,-0.591L0.405,-0.078L0.315,-0.078L0.232,-0.59C0.224,-0.523 0.206,-0.427 0.179,-0.301L0.115,-0L0.025,-0L0.179,-0.689L0.298,-0.689L0.376,-0.19L0.58,-0.689L0.713,-0.689L0.673,-0Z" style="fill-rule:nonzero;"/>
            </g>
            <g transform="matrix(34.0083,0,0,34.0083,403.431,646.343)">
                <path d="M0.402,-0.701C0.478,-0.701 0.538,-0.677 0.582,-0.628C0.626,-0.579 0.648,-0.51 0.648,-0.421C0.648,-0.354 0.636,-0.287 0.614,-0.221C0.591,-0.154 0.554,-0.099 0.503,-0.055C0.452,-0.01 0.387,0.012 0.308,0.012C0.232,0.012 0.172,-0.012 0.128,-0.06C0.083,-0.108 0.061,-0.176 0.061,-0.265C0.061,-0.331 0.073,-0.397 0.096,-0.464C0.119,-0.531 0.156,-0.587 0.207,-0.633C0.258,-0.678 0.323,-0.701 0.402,-0.701ZM0.398,-0.623C0.34,-0.623 0.293,-0.604 0.258,-0.566C0.222,-0.528 0.197,-0.482 0.182,-0.427C0.167,-0.372 0.159,-0.317 0.159,-0.262C0.159,-0.131 0.21,-0.066 0.311,-0.066C0.37,-0.066 0.417,-0.085 0.453,-0.124C0.488,-0.162 0.513,-0.209 0.528,-0.264C0.543,-0.319 0.55,-0.373 0.55,-0.428C0.55,-0.558 0.499,-0.623 0.398,-0.623Z" style="fill-rule:nonzero;"/>
            </g>
            <g transform="matrix(34.0083,0,0,34.0083,426.761,646.343)">
                <path d="M0.324,-0.701C0.367,-0.701 0.405,-0.694 0.438,-0.68C0.471,-0.666 0.5,-0.645 0.527,-0.618L0.468,-0.563C0.447,-0.584 0.425,-0.6 0.402,-0.609C0.379,-0.618 0.353,-0.623 0.324,-0.623C0.283,-0.623 0.25,-0.613 0.223,-0.593C0.196,-0.573 0.183,-0.546 0.183,-0.511C0.183,-0.484 0.192,-0.463 0.21,-0.447C0.228,-0.431 0.262,-0.415 0.312,-0.398C0.369,-0.38 0.414,-0.357 0.445,-0.33C0.476,-0.303 0.492,-0.262 0.492,-0.209C0.492,-0.172 0.482,-0.136 0.463,-0.103C0.443,-0.069 0.413,-0.041 0.373,-0.02C0.332,0.001 0.282,0.012 0.222,0.012C0.127,0.012 0.053,-0.019 -0.001,-0.08L0.059,-0.136C0.08,-0.113 0.104,-0.095 0.131,-0.084C0.158,-0.072 0.189,-0.066 0.224,-0.066C0.275,-0.066 0.317,-0.079 0.348,-0.104C0.379,-0.129 0.394,-0.162 0.394,-0.204C0.394,-0.233 0.385,-0.257 0.367,-0.274C0.348,-0.291 0.315,-0.307 0.267,-0.324C0.204,-0.346 0.159,-0.37 0.13,-0.397C0.101,-0.423 0.087,-0.459 0.087,-0.506C0.087,-0.537 0.096,-0.568 0.115,-0.598C0.134,-0.628 0.161,-0.653 0.197,-0.672C0.232,-0.691 0.275,-0.701 0.324,-0.701Z" style="fill-rule:nonzero;"/>
            </g>
            <g transform="matrix(34.0083,0,0,34.0083,453.9,646.343)">
                <path d="M0.357,-0.803C0.279,-0.707 0.223,-0.615 0.188,-0.528C0.153,-0.441 0.135,-0.341 0.135,-0.229C0.135,-0.162 0.142,-0.104 0.158,-0.055C0.172,-0.005 0.196,0.05 0.227,0.109L0.167,0.143C0.138,0.094 0.116,0.052 0.1,0.019C0.083,-0.015 0.069,-0.054 0.059,-0.097C0.048,-0.14 0.042,-0.188 0.042,-0.24C0.042,-0.324 0.052,-0.399 0.072,-0.466C0.091,-0.532 0.119,-0.594 0.156,-0.651C0.193,-0.708 0.242,-0.774 0.303,-0.847L0.357,-0.803Z" style="fill-rule:nonzero;"/>
            </g>
            <g transform="matrix(34.0083,0,0,34.0083,464.714,646.343)">
                <path d="M0.276,-0.679C0.332,-0.679 0.376,-0.664 0.407,-0.634C0.438,-0.604 0.454,-0.566 0.454,-0.521C0.454,-0.481 0.441,-0.446 0.416,-0.417C0.39,-0.387 0.352,-0.366 0.302,-0.354C0.339,-0.351 0.37,-0.337 0.394,-0.313C0.418,-0.289 0.43,-0.257 0.43,-0.216C0.43,-0.18 0.421,-0.145 0.402,-0.11C0.383,-0.075 0.354,-0.046 0.316,-0.023C0.278,0.001 0.232,0.012 0.178,0.012C0.137,0.012 0.101,0.004 0.069,-0.012C0.036,-0.027 0.01,-0.05 -0.011,-0.08L0.049,-0.13C0.067,-0.106 0.087,-0.089 0.109,-0.079C0.13,-0.068 0.155,-0.063 0.182,-0.063C0.228,-0.063 0.265,-0.078 0.294,-0.109C0.323,-0.14 0.337,-0.179 0.337,-0.227C0.337,-0.259 0.327,-0.282 0.308,-0.295C0.288,-0.308 0.259,-0.314 0.221,-0.314L0.169,-0.314L0.19,-0.385L0.222,-0.385C0.266,-0.385 0.3,-0.397 0.325,-0.423C0.35,-0.448 0.362,-0.479 0.362,-0.517C0.362,-0.545 0.354,-0.567 0.338,-0.582C0.321,-0.597 0.298,-0.605 0.269,-0.605C0.242,-0.605 0.218,-0.6 0.195,-0.59C0.171,-0.58 0.147,-0.564 0.122,-0.543L0.077,-0.601C0.14,-0.653 0.206,-0.679 0.276,-0.679Z" style="fill-rule:nonzero;"/>
            </g>
            <g transform="matrix(34.0083,0,0,34.0083,481.48,646.343)">
                <path d="M0.604,-0.689L0.289,-0L0.188,-0L0.065,-0.689L0.163,-0.689L0.251,-0.103L0.506,-0.689L0.604,-0.689Z" style="fill-rule:nonzero;"/>
            </g>
            <g transform="matrix(34.0083,0,0,34.0083,500.185,646.343)">
                <path d="M0.276,-0.679C0.332,-0.679 0.376,-0.664 0.407,-0.634C0.438,-0.604 0.454,-0.566 0.454,-0.521C0.454,-0.481 0.441,-0.446 0.416,-0.417C0.39,-0.387 0.352,-0.366 0.302,-0.354C0.339,-0.351 0.37,-0.337 0.394,-0.313C0.418,-0.289 0.43,-0.257 0.43,-0.216C0.43,-0.18 0.421,-0.145 0.402,-0.11C0.383,-0.075 0.354,-0.046 0.316,-0.023C0.278,0.001 0.232,0.012 0.178,0.012C0.137,0.012 0.101,0.004 0.069,-0.012C0.036,-0.027 0.01,-0.05 -0.011,-0.08L0.049,-0.13C0.067,-0.106 0.087,-0.089 0.109,-0.079C0.13,-0.068 0.155,-0.063 0.182,-0.063C0.228,-0.063 0.265,-0.078 0.294,-0.109C0.323,-0.14 0.337,-0.179 0.337,-0.227C0.337,-0.259 0.327,-0.282 0.308,-0.295C0.288,-0.308 0.259,-0.314 0.221,-0.314L0.169,-0.314L0.19,-0.385L0.222,-0.385C0.266,-0.385 0.3,-0.397 0.325,-0.423C0.35,-0.448 0.362,-0.479 0.362,-0.517C0.362,-0.545 0.354,-0.567 0.338,-0.582C0.321,-0.597 0.298,-0.605 0.269,-0.605C0.242,-0.605 0.218,-0.6 0.195,-0.59C0.171,-0.58 0.147,-0.564 0.122,-0.543L0.077,-0.601C0.14,-0.653 0.206,-0.679 0.276,-0.679Z" style="fill-rule:nonzero;"/>
            </g>
            <g transform="matrix(34.0083,0,0,34.0083,516.951,646.343)">
                <path d="M0.175,-0.843C0.204,-0.794 0.226,-0.752 0.243,-0.719C0.259,-0.685 0.273,-0.646 0.284,-0.603C0.295,-0.56 0.3,-0.512 0.3,-0.46C0.3,-0.376 0.29,-0.301 0.271,-0.235C0.251,-0.168 0.223,-0.106 0.186,-0.049C0.149,0.008 0.1,0.074 0.039,0.147L-0.015,0.103C0.063,0.007 0.12,-0.085 0.155,-0.173C0.19,-0.261 0.208,-0.361 0.208,-0.473C0.208,-0.539 0.2,-0.597 0.185,-0.646C0.17,-0.695 0.146,-0.75 0.115,-0.809L0.175,-0.843Z" style="fill-rule:nonzero;"/>
            </g>
        </g>
        <g transform="matrix(1,0,0,1,270.458,68.4361)">
            <g transform="matrix(34.0083,0,0,34.0083,290.59,613.009)">
                <path d="M0.394,-0.701C0.433,-0.701 0.467,-0.695 0.497,-0.683C0.527,-0.671 0.554,-0.653 0.579,-0.63L0.525,-0.577C0.504,-0.593 0.484,-0.605 0.464,-0.612C0.443,-0.619 0.421,-0.623 0.398,-0.623C0.342,-0.623 0.296,-0.604 0.261,-0.568C0.225,-0.531 0.199,-0.484 0.184,-0.429C0.168,-0.374 0.16,-0.317 0.16,-0.26C0.16,-0.194 0.174,-0.146 0.201,-0.115C0.228,-0.084 0.265,-0.068 0.312,-0.068C0.342,-0.068 0.369,-0.073 0.392,-0.084C0.415,-0.094 0.44,-0.108 0.467,-0.127L0.509,-0.063C0.45,-0.013 0.382,0.012 0.306,0.012C0.231,0.012 0.171,-0.012 0.127,-0.061C0.083,-0.11 0.061,-0.179 0.061,-0.268C0.061,-0.335 0.073,-0.401 0.097,-0.468C0.12,-0.535 0.157,-0.59 0.207,-0.635C0.257,-0.679 0.319,-0.701 0.394,-0.701Z" style="fill-rule:nonzero;"/>
            </g>
            <g transform="matrix(34.0083,0,0,34.0083,309.173,613.009)">
                <path d="M0.673,-0L0.582,-0L0.602,-0.314C0.609,-0.431 0.616,-0.524 0.623,-0.591L0.405,-0.078L0.315,-0.078L0.232,-0.59C0.224,-0.523 0.206,-0.427 0.179,-0.301L0.115,-0L0.025,-0L0.179,-0.689L0.298,-0.689L0.376,-0.19L0.58,-0.689L0.713,-0.689L0.673,-0Z" style="fill-rule:nonzero;"/>
            </g>
            <g transform="matrix(34.0083,0,0,34.0083,334.844,613.009)">
                <path d="M0.402,-0.701C0.478,-0.701 0.538,-0.677 0.582,-0.628C0.626,-0.579 0.648,-0.51 0.648,-0.421C0.648,-0.354 0.636,-0.287 0.614,-0.221C0.591,-0.154 0.554,-0.099 0.503,-0.055C0.452,-0.01 0.387,0.012 0.308,0.012C0.232,0.012 0.172,-0.012 0.128,-0.06C0.083,-0.108 0.061,-0.176 0.061,-0.265C0.061,-0.331 0.073,-0.397 0.096,-0.464C0.119,-0.531 0.156,-0.587 0.207,-0.633C0.258,-0.678 0.323,-0.701 0.402,-0.701ZM0.398,-0.623C0.34,-0.623 0.293,-0.604 0.258,-0.566C0.222,-0.528 0.197,-0.482 0.182,-0.427C0.167,-0.372 0.159,-0.317 0.159,-0.262C0.159,-0.131 0.21,-0.066 0.311,-0.066C0.37,-0.066 0.417,-0.085 0.453,-0.124C0.488,-0.162 0.513,-0.209 0.528,-0.264C0.543,-0.319 0.55,-0.373 0.55,-0.428C0.55,-0.558 0.499,-0.623 0.398,-0.623Z" style="fill-rule:nonzero;"/>
            </g>
            <g transform="matrix(34.0083,0,0,34.0083,358.174,613.009)">
                <path d="M0.324,-0.701C0.367,-0.701 0.405,-0.694 0.438,-0.68C0.471,-0.666 0.5,-0.645 0.527,-0.618L0.468,-0.563C0.447,-0.584 0.425,-0.6 0.402,-0.609C0.379,-0.618 0.353,-0.623 0.324,-0.623C0.283,-0.623 0.25,-0.613 0.223,-0.593C0.196,-0.573 0.183,-0.546 0.183,-0.511C0.183,-0.484 0.192,-0.463 0.21,-0.447C0.228,-0.431 0.262,-0.415 0.312,-0.398C0.369,-0.38 0.414,-0.357 0.445,-0.33C0.476,-0.303 0.492,-0.262 0.492,-0.209C0.492,-0.172 0.482,-0.136 0.463,-0.103C0.443,-0.069 0.413,-0.041 0.373,-0.02C0.332,0.001 0.282,0.012 0.222,0.012C0.127,0.012 0.053,-0.019 -0.001,-0.08L0.059,-0.136C0.08,-0.113 0.104,-0.095 0.131,-0.084C0.158,-0.072 0.189,-0.066 0.224,-0.066C0.275,-0.066 0.317,-0.079 0.348,-0.104C0.379,-0.129 0.394,-0.162 0.394,-0.204C0.394,-0.233 0.385,-0.257 0.367,-0.274C0.348,-0.291 0.315,-0.307 0.267,-0.324C0.204,-0.346 0.159,-0.37 0.13,-0.397C0.101,-0.423 0.087,-0.459 0.087,-0.506C0.087,-0.537 0.096,-0.568 0.115,-0.598C0.134,-0.628 0.161,-0.653 0.197,-0.672C0.232,-0.691 0.275,-0.701 0.324,-0.701Z" style="fill-rule:nonzero;"/>
            </g>
            <g transform="matrix(34.0083,0,0,34.0083,385.312,613.009)">
                <path d="M0.357,-0.803C0.279,-0.707 0.223,-0.615 0.188,-0.528C0.153,-0.441 0.135,-0.341 0.135,-0.229C0.135,-0.162 0.142,-0.104 0.158,-0.055C0.172,-0.005 0.196,0.05 0.227,0.109L0.167,0.143C0.138,0.094 0.116,0.052 0.1,0.019C0.083,-0.015 0.069,-0.054 0.059,-0.097C0.048,-0.14 0.042,-0.188 0.042,-0.24C0.042,-0.324 0.052,-0.399 0.072,-0.466C0.091,-0.532 0.119,-0.594 0.156,-0.651C0.193,-0.708 0.242,-0.774 0.303,-0.847L0.357,-0.803Z" style="fill-rule:nonzero;"/>
            </g>
            <g transform="matrix(34.0083,0,0,34.0083,396.127,613.009)">
                <path d="M0.463,-0.597L0.204,-0.597L0.176,-0.401C0.209,-0.418 0.245,-0.426 0.282,-0.426C0.333,-0.426 0.374,-0.41 0.403,-0.379C0.432,-0.347 0.446,-0.302 0.446,-0.245C0.446,-0.206 0.437,-0.167 0.419,-0.128C0.401,-0.088 0.373,-0.055 0.334,-0.028C0.295,-0.001 0.246,0.012 0.188,0.012C0.146,0.012 0.11,0.005 0.08,-0.011C0.05,-0.025 0.023,-0.047 0,-0.075L0.06,-0.126C0.077,-0.104 0.096,-0.088 0.117,-0.078C0.137,-0.068 0.162,-0.063 0.19,-0.063C0.228,-0.063 0.259,-0.073 0.284,-0.092C0.308,-0.111 0.326,-0.135 0.337,-0.164C0.347,-0.192 0.353,-0.22 0.353,-0.247C0.353,-0.319 0.32,-0.355 0.254,-0.355C0.235,-0.355 0.219,-0.353 0.204,-0.35C0.189,-0.346 0.171,-0.34 0.152,-0.332L0.08,-0.332L0.127,-0.669L0.485,-0.669L0.463,-0.597Z" style="fill-rule:nonzero;"/>
            </g>
            <g transform="matrix(34.0083,0,0,34.0083,411.211,613.009)">
                <path d="M0.604,-0.689L0.289,-0L0.188,-0L0.065,-0.689L0.163,-0.689L0.251,-0.103L0.506,-0.689L0.604,-0.689Z" style="fill-rule:nonzero;"/>
            </g>
            <g transform="matrix(34.0083,0,0,34.0083,429.916,613.009)">
                <path d="M0.175,-0.843C0.204,-0.794 0.226,-0.752 0.243,-0.719C0.259,-0.685 0.273,-0.646 0.284,-0.603C0.295,-0.56 0.3,-0.512 0.3,-0.46C0.3,-0.376 0.29,-0.301 0.271,-0.235C0.251,-0.168 0.223,-0.106 0.186,-0.049C0.149,0.008 0.1,0.074 0.039,0.147L-0.015,0.103C0.063,0.007 0.12,-0.085 0.155,-0.173C0.19,-0.261 0.208,-0.361 0.208,-0.473C0.208,-0.539 0.2,-0.597 0.185,-0.646C0.17,-0.695 0.146,-0.75 0.115,-0.809L0.175,-0.843Z" style="fill-rule:nonzero;"/>
            </g>
            <g transform="matrix(34.0083,0,0,34.0083,290.59,646.343)">
                <path d="M0.572,-0.518C0.572,-0.471 0.558,-0.429 0.531,-0.39C0.503,-0.351 0.459,-0.323 0.398,-0.306L0.537,-0L0.433,-0L0.306,-0.292L0.197,-0.292L0.156,-0L0.062,-0L0.159,-0.689L0.336,-0.689C0.493,-0.689 0.572,-0.632 0.572,-0.518ZM0.207,-0.365L0.308,-0.365C0.367,-0.365 0.409,-0.38 0.435,-0.41C0.46,-0.44 0.473,-0.476 0.473,-0.517C0.473,-0.552 0.462,-0.578 0.439,-0.593C0.416,-0.608 0.38,-0.615 0.331,-0.615L0.242,-0.615L0.207,-0.365Z" style="fill-rule:nonzero;"/>
            </g>
            <g transform="matrix(34.0083,0,0,34.0083,310.086,646.343)">
                <path d="M0.331,-0.539C0.364,-0.539 0.395,-0.535 0.425,-0.528C0.454,-0.521 0.485,-0.509 0.516,-0.494L0.462,-0.12C0.461,-0.109 0.46,-0.102 0.46,-0.098C0.46,-0.086 0.463,-0.076 0.468,-0.069C0.472,-0.062 0.481,-0.056 0.494,-0.051L0.468,0.012C0.44,0.009 0.418,0 0.403,-0.014C0.388,-0.028 0.378,-0.049 0.375,-0.076C0.354,-0.049 0.33,-0.027 0.303,-0.012C0.276,0.004 0.248,0.012 0.218,0.012C0.165,0.012 0.123,-0.006 0.094,-0.043C0.065,-0.08 0.05,-0.129 0.05,-0.19C0.05,-0.243 0.06,-0.297 0.08,-0.35C0.099,-0.403 0.13,-0.448 0.172,-0.485C0.214,-0.521 0.267,-0.539 0.331,-0.539ZM0.333,-0.466C0.291,-0.466 0.256,-0.452 0.229,-0.424C0.201,-0.395 0.181,-0.36 0.168,-0.318C0.155,-0.275 0.148,-0.232 0.148,-0.189C0.148,-0.146 0.156,-0.114 0.171,-0.093C0.186,-0.071 0.208,-0.061 0.237,-0.061C0.264,-0.061 0.289,-0.069 0.311,-0.086C0.332,-0.103 0.355,-0.127 0.378,-0.158L0.419,-0.449C0.405,-0.455 0.392,-0.459 0.379,-0.462C0.366,-0.465 0.35,-0.466 0.333,-0.466Z" style="fill-rule:nonzero;"/>
            </g>
            <g transform="matrix(34.0083,0,0,34.0083,329.437,646.343)">
                <path d="M0.222,-0.527L0.148,-0L0.057,-0L0.131,-0.527L0.222,-0.527ZM0.198,-0.655C0.18,-0.655 0.166,-0.661 0.155,-0.672C0.144,-0.683 0.139,-0.696 0.139,-0.712C0.139,-0.731 0.146,-0.748 0.159,-0.761C0.172,-0.774 0.189,-0.78 0.208,-0.78C0.226,-0.78 0.24,-0.775 0.251,-0.764C0.262,-0.753 0.267,-0.74 0.267,-0.723C0.267,-0.704 0.26,-0.688 0.247,-0.675C0.234,-0.662 0.217,-0.655 0.198,-0.655Z" style="fill-rule:nonzero;"/>
            </g>
            <g transform="matrix(34.0083,0,0,34.0083,338.925,646.343)">
                <path d="M0.158,-0.103C0.157,-0.1 0.157,-0.095 0.157,-0.09C0.157,-0.081 0.159,-0.074 0.163,-0.07C0.167,-0.066 0.173,-0.064 0.182,-0.064C0.192,-0.064 0.204,-0.066 0.218,-0.071L0.237,-0.005C0.212,0.006 0.187,0.012 0.164,0.012C0.133,0.012 0.11,0.004 0.093,-0.013C0.076,-0.03 0.067,-0.054 0.067,-0.087C0.067,-0.093 0.068,-0.103 0.069,-0.118L0.157,-0.739L0.249,-0.75L0.158,-0.103Z" style="fill-rule:nonzero;"/>
            </g>
            <g transform="matrix(34.0083,0,0,34.0083,348.136,646.343)">
                <path d="M0.059,-0.274L0.07,-0.352L0.351,-0.352L0.34,-0.274L0.059,-0.274Z" style="fill-rule:nonzero;"/>
            </g>
            <g transform="matrix(34.0083,0,0,34.0083,361.346,646.343)">
                <path d="M0.173,-0.139C0.172,-0.126 0.171,-0.117 0.171,-0.113C0.171,-0.096 0.175,-0.084 0.183,-0.077C0.19,-0.069 0.202,-0.065 0.218,-0.065C0.23,-0.065 0.242,-0.067 0.254,-0.071C0.265,-0.074 0.279,-0.08 0.294,-0.087L0.324,-0.023C0.287,0 0.248,0.012 0.207,0.012C0.166,0.012 0.135,0.002 0.113,-0.02C0.091,-0.041 0.08,-0.07 0.08,-0.109C0.08,-0.123 0.081,-0.134 0.082,-0.141L0.126,-0.456L0.035,-0.456L0.045,-0.527L0.14,-0.527L0.173,-0.649L0.245,-0.657L0.227,-0.527L0.351,-0.527L0.331,-0.456L0.217,-0.456L0.173,-0.139Z" style="fill-rule:nonzero;"/>
            </g>
            <g transform="matrix(34.0083,0,0,34.0083,372.252,646.343)">
                <path d="M0.254,0.012C0.189,0.012 0.139,-0.007 0.105,-0.046C0.07,-0.085 0.052,-0.138 0.052,-0.206C0.052,-0.255 0.061,-0.306 0.08,-0.357C0.098,-0.407 0.127,-0.451 0.168,-0.486C0.209,-0.521 0.261,-0.539 0.325,-0.539C0.39,-0.539 0.439,-0.52 0.474,-0.481C0.509,-0.442 0.526,-0.389 0.526,-0.321C0.526,-0.272 0.517,-0.223 0.499,-0.172C0.481,-0.121 0.452,-0.077 0.411,-0.042C0.37,-0.006 0.318,0.012 0.254,0.012ZM0.257,-0.062C0.299,-0.062 0.333,-0.077 0.359,-0.106C0.385,-0.134 0.403,-0.169 0.414,-0.211C0.425,-0.252 0.43,-0.292 0.43,-0.331C0.43,-0.42 0.394,-0.465 0.322,-0.465C0.28,-0.465 0.246,-0.451 0.22,-0.422C0.194,-0.393 0.175,-0.358 0.165,-0.317C0.154,-0.276 0.148,-0.235 0.148,-0.196C0.148,-0.107 0.184,-0.062 0.257,-0.062Z" style="fill-rule:nonzero;"/>
            </g>
            <g transform="matrix(34.0083,0,0,34.0083,391.909,646.343)">
                <path d="M0.059,-0.274L0.07,-0.352L0.351,-0.352L0.34,-0.274L0.059,-0.274Z" style="fill-rule:nonzero;"/>
            </g>
            <g transform="matrix(34.0083,0,0,34.0083,405.41,646.343)">
                <path d="M0.572,-0.518C0.572,-0.471 0.558,-0.429 0.531,-0.39C0.503,-0.351 0.459,-0.323 0.398,-0.306L0.537,-0L0.433,-0L0.306,-0.292L0.197,-0.292L0.156,-0L0.062,-0L0.159,-0.689L0.336,-0.689C0.493,-0.689 0.572,-0.632 0.572,-0.518ZM0.207,-0.365L0.308,-0.365C0.367,-0.365 0.409,-0.38 0.435,-0.41C0.46,-0.44 0.473,-0.476 0.473,-0.517C0.473,-0.552 0.462,-0.578 0.439,-0.593C0.416,-0.608 0.38,-0.615 0.331,-0.615L0.242,-0.615L0.207,-0.365Z" style="fill-rule:nonzero;"/>
            </g>
            <g transform="matrix(34.0083,0,0,34.0083,424.906,646.343)">
                <path d="M0.331,-0.539C0.364,-0.539 0.395,-0.535 0.425,-0.528C0.454,-0.521 0.485,-0.509 0.516,-0.494L0.462,-0.12C0.461,-0.109 0.46,-0.102 0.46,-0.098C0.46,-0.086 0.463,-0.076 0.468,-0.069C0.472,-0.062 0.481,-0.056 0.494,-0.051L0.468,0.012C0.44,0.009 0.418,0 0.403,-0.014C0.388,-0.028 0.378,-0.049 0.375,-0.076C0.354,-0.049 0.33,-0.027 0.303,-0.012C0.276,0.004 0.248,0.012 0.218,0.012C0.165,0.012 0.123,-0.006 0.094,-0.043C0.065,-0.08 0.05,-0.129 0.05,-0.19C0.05,-0.243 0.06,-0.297 0.08,-0.35C0.099,-0.403 0.13,-0.448 0.172,-0.485C0.214,-0.521 0.267,-0.539 0.331,-0.539ZM0.333,-0.466C0.291,-0.466 0.256,-0.452 0.229,-0.424C0.201,-0.395 0.181,-0.36 0.168,-0.318C0.155,-0.275 0.148,-0.232 0.148,-0.189C0.148,-0.146 0.156,-0.114 0.171,-0.093C0.186,-0.071 0.208,-0.061 0.237,-0.061C0.264,-0.061 0.289,-0.069 0.311,-0.086C0.332,-0.103 0.355,-0.127 0.378,-0.158L0.419,-0.449C0.405,-0.455 0.392,-0.459 0.379,-0.462C0.366,-0.465 0.35,-0.466 0.333,-0.466Z" style="fill-rule:nonzero;"/>
            </g>
            <g transform="matrix(34.0083,0,0,34.0083,444.257,646.343)">
                <path d="M0.222,-0.527L0.148,-0L0.057,-0L0.131,-0.527L0.222,-0.527ZM0.198,-0.655C0.18,-0.655 0.166,-0.661 0.155,-0.672C0.144,-0.683 0.139,-0.696 0.139,-0.712C0.139,-0.731 0.146,-0.748 0.159,-0.761C0.172,-0.774 0.189,-0.78 0.208,-0.78C0.226,-0.78 0.24,-0.775 0.251,-0.764C0.262,-0.753 0.267,-0.74 0.267,-0.723C0.267,-0.704 0.26,-0.688 0.247,-0.675C0.234,-0.662 0.217,-0.655 0.198,-0.655Z" style="fill-rule:nonzero;"/>
            </g>
            <g transform="matrix(34.0083,0,0,34.0083,453.745,646.343)">
                <path d="M0.158,-0.103C0.157,-0.1 0.157,-0.095 0.157,-0.09C0.157,-0.081 0.159,-0.074 0.163,-0.07C0.167,-0.066 0.173,-0.064 0.182,-0.064C0.192,-0.064 0.204,-0.066 0.218,-0.071L0.237,-0.005C0.212,0.006 0.187,0.012 0.164,0.012C0.133,0.012 0.11,0.004 0.093,-0.013C0.076,-0.03 0.067,-0.054 0.067,-0.087C0.067,-0.093 0.068,-0.103 0.069,-0.118L0.157,-0.739L0.249,-0.75L0.158,-0.103Z" style="fill-rule:nonzero;"/>
            </g>
            <g transform="matrix(34.0083,0,0,34.0083,472.348,646.343)">
                <path d="M0.357,-0.803C0.279,-0.707 0.223,-0.615 0.188,-0.528C0.153,-0.441 0.135,-0.341 0.135,-0.229C0.135,-0.162 0.142,-0.104 0.158,-0.055C0.172,-0.005 0.196,0.05 0.227,0.109L0.167,0.143C0.138,0.094 0.116,0.052 0.1,0.019C0.083,-0.015 0.069,-0.054 0.059,-0.097C0.048,-0.14 0.042,-0.188 0.042,-0.24C0.042,-0.324 0.052,-0.399 0.072,-0.466C0.091,-0.532 0.119,-0.594 0.156,-0.651C0.193,-0.708 0.242,-0.774 0.303,-0.847L0.357,-0.803Z" style="fill-rule:nonzero;"/>
            </g>
            <g transform="matrix(34.0083,0,0,34.0083,483.162,646.343)">
                <path d="M0.463,-0.597L0.204,-0.597L0.176,-0.401C0.209,-0.418 0.245,-0.426 0.282,-0.426C0.333,-0.426 0.374,-0.41 0.403,-0.379C0.432,-0.347 0.446,-0.302 0.446,-0.245C0.446,-0.206 0.437,-0.167 0.419,-0.128C0.401,-0.088 0.373,-0.055 0.334,-0.028C0.295,-0.001 0.246,0.012 0.188,0.012C0.146,0.012 0.11,0.005 0.08,-0.011C0.05,-0.025 0.023,-0.047 0,-0.075L0.06,-0.126C0.077,-0.104 0.096,-0.088 0.117,-0.078C0.137,-0.068 0.162,-0.063 0.19,-0.063C0.228,-0.063 0.259,-0.073 0.284,-0.092C0.308,-0.111 0.326,-0.135 0.337,-0.164C0.347,-0.192 0.353,-0.22 0.353,-0.247C0.353,-0.319 0.32,-0.355 0.254,-0.355C0.235,-0.355 0.219,-0.353 0.204,-0.35C0.189,-0.346 0.171,-0.34 0.152,-0.332L0.08,-0.332L0.127,-0.669L0.485,-0.669L0.463,-0.597Z" style="fill-rule:nonzero;"/>
            </g>
            <g transform="matrix(34.0083,0,0,34.0083,498.246,646.343)">
                <path d="M0.604,-0.689L0.289,-0L0.188,-0L0.065,-0.689L0.163,-0.689L0.251,-0.103L0.506,-0.689L0.604,-0.689Z" style="fill-rule:nonzero;"/>
            </g>
            <g transform="matrix(34.0083,0,0,34.0083,516.951,646.343)">
                <path d="M0.175,-0.843C0.204,-0.794 0.226,-0.752 0.243,-0.719C0.259,-0.685 0.273,-0.646 0.284,-0.603C0.295,-0.56 0.3,-0.512 0.3,-0.46C0.3,-0.376 0.29,-0.301 0.271,-0.235C0.251,-0.168 0.223,-0.106 0.186,-0.049C0.149,0.008 0.1,0.074 0.039,0.147L-0.015,0.103C0.063,0.007 0.12,-0.085 0.155,-0.173C0.19,-0.261 0.208,-0.361 0.208,-0.473C0.208,-0.539 0.2,-0.597 0.185,-0.646C0.17,-0.695 0.146,-0.75 0.115,-0.809L0.175,-0.843Z" style="fill-rule:nonzero;"/>
            </g>
        </g>
    </g>
</svg>
