<?xml version="1.0" encoding="UTF-8" standalone="no"?>
<!DOCTYPE svg PUBLIC "-//W3C//DTD SVG 1.1//EN" "http://www.w3.org/Graphics/SVG/1.1/DTD/svg11.dtd">
<svg width="100%" height="100%" viewBox="0 0 523 436" version="1.1" xmlns="http://www.w3.org/2000/svg" xmlns:xlink="http://www.w3.org/1999/xlink" xml:space="preserve" xmlns:serif="http://www.serif.com/" style="fill-rule:evenodd;clip-rule:evenodd;stroke-linecap:round;stroke-linejoin:round;stroke-miterlimit:1.5;">
    <g transform="matrix(1,0,0,1,-277.684,-643.778)">
        <g id="_12-pin-Host" serif:id="12-pin Host" transform="matrix(1,0,0,1,-59.9052,203.688)">
            <g transform="matrix(0.513965,0,0,1.01881,479.043,-13.9148)">
                <rect x="327.185" y="740.65" width="361.938" height="57.965" style="fill:none;stroke:black;stroke-width:2.58px;"/>
            </g>
            <g transform="matrix(0.420374,0,0,0.514223,563.535,397.005)">
                <rect x="228.707" y="688.415" width="21.072" height="17.227"/>
            </g>
            <g transform="matrix(0.420374,0,0,0.514223,593.664,397.005)">
                <rect x="228.707" y="688.415" width="21.072" height="17.227"/>
            </g>
            <g transform="matrix(0.420374,0,0,0.514223,623.794,397.005)">
                <rect x="228.707" y="688.415" width="21.072" height="17.227"/>
            </g>
            <g transform="matrix(0.420374,0,0,0.514223,653.923,397.005)">
                <rect x="228.707" y="688.415" width="21.072" height="17.227"/>
            </g>
            <g transform="matrix(0.420374,0,0,0.514223,684.053,397.005)">
                <rect x="228.707" y="688.415" width="21.072" height="17.227"/>
            </g>
            <g transform="matrix(0.420374,0,0,0.514223,714.182,397.005)">
                <rect x="228.707" y="688.415" width="21.072" height="17.227"/>
            </g>
            <g transform="matrix(0.420374,0,0,0.514223,563.535,420.803)">
                <rect x="228.707" y="688.415" width="21.072" height="17.227"/>
            </g>
            <g transform="matrix(0.420374,0,0,0.514223,593.664,420.803)">
                <rect x="228.707" y="688.415" width="21.072" height="17.227"/>
            </g>
            <g transform="matrix(0.420374,0,0,0.514223,623.794,420.803)">
                <rect x="228.707" y="688.415" width="21.072" height="17.227"/>
            </g>
            <g transform="matrix(0.420374,0,0,0.514223,653.923,420.803)">
                <rect x="228.707" y="688.415" width="21.072" height="17.227"/>
            </g>
            <g transform="matrix(0.420374,0,0,0.514223,684.053,420.803)">
                <rect x="228.707" y="688.415" width="21.072" height="17.227"/>
            </g>
            <g transform="matrix(0.420374,0,0,0.514223,714.182,420.803)">
                <rect x="228.707" y="688.415" width="21.072" height="17.227"/>
            </g>
            <g transform="matrix(1,0,0,1,320.02,0.0185431)">
                <g transform="matrix(26.0417,0,0,26.0417,327.927,731.375)">
                    <path d="M0.344,-0.717C0.371,-0.717 0.396,-0.714 0.419,-0.707C0.442,-0.7 0.464,-0.69 0.484,-0.676L0.45,-0.618C0.417,-0.638 0.381,-0.648 0.343,-0.648C0.288,-0.648 0.246,-0.622 0.216,-0.571C0.186,-0.519 0.17,-0.451 0.168,-0.365C0.19,-0.398 0.216,-0.422 0.244,-0.437C0.272,-0.452 0.303,-0.46 0.338,-0.46C0.374,-0.46 0.408,-0.452 0.438,-0.436C0.468,-0.419 0.493,-0.395 0.511,-0.362C0.529,-0.329 0.538,-0.288 0.538,-0.237C0.538,-0.185 0.528,-0.141 0.508,-0.104C0.488,-0.066 0.461,-0.038 0.427,-0.018C0.394,0.002 0.357,0.012 0.316,0.012C0.259,0.012 0.213,-0.002 0.179,-0.031C0.144,-0.059 0.12,-0.099 0.104,-0.151C0.089,-0.203 0.082,-0.264 0.082,-0.334C0.082,-0.412 0.092,-0.479 0.113,-0.537C0.133,-0.594 0.163,-0.639 0.203,-0.67C0.242,-0.702 0.289,-0.717 0.344,-0.717ZM0.325,-0.389C0.291,-0.389 0.261,-0.38 0.234,-0.362C0.208,-0.343 0.186,-0.319 0.169,-0.289C0.17,-0.21 0.183,-0.151 0.206,-0.114C0.229,-0.077 0.265,-0.058 0.315,-0.058C0.36,-0.058 0.394,-0.074 0.416,-0.105C0.439,-0.137 0.45,-0.18 0.45,-0.235C0.45,-0.293 0.438,-0.333 0.415,-0.356C0.392,-0.378 0.362,-0.389 0.325,-0.389Z" style="fill-rule:nonzero;"/>
                </g>
                <g transform="matrix(26.0417,0,0,26.0417,359.978,731.375)">
                    <path d="M0.499,-0.706L0.487,-0.637L0.208,-0.637L0.208,-0.415C0.229,-0.426 0.25,-0.434 0.269,-0.438C0.288,-0.443 0.309,-0.445 0.33,-0.445C0.387,-0.445 0.434,-0.426 0.469,-0.387C0.505,-0.349 0.523,-0.294 0.523,-0.224C0.523,-0.176 0.513,-0.135 0.493,-0.1C0.473,-0.065 0.446,-0.037 0.41,-0.018C0.374,0.002 0.332,0.012 0.284,0.012C0.241,0.012 0.203,0.004 0.17,-0.011C0.137,-0.026 0.106,-0.047 0.079,-0.073L0.132,-0.125C0.174,-0.081 0.225,-0.059 0.285,-0.059C0.331,-0.059 0.367,-0.074 0.393,-0.102C0.419,-0.13 0.432,-0.171 0.432,-0.226C0.432,-0.264 0.427,-0.294 0.415,-0.316C0.404,-0.338 0.389,-0.353 0.369,-0.363C0.35,-0.372 0.329,-0.377 0.305,-0.377C0.284,-0.377 0.266,-0.375 0.25,-0.371C0.234,-0.367 0.215,-0.361 0.195,-0.353L0.126,-0.353L0.126,-0.706L0.499,-0.706Z" style="fill-rule:nonzero;"/>
                </g>
                <g transform="matrix(26.0417,0,0,26.0417,392.03,731.375)">
                    <path d="M0.451,-0.441L0.451,-0.241L0.542,-0.241L0.542,-0.172L0.451,-0.172L0.451,-0L0.368,-0L0.367,-0.172L0.074,-0.172L0.074,-0.234L0.281,-0.717L0.353,-0.687L0.165,-0.241L0.368,-0.241L0.379,-0.441L0.451,-0.441Z" style="fill-rule:nonzero;"/>
                </g>
                <g transform="matrix(26.0417,0,0,26.0417,424.081,731.375)">
                    <path d="M0.275,-0.717C0.32,-0.717 0.358,-0.709 0.391,-0.693C0.423,-0.677 0.448,-0.656 0.466,-0.629C0.484,-0.603 0.492,-0.573 0.492,-0.541C0.492,-0.512 0.486,-0.486 0.473,-0.463C0.461,-0.44 0.444,-0.421 0.423,-0.406C0.402,-0.391 0.379,-0.381 0.354,-0.376C0.382,-0.374 0.408,-0.367 0.433,-0.353C0.457,-0.34 0.477,-0.32 0.492,-0.295C0.507,-0.27 0.515,-0.24 0.515,-0.204C0.515,-0.163 0.505,-0.126 0.484,-0.094C0.464,-0.061 0.435,-0.035 0.398,-0.016C0.361,0.002 0.319,0.012 0.27,0.012C0.23,0.012 0.191,0.004 0.152,-0.011C0.113,-0.026 0.08,-0.05 0.053,-0.083L0.111,-0.13C0.131,-0.106 0.155,-0.089 0.183,-0.077C0.211,-0.065 0.239,-0.059 0.268,-0.059C0.317,-0.059 0.355,-0.072 0.383,-0.098C0.411,-0.124 0.425,-0.159 0.425,-0.204C0.425,-0.254 0.411,-0.289 0.383,-0.308C0.355,-0.328 0.32,-0.337 0.278,-0.337L0.219,-0.337L0.23,-0.406L0.271,-0.406C0.294,-0.406 0.316,-0.41 0.336,-0.419C0.356,-0.428 0.373,-0.441 0.386,-0.459C0.399,-0.478 0.406,-0.501 0.406,-0.529C0.406,-0.568 0.393,-0.597 0.367,-0.618C0.341,-0.638 0.309,-0.649 0.272,-0.649C0.242,-0.649 0.215,-0.643 0.192,-0.633C0.169,-0.622 0.146,-0.605 0.123,-0.584L0.075,-0.636C0.105,-0.665 0.137,-0.685 0.171,-0.698C0.205,-0.711 0.239,-0.717 0.275,-0.717Z" style="fill-rule:nonzero;"/>
                </g>
                <g transform="matrix(26.0417,0,0,26.0417,456.132,731.375)">
                    <path d="M0.276,-0.717C0.321,-0.717 0.359,-0.709 0.391,-0.692C0.423,-0.674 0.447,-0.651 0.464,-0.621C0.481,-0.591 0.489,-0.558 0.489,-0.521C0.489,-0.488 0.484,-0.456 0.472,-0.425C0.461,-0.394 0.443,-0.362 0.418,-0.328C0.393,-0.294 0.361,-0.256 0.321,-0.215C0.28,-0.174 0.231,-0.126 0.173,-0.073L0.506,-0.073L0.495,-0L0.075,-0L0.075,-0.07C0.142,-0.134 0.196,-0.188 0.238,-0.232C0.28,-0.276 0.313,-0.314 0.336,-0.346C0.36,-0.378 0.376,-0.408 0.385,-0.434C0.394,-0.461 0.398,-0.489 0.398,-0.517C0.398,-0.557 0.387,-0.588 0.365,-0.611C0.343,-0.634 0.312,-0.646 0.272,-0.646C0.237,-0.646 0.209,-0.64 0.187,-0.628C0.164,-0.616 0.142,-0.597 0.12,-0.57L0.061,-0.616C0.089,-0.651 0.12,-0.676 0.154,-0.693C0.188,-0.709 0.229,-0.717 0.276,-0.717Z" style="fill-rule:nonzero;"/>
                </g>
                <g transform="matrix(26.0417,0,0,26.0417,488.183,731.375)">
                    <path d="M0.531,-0.07L0.531,-0L0.123,-0L0.123,-0.07L0.297,-0.07L0.297,-0.613L0.135,-0.514L0.097,-0.576L0.308,-0.706L0.383,-0.706L0.383,-0.07L0.531,-0.07Z" style="fill-rule:nonzero;"/>
                </g>
            </g>
            <g transform="matrix(1,0,0,1,321.162,103.515)">
                <g transform="matrix(26.0417,0,0,26.0417,327.927,731.375)">
                    <path d="M0.531,-0.07L0.531,-0L0.123,-0L0.123,-0.07L0.297,-0.07L0.297,-0.613L0.135,-0.514L0.097,-0.576L0.308,-0.706L0.383,-0.706L0.383,-0.07L0.531,-0.07Z" style="fill-rule:nonzero;"/>
                </g>
                <g transform="matrix(26.0417,0,0,26.0417,359.978,731.375)">
                    <path d="M0.531,-0.07L0.531,-0L0.123,-0L0.123,-0.07L0.297,-0.07L0.297,-0.613L0.135,-0.514L0.097,-0.576L0.308,-0.706L0.383,-0.706L0.383,-0.07L0.531,-0.07Z" style="fill-rule:nonzero;"/>
                </g>
                <g transform="matrix(26.0417,0,0,26.0417,392.03,731.375)">
                    <path d="M0.531,-0.07L0.531,-0L0.123,-0L0.123,-0.07L0.297,-0.07L0.297,-0.613L0.135,-0.514L0.097,-0.576L0.308,-0.706L0.383,-0.706L0.383,-0.07L0.531,-0.07Z" style="fill-rule:nonzero;"/>
                </g>
                <g transform="matrix(26.0417,0,0,26.0417,424.081,731.375)">
                    <path d="M0.297,-0.716C0.374,-0.716 0.431,-0.69 0.47,-0.638C0.508,-0.586 0.527,-0.516 0.527,-0.428C0.527,-0.356 0.52,-0.296 0.505,-0.247C0.491,-0.197 0.468,-0.156 0.438,-0.123C0.408,-0.09 0.369,-0.062 0.321,-0.039C0.274,-0.017 0.217,0.003 0.151,0.022L0.131,-0.044C0.196,-0.062 0.251,-0.084 0.295,-0.109C0.339,-0.134 0.372,-0.165 0.395,-0.203C0.419,-0.241 0.432,-0.287 0.435,-0.343C0.415,-0.318 0.391,-0.298 0.364,-0.282C0.337,-0.267 0.306,-0.259 0.27,-0.259C0.231,-0.259 0.196,-0.268 0.166,-0.286C0.136,-0.304 0.112,-0.33 0.094,-0.363C0.077,-0.397 0.068,-0.437 0.068,-0.485C0.068,-0.535 0.078,-0.577 0.099,-0.612C0.119,-0.646 0.147,-0.672 0.182,-0.69C0.216,-0.708 0.255,-0.716 0.297,-0.716ZM0.157,-0.482C0.157,-0.428 0.169,-0.388 0.192,-0.364C0.214,-0.34 0.246,-0.328 0.286,-0.328C0.318,-0.328 0.346,-0.336 0.37,-0.352C0.394,-0.369 0.417,-0.391 0.437,-0.419C0.436,-0.503 0.424,-0.561 0.402,-0.595C0.379,-0.63 0.344,-0.647 0.297,-0.647C0.204,-0.647 0.157,-0.592 0.157,-0.482Z" style="fill-rule:nonzero;"/>
                </g>
                <g transform="matrix(26.0417,0,0,26.0417,456.132,731.375)">
                    <path d="M0.519,-0.538C0.519,-0.503 0.509,-0.474 0.488,-0.449C0.466,-0.424 0.436,-0.401 0.397,-0.379C0.443,-0.36 0.48,-0.334 0.507,-0.302C0.535,-0.27 0.548,-0.233 0.548,-0.189C0.548,-0.151 0.538,-0.117 0.518,-0.086C0.499,-0.056 0.471,-0.032 0.434,-0.014C0.398,0.003 0.355,0.012 0.306,0.012C0.255,0.012 0.212,0.003 0.177,-0.015C0.141,-0.032 0.114,-0.056 0.095,-0.086C0.077,-0.116 0.067,-0.15 0.067,-0.188C0.067,-0.231 0.08,-0.268 0.106,-0.297C0.132,-0.327 0.166,-0.352 0.209,-0.372C0.171,-0.39 0.143,-0.411 0.124,-0.436C0.105,-0.462 0.096,-0.494 0.096,-0.533C0.096,-0.566 0.102,-0.594 0.116,-0.617C0.129,-0.64 0.146,-0.659 0.167,-0.674C0.188,-0.689 0.211,-0.7 0.236,-0.707C0.26,-0.714 0.284,-0.717 0.308,-0.717C0.342,-0.717 0.375,-0.711 0.408,-0.699C0.44,-0.686 0.467,-0.667 0.488,-0.64C0.509,-0.614 0.519,-0.58 0.519,-0.538ZM0.181,-0.532C0.181,-0.505 0.187,-0.484 0.2,-0.468C0.212,-0.453 0.23,-0.44 0.253,-0.431C0.277,-0.421 0.304,-0.411 0.336,-0.401C0.369,-0.419 0.393,-0.438 0.41,-0.457C0.426,-0.477 0.434,-0.503 0.434,-0.535C0.434,-0.57 0.423,-0.599 0.401,-0.619C0.379,-0.64 0.348,-0.651 0.308,-0.651C0.268,-0.651 0.237,-0.64 0.214,-0.619C0.192,-0.599 0.181,-0.57 0.181,-0.532ZM0.457,-0.188C0.457,-0.22 0.449,-0.245 0.433,-0.264C0.417,-0.282 0.395,-0.297 0.367,-0.31C0.338,-0.322 0.305,-0.335 0.268,-0.347C0.239,-0.334 0.214,-0.315 0.191,-0.291C0.169,-0.266 0.158,-0.232 0.158,-0.187C0.158,-0.147 0.17,-0.116 0.195,-0.093C0.219,-0.069 0.256,-0.058 0.305,-0.058C0.354,-0.058 0.392,-0.07 0.418,-0.095C0.444,-0.12 0.457,-0.151 0.457,-0.188Z" style="fill-rule:nonzero;"/>
                </g>
                <g transform="matrix(26.0417,0,0,26.0417,488.183,731.375)">
                    <path d="M0.236,0.01L0.156,-0.015L0.431,-0.634L0.1,-0.634L0.1,-0.706L0.518,-0.706L0.518,-0.64L0.236,0.01Z" style="fill-rule:nonzero;"/>
                </g>
                <g transform="matrix(26.0417,0,0,26.0417,327.927,757.417)">
                    <path d="M0.276,-0.717C0.321,-0.717 0.359,-0.709 0.391,-0.692C0.423,-0.674 0.447,-0.651 0.464,-0.621C0.481,-0.591 0.489,-0.558 0.489,-0.521C0.489,-0.488 0.484,-0.456 0.472,-0.425C0.461,-0.394 0.443,-0.362 0.418,-0.328C0.393,-0.294 0.361,-0.256 0.321,-0.215C0.28,-0.174 0.231,-0.126 0.173,-0.073L0.506,-0.073L0.495,-0L0.075,-0L0.075,-0.07C0.142,-0.134 0.196,-0.188 0.238,-0.232C0.28,-0.276 0.313,-0.314 0.336,-0.346C0.36,-0.378 0.376,-0.408 0.385,-0.434C0.394,-0.461 0.398,-0.489 0.398,-0.517C0.398,-0.557 0.387,-0.588 0.365,-0.611C0.343,-0.634 0.312,-0.646 0.272,-0.646C0.237,-0.646 0.209,-0.64 0.187,-0.628C0.164,-0.616 0.142,-0.597 0.12,-0.57L0.061,-0.616C0.089,-0.651 0.12,-0.676 0.154,-0.693C0.188,-0.709 0.229,-0.717 0.276,-0.717Z" style="fill-rule:nonzero;"/>
                </g>
                <g transform="matrix(26.0417,0,0,26.0417,359.978,757.417)">
                    <path d="M0.531,-0.07L0.531,-0L0.123,-0L0.123,-0.07L0.297,-0.07L0.297,-0.613L0.135,-0.514L0.097,-0.576L0.308,-0.706L0.383,-0.706L0.383,-0.07L0.531,-0.07Z" style="fill-rule:nonzero;"/>
                </g>
                <g transform="matrix(26.0417,0,0,26.0417,392.03,757.417)">
                    <path d="M0.308,-0.717C0.384,-0.717 0.441,-0.686 0.48,-0.623C0.519,-0.56 0.539,-0.47 0.539,-0.353C0.539,-0.236 0.519,-0.146 0.48,-0.083C0.441,-0.02 0.384,0.012 0.308,0.012C0.232,0.012 0.174,-0.02 0.135,-0.083C0.096,-0.146 0.076,-0.236 0.076,-0.353C0.076,-0.47 0.096,-0.56 0.135,-0.623C0.174,-0.686 0.232,-0.717 0.308,-0.717ZM0.308,-0.648C0.264,-0.648 0.23,-0.625 0.205,-0.579C0.18,-0.533 0.168,-0.458 0.168,-0.353C0.168,-0.275 0.174,-0.214 0.186,-0.169L0.402,-0.603C0.38,-0.633 0.349,-0.648 0.308,-0.648ZM0.448,-0.353C0.448,-0.432 0.442,-0.494 0.43,-0.538L0.215,-0.103C0.236,-0.073 0.267,-0.058 0.308,-0.058C0.351,-0.058 0.386,-0.081 0.411,-0.127C0.436,-0.173 0.448,-0.249 0.448,-0.353Z" style="fill-rule:nonzero;"/>
                </g>
            </g>
        </g>
        <g id="_6-pin-Host" serif:id="6-pin Host">
            <g transform="matrix(0.513965,0,0,0.509406,160.551,566.668)">
                <rect x="327.185" y="740.65" width="361.938" height="57.965" style="fill:none;stroke:black;stroke-width:4.07px;"/>
            </g>
            <g transform="matrix(0.420374,0,0,0.514223,245.043,600.296)">
                <rect x="228.707" y="688.415" width="21.072" height="17.227"/>
            </g>
            <g transform="matrix(0.420374,0,0,0.514223,275.172,600.296)">
                <rect x="228.707" y="688.415" width="21.072" height="17.227"/>
            </g>
            <g transform="matrix(0.420374,0,0,0.514223,305.302,600.296)">
                <rect x="228.707" y="688.415" width="21.072" height="17.227"/>
            </g>
            <g transform="matrix(0.420374,0,0,0.514223,335.431,600.296)">
                <rect x="228.707" y="688.415" width="21.072" height="17.227"/>
            </g>
            <g transform="matrix(0.420374,0,0,0.514223,365.561,600.296)">
                <rect x="228.707" y="688.415" width="21.072" height="17.227"/>
            </g>
            <g transform="matrix(0.420374,0,0,0.514223,395.69,600.296)">
                <rect x="228.707" y="688.415" width="21.072" height="17.227"/>
            </g>
            <g transform="matrix(1,0,0,1,1.52795,203.31)">
                <g transform="matrix(26.0417,0,0,26.0417,327.927,731.375)">
                    <path d="M0.344,-0.717C0.371,-0.717 0.396,-0.714 0.419,-0.707C0.442,-0.7 0.464,-0.69 0.484,-0.676L0.45,-0.618C0.417,-0.638 0.381,-0.648 0.343,-0.648C0.288,-0.648 0.246,-0.622 0.216,-0.571C0.186,-0.519 0.17,-0.451 0.168,-0.365C0.19,-0.398 0.216,-0.422 0.244,-0.437C0.272,-0.452 0.303,-0.46 0.338,-0.46C0.374,-0.46 0.408,-0.452 0.438,-0.436C0.468,-0.419 0.493,-0.395 0.511,-0.362C0.529,-0.329 0.538,-0.288 0.538,-0.237C0.538,-0.185 0.528,-0.141 0.508,-0.104C0.488,-0.066 0.461,-0.038 0.427,-0.018C0.394,0.002 0.357,0.012 0.316,0.012C0.259,0.012 0.213,-0.002 0.179,-0.031C0.144,-0.059 0.12,-0.099 0.104,-0.151C0.089,-0.203 0.082,-0.264 0.082,-0.334C0.082,-0.412 0.092,-0.479 0.113,-0.537C0.133,-0.594 0.163,-0.639 0.203,-0.67C0.242,-0.702 0.289,-0.717 0.344,-0.717ZM0.325,-0.389C0.291,-0.389 0.261,-0.38 0.234,-0.362C0.208,-0.343 0.186,-0.319 0.169,-0.289C0.17,-0.21 0.183,-0.151 0.206,-0.114C0.229,-0.077 0.265,-0.058 0.315,-0.058C0.36,-0.058 0.394,-0.074 0.416,-0.105C0.439,-0.137 0.45,-0.18 0.45,-0.235C0.45,-0.293 0.438,-0.333 0.415,-0.356C0.392,-0.378 0.362,-0.389 0.325,-0.389Z" style="fill-rule:nonzero;"/>
                </g>
                <g transform="matrix(26.0417,0,0,26.0417,359.978,731.375)">
                    <path d="M0.499,-0.706L0.487,-0.637L0.208,-0.637L0.208,-0.415C0.229,-0.426 0.25,-0.434 0.269,-0.438C0.288,-0.443 0.309,-0.445 0.33,-0.445C0.387,-0.445 0.434,-0.426 0.469,-0.387C0.505,-0.349 0.523,-0.294 0.523,-0.224C0.523,-0.176 0.513,-0.135 0.493,-0.1C0.473,-0.065 0.446,-0.037 0.41,-0.018C0.374,0.002 0.332,0.012 0.284,0.012C0.241,0.012 0.203,0.004 0.17,-0.011C0.137,-0.026 0.106,-0.047 0.079,-0.073L0.132,-0.125C0.174,-0.081 0.225,-0.059 0.285,-0.059C0.331,-0.059 0.367,-0.074 0.393,-0.102C0.419,-0.13 0.432,-0.171 0.432,-0.226C0.432,-0.264 0.427,-0.294 0.415,-0.316C0.404,-0.338 0.389,-0.353 0.369,-0.363C0.35,-0.372 0.329,-0.377 0.305,-0.377C0.284,-0.377 0.266,-0.375 0.25,-0.371C0.234,-0.367 0.215,-0.361 0.195,-0.353L0.126,-0.353L0.126,-0.706L0.499,-0.706Z" style="fill-rule:nonzero;"/>
                </g>
                <g transform="matrix(26.0417,0,0,26.0417,392.03,731.375)">
                    <path d="M0.451,-0.441L0.451,-0.241L0.542,-0.241L0.542,-0.172L0.451,-0.172L0.451,-0L0.368,-0L0.367,-0.172L0.074,-0.172L0.074,-0.234L0.281,-0.717L0.353,-0.687L0.165,-0.241L0.368,-0.241L0.379,-0.441L0.451,-0.441Z" style="fill-rule:nonzero;"/>
                </g>
                <g transform="matrix(26.0417,0,0,26.0417,424.081,731.375)">
                    <path d="M0.275,-0.717C0.32,-0.717 0.358,-0.709 0.391,-0.693C0.423,-0.677 0.448,-0.656 0.466,-0.629C0.484,-0.603 0.492,-0.573 0.492,-0.541C0.492,-0.512 0.486,-0.486 0.473,-0.463C0.461,-0.44 0.444,-0.421 0.423,-0.406C0.402,-0.391 0.379,-0.381 0.354,-0.376C0.382,-0.374 0.408,-0.367 0.433,-0.353C0.457,-0.34 0.477,-0.32 0.492,-0.295C0.507,-0.27 0.515,-0.24 0.515,-0.204C0.515,-0.163 0.505,-0.126 0.484,-0.094C0.464,-0.061 0.435,-0.035 0.398,-0.016C0.361,0.002 0.319,0.012 0.27,0.012C0.23,0.012 0.191,0.004 0.152,-0.011C0.113,-0.026 0.08,-0.05 0.053,-0.083L0.111,-0.13C0.131,-0.106 0.155,-0.089 0.183,-0.077C0.211,-0.065 0.239,-0.059 0.268,-0.059C0.317,-0.059 0.355,-0.072 0.383,-0.098C0.411,-0.124 0.425,-0.159 0.425,-0.204C0.425,-0.254 0.411,-0.289 0.383,-0.308C0.355,-0.328 0.32,-0.337 0.278,-0.337L0.219,-0.337L0.23,-0.406L0.271,-0.406C0.294,-0.406 0.316,-0.41 0.336,-0.419C0.356,-0.428 0.373,-0.441 0.386,-0.459C0.399,-0.478 0.406,-0.501 0.406,-0.529C0.406,-0.568 0.393,-0.597 0.367,-0.618C0.341,-0.638 0.309,-0.649 0.272,-0.649C0.242,-0.649 0.215,-0.643 0.192,-0.633C0.169,-0.622 0.146,-0.605 0.123,-0.584L0.075,-0.636C0.105,-0.665 0.137,-0.685 0.171,-0.698C0.205,-0.711 0.239,-0.717 0.275,-0.717Z" style="fill-rule:nonzero;"/>
                </g>
                <g transform="matrix(26.0417,0,0,26.0417,456.132,731.375)">
                    <path d="M0.276,-0.717C0.321,-0.717 0.359,-0.709 0.391,-0.692C0.423,-0.674 0.447,-0.651 0.464,-0.621C0.481,-0.591 0.489,-0.558 0.489,-0.521C0.489,-0.488 0.484,-0.456 0.472,-0.425C0.461,-0.394 0.443,-0.362 0.418,-0.328C0.393,-0.294 0.361,-0.256 0.321,-0.215C0.28,-0.174 0.231,-0.126 0.173,-0.073L0.506,-0.073L0.495,-0L0.075,-0L0.075,-0.07C0.142,-0.134 0.196,-0.188 0.238,-0.232C0.28,-0.276 0.313,-0.314 0.336,-0.346C0.36,-0.378 0.376,-0.408 0.385,-0.434C0.394,-0.461 0.398,-0.489 0.398,-0.517C0.398,-0.557 0.387,-0.588 0.365,-0.611C0.343,-0.634 0.312,-0.646 0.272,-0.646C0.237,-0.646 0.209,-0.64 0.187,-0.628C0.164,-0.616 0.142,-0.597 0.12,-0.57L0.061,-0.616C0.089,-0.651 0.12,-0.676 0.154,-0.693C0.188,-0.709 0.229,-0.717 0.276,-0.717Z" style="fill-rule:nonzero;"/>
                </g>
                <g transform="matrix(26.0417,0,0,26.0417,488.183,731.375)">
                    <path d="M0.531,-0.07L0.531,-0L0.123,-0L0.123,-0.07L0.297,-0.07L0.297,-0.613L0.135,-0.514L0.097,-0.576L0.308,-0.706L0.383,-0.706L0.383,-0.07L0.531,-0.07Z" style="fill-rule:nonzero;"/>
                </g>
            </g>
        </g>
        <g id="_12-pin-Module" serif:id="12-pin Module">
            <g transform="matrix(0.420374,0,0,0.514223,502.102,397.383)">
                <rect x="228.707" y="688.415" width="21.072" height="17.227"/>
            </g>
            <g transform="matrix(0.420374,0,0,0.514223,532.231,397.383)">
                <rect x="228.707" y="688.415" width="21.072" height="17.227"/>
            </g>
            <g transform="matrix(0.420374,0,0,0.514223,562.361,397.383)">
                <rect x="228.707" y="688.415" width="21.072" height="17.227"/>
            </g>
            <g transform="matrix(0.420374,0,0,0.514223,592.49,397.383)">
                <rect x="228.707" y="688.415" width="21.072" height="17.227"/>
            </g>
            <g transform="matrix(0.420374,0,0,0.514223,622.62,397.383)">
                <rect x="228.707" y="688.415" width="21.072" height="17.227"/>
            </g>
            <g transform="matrix(0.420374,0,0,0.514223,652.749,397.383)">
                <rect x="228.707" y="688.415" width="21.072" height="17.227"/>
            </g>
            <g transform="matrix(0.420374,0,0,0.514223,502.102,421.181)">
                <rect x="228.707" y="688.415" width="21.072" height="17.227"/>
            </g>
            <g transform="matrix(0.420374,0,0,0.514223,532.231,421.181)">
                <rect x="228.707" y="688.415" width="21.072" height="17.227"/>
            </g>
            <g transform="matrix(0.420374,0,0,0.514223,562.361,421.181)">
                <rect x="228.707" y="688.415" width="21.072" height="17.227"/>
            </g>
            <g transform="matrix(0.420374,0,0,0.514223,592.49,421.181)">
                <rect x="228.707" y="688.415" width="21.072" height="17.227"/>
            </g>
            <g transform="matrix(0.420374,0,0,0.514223,622.62,421.181)">
                <rect x="228.707" y="688.415" width="21.072" height="17.227"/>
            </g>
            <g transform="matrix(0.420374,0,0,0.514223,652.749,421.181)">
                <rect x="228.707" y="688.415" width="21.072" height="17.227"/>
            </g>
            <g transform="matrix(1,0,0,1,258.587,0.396822)">
                <g transform="matrix(26.0417,0,0,26.0417,327.927,731.375)">
                    <path d="M0.531,-0.07L0.531,-0L0.123,-0L0.123,-0.07L0.297,-0.07L0.297,-0.613L0.135,-0.514L0.097,-0.576L0.308,-0.706L0.383,-0.706L0.383,-0.07L0.531,-0.07Z" style="fill-rule:nonzero;"/>
                </g>
                <g transform="matrix(26.0417,0,0,26.0417,359.978,731.375)">
                    <path d="M0.276,-0.717C0.321,-0.717 0.359,-0.709 0.391,-0.692C0.423,-0.674 0.447,-0.651 0.464,-0.621C0.481,-0.591 0.489,-0.558 0.489,-0.521C0.489,-0.488 0.484,-0.456 0.472,-0.425C0.461,-0.394 0.443,-0.362 0.418,-0.328C0.393,-0.294 0.361,-0.256 0.321,-0.215C0.28,-0.174 0.231,-0.126 0.173,-0.073L0.506,-0.073L0.495,-0L0.075,-0L0.075,-0.07C0.142,-0.134 0.196,-0.188 0.238,-0.232C0.28,-0.276 0.313,-0.314 0.336,-0.346C0.36,-0.378 0.376,-0.408 0.385,-0.434C0.394,-0.461 0.398,-0.489 0.398,-0.517C0.398,-0.557 0.387,-0.588 0.365,-0.611C0.343,-0.634 0.312,-0.646 0.272,-0.646C0.237,-0.646 0.209,-0.64 0.187,-0.628C0.164,-0.616 0.142,-0.597 0.12,-0.57L0.061,-0.616C0.089,-0.651 0.12,-0.676 0.154,-0.693C0.188,-0.709 0.229,-0.717 0.276,-0.717Z" style="fill-rule:nonzero;"/>
                </g>
                <g transform="matrix(26.0417,0,0,26.0417,392.03,731.375)">
                    <path d="M0.275,-0.717C0.32,-0.717 0.358,-0.709 0.391,-0.693C0.423,-0.677 0.448,-0.656 0.466,-0.629C0.484,-0.603 0.492,-0.573 0.492,-0.541C0.492,-0.512 0.486,-0.486 0.473,-0.463C0.461,-0.44 0.444,-0.421 0.423,-0.406C0.402,-0.391 0.379,-0.381 0.354,-0.376C0.382,-0.374 0.408,-0.367 0.433,-0.353C0.457,-0.34 0.477,-0.32 0.492,-0.295C0.507,-0.27 0.515,-0.24 0.515,-0.204C0.515,-0.163 0.505,-0.126 0.484,-0.094C0.464,-0.061 0.435,-0.035 0.398,-0.016C0.361,0.002 0.319,0.012 0.27,0.012C0.23,0.012 0.191,0.004 0.152,-0.011C0.113,-0.026 0.08,-0.05 0.053,-0.083L0.111,-0.13C0.131,-0.106 0.155,-0.089 0.183,-0.077C0.211,-0.065 0.239,-0.059 0.268,-0.059C0.317,-0.059 0.355,-0.072 0.383,-0.098C0.411,-0.124 0.425,-0.159 0.425,-0.204C0.425,-0.254 0.411,-0.289 0.383,-0.308C0.355,-0.328 0.32,-0.337 0.278,-0.337L0.219,-0.337L0.23,-0.406L0.271,-0.406C0.294,-0.406 0.316,-0.41 0.336,-0.419C0.356,-0.428 0.373,-0.441 0.386,-0.459C0.399,-0.478 0.406,-0.501 0.406,-0.529C0.406,-0.568 0.393,-0.597 0.367,-0.618C0.341,-0.638 0.309,-0.649 0.272,-0.649C0.242,-0.649 0.215,-0.643 0.192,-0.633C0.169,-0.622 0.146,-0.605 0.123,-0.584L0.075,-0.636C0.105,-0.665 0.137,-0.685 0.171,-0.698C0.205,-0.711 0.239,-0.717 0.275,-0.717Z" style="fill-rule:nonzero;"/>
                </g>
                <g transform="matrix(26.0417,0,0,26.0417,424.081,731.375)">
                    <path d="M0.451,-0.441L0.451,-0.241L0.542,-0.241L0.542,-0.172L0.451,-0.172L0.451,-0L0.368,-0L0.367,-0.172L0.074,-0.172L0.074,-0.234L0.281,-0.717L0.353,-0.687L0.165,-0.241L0.368,-0.241L0.379,-0.441L0.451,-0.441Z" style="fill-rule:nonzero;"/>
                </g>
                <g transform="matrix(26.0417,0,0,26.0417,456.132,731.375)">
                    <path d="M0.499,-0.706L0.487,-0.637L0.208,-0.637L0.208,-0.415C0.229,-0.426 0.25,-0.434 0.269,-0.438C0.288,-0.443 0.309,-0.445 0.33,-0.445C0.387,-0.445 0.434,-0.426 0.469,-0.387C0.505,-0.349 0.523,-0.294 0.523,-0.224C0.523,-0.176 0.513,-0.135 0.493,-0.1C0.473,-0.065 0.446,-0.037 0.41,-0.018C0.374,0.002 0.332,0.012 0.284,0.012C0.241,0.012 0.203,0.004 0.17,-0.011C0.137,-0.026 0.106,-0.047 0.079,-0.073L0.132,-0.125C0.174,-0.081 0.225,-0.059 0.285,-0.059C0.331,-0.059 0.367,-0.074 0.393,-0.102C0.419,-0.13 0.432,-0.171 0.432,-0.226C0.432,-0.264 0.427,-0.294 0.415,-0.316C0.404,-0.338 0.389,-0.353 0.369,-0.363C0.35,-0.372 0.329,-0.377 0.305,-0.377C0.284,-0.377 0.266,-0.375 0.25,-0.371C0.234,-0.367 0.215,-0.361 0.195,-0.353L0.126,-0.353L0.126,-0.706L0.499,-0.706Z" style="fill-rule:nonzero;"/>
                </g>
                <g transform="matrix(26.0417,0,0,26.0417,488.183,731.375)">
                    <path d="M0.344,-0.717C0.371,-0.717 0.396,-0.714 0.419,-0.707C0.442,-0.7 0.464,-0.69 0.484,-0.676L0.45,-0.618C0.417,-0.638 0.381,-0.648 0.343,-0.648C0.288,-0.648 0.246,-0.622 0.216,-0.571C0.186,-0.519 0.17,-0.451 0.168,-0.365C0.19,-0.398 0.216,-0.422 0.244,-0.437C0.272,-0.452 0.303,-0.46 0.338,-0.46C0.374,-0.46 0.408,-0.452 0.438,-0.436C0.468,-0.419 0.493,-0.395 0.511,-0.362C0.529,-0.329 0.538,-0.288 0.538,-0.237C0.538,-0.185 0.528,-0.141 0.508,-0.104C0.488,-0.066 0.461,-0.038 0.427,-0.018C0.394,0.002 0.357,0.012 0.316,0.012C0.259,0.012 0.213,-0.002 0.179,-0.031C0.144,-0.059 0.12,-0.099 0.104,-0.151C0.089,-0.203 0.082,-0.264 0.082,-0.334C0.082,-0.412 0.092,-0.479 0.113,-0.537C0.133,-0.594 0.163,-0.639 0.203,-0.67C0.242,-0.702 0.289,-0.717 0.344,-0.717ZM0.325,-0.389C0.291,-0.389 0.261,-0.38 0.234,-0.362C0.208,-0.343 0.186,-0.319 0.169,-0.289C0.17,-0.21 0.183,-0.151 0.206,-0.114C0.229,-0.077 0.265,-0.058 0.315,-0.058C0.36,-0.058 0.394,-0.074 0.416,-0.105C0.439,-0.137 0.45,-0.18 0.45,-0.235C0.45,-0.293 0.438,-0.333 0.415,-0.356C0.392,-0.378 0.362,-0.389 0.325,-0.389Z" style="fill-rule:nonzero;"/>
                </g>
            </g>
            <g transform="matrix(1,0,0,1,259.729,103.893)">
                <g transform="matrix(26.0417,0,0,26.0417,327.927,731.375)">
                    <path d="M0.236,0.01L0.156,-0.015L0.431,-0.634L0.1,-0.634L0.1,-0.706L0.518,-0.706L0.518,-0.64L0.236,0.01Z" style="fill-rule:nonzero;"/>
                </g>
                <g transform="matrix(26.0417,0,0,26.0417,359.978,731.375)">
                    <path d="M0.519,-0.538C0.519,-0.503 0.509,-0.474 0.488,-0.449C0.466,-0.424 0.436,-0.401 0.397,-0.379C0.443,-0.36 0.48,-0.334 0.507,-0.302C0.535,-0.27 0.548,-0.233 0.548,-0.189C0.548,-0.151 0.538,-0.117 0.518,-0.086C0.499,-0.056 0.471,-0.032 0.434,-0.014C0.398,0.003 0.355,0.012 0.306,0.012C0.255,0.012 0.212,0.003 0.177,-0.015C0.141,-0.032 0.114,-0.056 0.095,-0.086C0.077,-0.116 0.067,-0.15 0.067,-0.188C0.067,-0.231 0.08,-0.268 0.106,-0.297C0.132,-0.327 0.166,-0.352 0.209,-0.372C0.171,-0.39 0.143,-0.411 0.124,-0.436C0.105,-0.462 0.096,-0.494 0.096,-0.533C0.096,-0.566 0.102,-0.594 0.116,-0.617C0.129,-0.64 0.146,-0.659 0.167,-0.674C0.188,-0.689 0.211,-0.7 0.236,-0.707C0.26,-0.714 0.284,-0.717 0.308,-0.717C0.342,-0.717 0.375,-0.711 0.408,-0.699C0.44,-0.686 0.467,-0.667 0.488,-0.64C0.509,-0.614 0.519,-0.58 0.519,-0.538ZM0.181,-0.532C0.181,-0.505 0.187,-0.484 0.2,-0.468C0.212,-0.453 0.23,-0.44 0.253,-0.431C0.277,-0.421 0.304,-0.411 0.336,-0.401C0.369,-0.419 0.393,-0.438 0.41,-0.457C0.426,-0.477 0.434,-0.503 0.434,-0.535C0.434,-0.57 0.423,-0.599 0.401,-0.619C0.379,-0.64 0.348,-0.651 0.308,-0.651C0.268,-0.651 0.237,-0.64 0.214,-0.619C0.192,-0.599 0.181,-0.57 0.181,-0.532ZM0.457,-0.188C0.457,-0.22 0.449,-0.245 0.433,-0.264C0.417,-0.282 0.395,-0.297 0.367,-0.31C0.338,-0.322 0.305,-0.335 0.268,-0.347C0.239,-0.334 0.214,-0.315 0.191,-0.291C0.169,-0.266 0.158,-0.232 0.158,-0.187C0.158,-0.147 0.17,-0.116 0.195,-0.093C0.219,-0.069 0.256,-0.058 0.305,-0.058C0.354,-0.058 0.392,-0.07 0.418,-0.095C0.444,-0.12 0.457,-0.151 0.457,-0.188Z" style="fill-rule:nonzero;"/>
                </g>
                <g transform="matrix(26.0417,0,0,26.0417,392.03,731.375)">
                    <path d="M0.297,-0.716C0.374,-0.716 0.431,-0.69 0.47,-0.638C0.508,-0.586 0.527,-0.516 0.527,-0.428C0.527,-0.356 0.52,-0.296 0.505,-0.247C0.491,-0.197 0.468,-0.156 0.438,-0.123C0.408,-0.09 0.369,-0.062 0.321,-0.039C0.274,-0.017 0.217,0.003 0.151,0.022L0.131,-0.044C0.196,-0.062 0.251,-0.084 0.295,-0.109C0.339,-0.134 0.372,-0.165 0.395,-0.203C0.419,-0.241 0.432,-0.287 0.435,-0.343C0.415,-0.318 0.391,-0.298 0.364,-0.282C0.337,-0.267 0.306,-0.259 0.27,-0.259C0.231,-0.259 0.196,-0.268 0.166,-0.286C0.136,-0.304 0.112,-0.33 0.094,-0.363C0.077,-0.397 0.068,-0.437 0.068,-0.485C0.068,-0.535 0.078,-0.577 0.099,-0.612C0.119,-0.646 0.147,-0.672 0.182,-0.69C0.216,-0.708 0.255,-0.716 0.297,-0.716ZM0.157,-0.482C0.157,-0.428 0.169,-0.388 0.192,-0.364C0.214,-0.34 0.246,-0.328 0.286,-0.328C0.318,-0.328 0.346,-0.336 0.37,-0.352C0.394,-0.369 0.417,-0.391 0.437,-0.419C0.436,-0.503 0.424,-0.561 0.402,-0.595C0.379,-0.63 0.344,-0.647 0.297,-0.647C0.204,-0.647 0.157,-0.592 0.157,-0.482Z" style="fill-rule:nonzero;"/>
                </g>
                <g transform="matrix(26.0417,0,0,26.0417,424.081,731.375)">
                    <path d="M0.531,-0.07L0.531,-0L0.123,-0L0.123,-0.07L0.297,-0.07L0.297,-0.613L0.135,-0.514L0.097,-0.576L0.308,-0.706L0.383,-0.706L0.383,-0.07L0.531,-0.07Z" style="fill-rule:nonzero;"/>
                </g>
                <g transform="matrix(26.0417,0,0,26.0417,456.132,731.375)">
                    <path d="M0.531,-0.07L0.531,-0L0.123,-0L0.123,-0.07L0.297,-0.07L0.297,-0.613L0.135,-0.514L0.097,-0.576L0.308,-0.706L0.383,-0.706L0.383,-0.07L0.531,-0.07Z" style="fill-rule:nonzero;"/>
                </g>
                <g transform="matrix(26.0417,0,0,26.0417,488.183,731.375)">
                    <path d="M0.531,-0.07L0.531,-0L0.123,-0L0.123,-0.07L0.297,-0.07L0.297,-0.613L0.135,-0.514L0.097,-0.576L0.308,-0.706L0.383,-0.706L0.383,-0.07L0.531,-0.07Z" style="fill-rule:nonzero;"/>
                </g>
                <g transform="matrix(26.0417,0,0,26.0417,424.081,757.417)">
                    <path d="M0.308,-0.717C0.384,-0.717 0.441,-0.686 0.48,-0.623C0.519,-0.56 0.539,-0.47 0.539,-0.353C0.539,-0.236 0.519,-0.146 0.48,-0.083C0.441,-0.02 0.384,0.012 0.308,0.012C0.232,0.012 0.174,-0.02 0.135,-0.083C0.096,-0.146 0.076,-0.236 0.076,-0.353C0.076,-0.47 0.096,-0.56 0.135,-0.623C0.174,-0.686 0.232,-0.717 0.308,-0.717ZM0.308,-0.648C0.264,-0.648 0.23,-0.625 0.205,-0.579C0.18,-0.533 0.168,-0.458 0.168,-0.353C0.168,-0.275 0.174,-0.214 0.186,-0.169L0.402,-0.603C0.38,-0.633 0.349,-0.648 0.308,-0.648ZM0.448,-0.353C0.448,-0.432 0.442,-0.494 0.43,-0.538L0.215,-0.103C0.236,-0.073 0.267,-0.058 0.308,-0.058C0.351,-0.058 0.386,-0.081 0.411,-0.127C0.436,-0.173 0.448,-0.249 0.448,-0.353Z" style="fill-rule:nonzero;"/>
                </g>
                <g transform="matrix(26.0417,0,0,26.0417,456.132,757.417)">
                    <path d="M0.531,-0.07L0.531,-0L0.123,-0L0.123,-0.07L0.297,-0.07L0.297,-0.613L0.135,-0.514L0.097,-0.576L0.308,-0.706L0.383,-0.706L0.383,-0.07L0.531,-0.07Z" style="fill-rule:nonzero;"/>
                </g>
                <g transform="matrix(26.0417,0,0,26.0417,488.183,757.417)">
                    <path d="M0.276,-0.717C0.321,-0.717 0.359,-0.709 0.391,-0.692C0.423,-0.674 0.447,-0.651 0.464,-0.621C0.481,-0.591 0.489,-0.558 0.489,-0.521C0.489,-0.488 0.484,-0.456 0.472,-0.425C0.461,-0.394 0.443,-0.362 0.418,-0.328C0.393,-0.294 0.361,-0.256 0.321,-0.215C0.28,-0.174 0.231,-0.126 0.173,-0.073L0.506,-0.073L0.495,-0L0.075,-0L0.075,-0.07C0.142,-0.134 0.196,-0.188 0.238,-0.232C0.28,-0.276 0.313,-0.314 0.336,-0.346C0.36,-0.378 0.376,-0.408 0.385,-0.434C0.394,-0.461 0.398,-0.489 0.398,-0.517C0.398,-0.557 0.387,-0.588 0.365,-0.611C0.343,-0.634 0.312,-0.646 0.272,-0.646C0.237,-0.646 0.209,-0.64 0.187,-0.628C0.164,-0.616 0.142,-0.597 0.12,-0.57L0.061,-0.616C0.089,-0.651 0.12,-0.676 0.154,-0.693C0.188,-0.709 0.229,-0.717 0.276,-0.717Z" style="fill-rule:nonzero;"/>
                </g>
            </g>
        </g>
        <g id="_6-pin-Module" serif:id="6-pin Module">
            <g transform="matrix(0.420374,0,0,0.514223,243.515,396.986)">
                <rect x="228.707" y="688.415" width="21.072" height="17.227"/>
            </g>
            <g transform="matrix(0.420374,0,0,0.514223,273.644,396.986)">
                <rect x="228.707" y="688.415" width="21.072" height="17.227"/>
            </g>
            <g transform="matrix(0.420374,0,0,0.514223,303.774,396.986)">
                <rect x="228.707" y="688.415" width="21.072" height="17.227"/>
            </g>
            <g transform="matrix(0.420374,0,0,0.514223,333.903,396.986)">
                <rect x="228.707" y="688.415" width="21.072" height="17.227"/>
            </g>
            <g transform="matrix(0.420374,0,0,0.514223,364.033,396.986)">
                <rect x="228.707" y="688.415" width="21.072" height="17.227"/>
            </g>
            <g transform="matrix(0.420374,0,0,0.514223,394.162,396.986)">
                <rect x="228.707" y="688.415" width="21.072" height="17.227"/>
            </g>
            <g transform="matrix(26.0417,0,0,26.0417,327.927,731.375)">
                <path d="M0.531,-0.07L0.531,-0L0.123,-0L0.123,-0.07L0.297,-0.07L0.297,-0.613L0.135,-0.514L0.097,-0.576L0.308,-0.706L0.383,-0.706L0.383,-0.07L0.531,-0.07Z" style="fill-rule:nonzero;"/>
            </g>
            <g transform="matrix(26.0417,0,0,26.0417,359.978,731.375)">
                <path d="M0.276,-0.717C0.321,-0.717 0.359,-0.709 0.391,-0.692C0.423,-0.674 0.447,-0.651 0.464,-0.621C0.481,-0.591 0.489,-0.558 0.489,-0.521C0.489,-0.488 0.484,-0.456 0.472,-0.425C0.461,-0.394 0.443,-0.362 0.418,-0.328C0.393,-0.294 0.361,-0.256 0.321,-0.215C0.28,-0.174 0.231,-0.126 0.173,-0.073L0.506,-0.073L0.495,-0L0.075,-0L0.075,-0.07C0.142,-0.134 0.196,-0.188 0.238,-0.232C0.28,-0.276 0.313,-0.314 0.336,-0.346C0.36,-0.378 0.376,-0.408 0.385,-0.434C0.394,-0.461 0.398,-0.489 0.398,-0.517C0.398,-0.557 0.387,-0.588 0.365,-0.611C0.343,-0.634 0.312,-0.646 0.272,-0.646C0.237,-0.646 0.209,-0.64 0.187,-0.628C0.164,-0.616 0.142,-0.597 0.12,-0.57L0.061,-0.616C0.089,-0.651 0.12,-0.676 0.154,-0.693C0.188,-0.709 0.229,-0.717 0.276,-0.717Z" style="fill-rule:nonzero;"/>
            </g>
            <g transform="matrix(26.0417,0,0,26.0417,392.03,731.375)">
                <path d="M0.275,-0.717C0.32,-0.717 0.358,-0.709 0.391,-0.693C0.423,-0.677 0.448,-0.656 0.466,-0.629C0.484,-0.603 0.492,-0.573 0.492,-0.541C0.492,-0.512 0.486,-0.486 0.473,-0.463C0.461,-0.44 0.444,-0.421 0.423,-0.406C0.402,-0.391 0.379,-0.381 0.354,-0.376C0.382,-0.374 0.408,-0.367 0.433,-0.353C0.457,-0.34 0.477,-0.32 0.492,-0.295C0.507,-0.27 0.515,-0.24 0.515,-0.204C0.515,-0.163 0.505,-0.126 0.484,-0.094C0.464,-0.061 0.435,-0.035 0.398,-0.016C0.361,0.002 0.319,0.012 0.27,0.012C0.23,0.012 0.191,0.004 0.152,-0.011C0.113,-0.026 0.08,-0.05 0.053,-0.083L0.111,-0.13C0.131,-0.106 0.155,-0.089 0.183,-0.077C0.211,-0.065 0.239,-0.059 0.268,-0.059C0.317,-0.059 0.355,-0.072 0.383,-0.098C0.411,-0.124 0.425,-0.159 0.425,-0.204C0.425,-0.254 0.411,-0.289 0.383,-0.308C0.355,-0.328 0.32,-0.337 0.278,-0.337L0.219,-0.337L0.23,-0.406L0.271,-0.406C0.294,-0.406 0.316,-0.41 0.336,-0.419C0.356,-0.428 0.373,-0.441 0.386,-0.459C0.399,-0.478 0.406,-0.501 0.406,-0.529C0.406,-0.568 0.393,-0.597 0.367,-0.618C0.341,-0.638 0.309,-0.649 0.272,-0.649C0.242,-0.649 0.215,-0.643 0.192,-0.633C0.169,-0.622 0.146,-0.605 0.123,-0.584L0.075,-0.636C0.105,-0.665 0.137,-0.685 0.171,-0.698C0.205,-0.711 0.239,-0.717 0.275,-0.717Z" style="fill-rule:nonzero;"/>
            </g>
            <g transform="matrix(26.0417,0,0,26.0417,424.081,731.375)">
                <path d="M0.451,-0.441L0.451,-0.241L0.542,-0.241L0.542,-0.172L0.451,-0.172L0.451,-0L0.368,-0L0.367,-0.172L0.074,-0.172L0.074,-0.234L0.281,-0.717L0.353,-0.687L0.165,-0.241L0.368,-0.241L0.379,-0.441L0.451,-0.441Z" style="fill-rule:nonzero;"/>
            </g>
            <g transform="matrix(26.0417,0,0,26.0417,456.132,731.375)">
                <path d="M0.499,-0.706L0.487,-0.637L0.208,-0.637L0.208,-0.415C0.229,-0.426 0.25,-0.434 0.269,-0.438C0.288,-0.443 0.309,-0.445 0.33,-0.445C0.387,-0.445 0.434,-0.426 0.469,-0.387C0.505,-0.349 0.523,-0.294 0.523,-0.224C0.523,-0.176 0.513,-0.135 0.493,-0.1C0.473,-0.065 0.446,-0.037 0.41,-0.018C0.374,0.002 0.332,0.012 0.284,0.012C0.241,0.012 0.203,0.004 0.17,-0.011C0.137,-0.026 0.106,-0.047 0.079,-0.073L0.132,-0.125C0.174,-0.081 0.225,-0.059 0.285,-0.059C0.331,-0.059 0.367,-0.074 0.393,-0.102C0.419,-0.13 0.432,-0.171 0.432,-0.226C0.432,-0.264 0.427,-0.294 0.415,-0.316C0.404,-0.338 0.389,-0.353 0.369,-0.363C0.35,-0.372 0.329,-0.377 0.305,-0.377C0.284,-0.377 0.266,-0.375 0.25,-0.371C0.234,-0.367 0.215,-0.361 0.195,-0.353L0.126,-0.353L0.126,-0.706L0.499,-0.706Z" style="fill-rule:nonzero;"/>
            </g>
            <g transform="matrix(26.0417,0,0,26.0417,488.183,731.375)">
                <path d="M0.344,-0.717C0.371,-0.717 0.396,-0.714 0.419,-0.707C0.442,-0.7 0.464,-0.69 0.484,-0.676L0.45,-0.618C0.417,-0.638 0.381,-0.648 0.343,-0.648C0.288,-0.648 0.246,-0.622 0.216,-0.571C0.186,-0.519 0.17,-0.451 0.168,-0.365C0.19,-0.398 0.216,-0.422 0.244,-0.437C0.272,-0.452 0.303,-0.46 0.338,-0.46C0.374,-0.46 0.408,-0.452 0.438,-0.436C0.468,-0.419 0.493,-0.395 0.511,-0.362C0.529,-0.329 0.538,-0.288 0.538,-0.237C0.538,-0.185 0.528,-0.141 0.508,-0.104C0.488,-0.066 0.461,-0.038 0.427,-0.018C0.394,0.002 0.357,0.012 0.316,0.012C0.259,0.012 0.213,-0.002 0.179,-0.031C0.144,-0.059 0.12,-0.099 0.104,-0.151C0.089,-0.203 0.082,-0.264 0.082,-0.334C0.082,-0.412 0.092,-0.479 0.113,-0.537C0.133,-0.594 0.163,-0.639 0.203,-0.67C0.242,-0.702 0.289,-0.717 0.344,-0.717ZM0.325,-0.389C0.291,-0.389 0.261,-0.38 0.234,-0.362C0.208,-0.343 0.186,-0.319 0.169,-0.289C0.17,-0.21 0.183,-0.151 0.206,-0.114C0.229,-0.077 0.265,-0.058 0.315,-0.058C0.36,-0.058 0.394,-0.074 0.416,-0.105C0.439,-0.137 0.45,-0.18 0.45,-0.235C0.45,-0.293 0.438,-0.333 0.415,-0.356C0.392,-0.378 0.362,-0.389 0.325,-0.389Z" style="fill-rule:nonzero;"/>
            </g>
        </g>
        <g transform="matrix(1,0,0,1,28.4574,120.674)">
            <g transform="matrix(26.0417,0,0,26.0417,318.496,544.224)">
                <path d="M0.289,-0.693C0.38,-0.693 0.451,-0.674 0.502,-0.636C0.553,-0.598 0.578,-0.542 0.578,-0.467C0.578,-0.389 0.553,-0.33 0.504,-0.291C0.454,-0.251 0.387,-0.231 0.304,-0.231L0.229,-0.231L0.229,-0L0.065,-0L0.065,-0.693L0.289,-0.693ZM0.29,-0.349C0.329,-0.349 0.358,-0.358 0.379,-0.377C0.399,-0.395 0.409,-0.425 0.409,-0.467C0.409,-0.54 0.368,-0.576 0.287,-0.576L0.229,-0.576L0.229,-0.349L0.29,-0.349Z" style="fill-rule:nonzero;"/>
            </g>
            <g transform="matrix(26.0417,0,0,26.0417,333.34,544.224)">
                <path d="M0.753,-0L0.592,-0L0.58,-0.271C0.577,-0.336 0.575,-0.393 0.575,-0.444C0.575,-0.483 0.576,-0.519 0.578,-0.554L0.471,-0.073L0.316,-0.073L0.202,-0.554C0.206,-0.496 0.208,-0.441 0.208,-0.39C0.208,-0.351 0.207,-0.311 0.205,-0.269L0.193,-0L0.033,-0L0.085,-0.693L0.292,-0.693L0.396,-0.223L0.493,-0.693L0.701,-0.693L0.753,-0Z" style="fill-rule:nonzero;"/>
            </g>
            <g transform="matrix(26.0417,0,0,26.0417,353.548,544.224)">
                <path d="M0.345,-0.71C0.444,-0.71 0.521,-0.678 0.576,-0.615C0.631,-0.552 0.658,-0.462 0.658,-0.347C0.658,-0.272 0.646,-0.207 0.621,-0.152C0.596,-0.097 0.56,-0.056 0.513,-0.027C0.466,0.003 0.41,0.017 0.345,0.017C0.28,0.017 0.225,0.003 0.178,-0.026C0.131,-0.055 0.095,-0.096 0.071,-0.151C0.046,-0.205 0.033,-0.27 0.033,-0.347C0.033,-0.422 0.046,-0.486 0.071,-0.541C0.095,-0.596 0.131,-0.638 0.178,-0.667C0.225,-0.696 0.28,-0.71 0.345,-0.71ZM0.345,-0.59C0.298,-0.59 0.263,-0.571 0.24,-0.533C0.217,-0.494 0.205,-0.432 0.205,-0.347C0.205,-0.262 0.217,-0.2 0.24,-0.161C0.263,-0.122 0.298,-0.103 0.345,-0.103C0.393,-0.103 0.428,-0.122 0.452,-0.161C0.474,-0.199 0.486,-0.261 0.486,-0.347C0.486,-0.433 0.474,-0.495 0.451,-0.533C0.428,-0.571 0.392,-0.59 0.345,-0.59Z" style="fill-rule:nonzero;"/>
            </g>
            <g transform="matrix(26.0417,0,0,26.0417,371.543,544.224)">
                <path d="M0.258,-0.693C0.367,-0.693 0.454,-0.669 0.52,-0.62C0.585,-0.571 0.618,-0.481 0.618,-0.35C0.618,-0.221 0.586,-0.131 0.522,-0.079C0.458,-0.026 0.375,-0 0.273,-0L0.065,-0L0.065,-0.693L0.258,-0.693ZM0.229,-0.574L0.229,-0.119L0.283,-0.119C0.337,-0.119 0.378,-0.136 0.406,-0.17C0.434,-0.203 0.448,-0.263 0.448,-0.35C0.448,-0.409 0.441,-0.455 0.427,-0.488C0.413,-0.521 0.394,-0.543 0.37,-0.556C0.346,-0.568 0.316,-0.574 0.281,-0.574L0.229,-0.574Z" style="fill-rule:nonzero;"/>
            </g>
            <g transform="matrix(26.0417,0,0,26.0417,394.668,544.224)">
                <path d="M0.345,-0.455C0.382,-0.455 0.416,-0.446 0.445,-0.429C0.474,-0.411 0.497,-0.385 0.514,-0.352C0.531,-0.318 0.539,-0.278 0.539,-0.231C0.539,-0.185 0.529,-0.143 0.509,-0.106C0.489,-0.068 0.46,-0.038 0.424,-0.016C0.387,0.006 0.343,0.017 0.294,0.017C0.207,0.017 0.143,-0.012 0.101,-0.07C0.059,-0.128 0.038,-0.208 0.038,-0.309C0.038,-0.385 0.05,-0.452 0.074,-0.509C0.097,-0.566 0.131,-0.611 0.176,-0.643C0.22,-0.674 0.272,-0.69 0.332,-0.69C0.39,-0.69 0.441,-0.675 0.486,-0.645L0.428,-0.551C0.398,-0.568 0.367,-0.577 0.336,-0.577C0.298,-0.577 0.267,-0.561 0.244,-0.529C0.221,-0.497 0.207,-0.452 0.202,-0.393C0.243,-0.434 0.29,-0.455 0.345,-0.455ZM0.296,-0.096C0.324,-0.096 0.345,-0.108 0.36,-0.132C0.374,-0.155 0.381,-0.188 0.381,-0.229C0.381,-0.271 0.374,-0.301 0.361,-0.319C0.348,-0.337 0.328,-0.346 0.301,-0.346C0.265,-0.346 0.232,-0.328 0.202,-0.293C0.203,-0.222 0.211,-0.171 0.225,-0.141C0.239,-0.111 0.263,-0.096 0.296,-0.096Z" style="fill-rule:nonzero;"/>
            </g>
            <g transform="matrix(26.0417,0,0,26.0417,409.355,544.224)">
                <rect x="0.044" y="-0.374" width="0.319" height="0.122" style="fill-rule:nonzero;"/>
            </g>
            <g transform="matrix(26.0417,0,0,26.0417,419.954,544.224)">
                <path d="M0.362,-0.548C0.429,-0.548 0.478,-0.523 0.511,-0.474C0.544,-0.425 0.56,-0.356 0.56,-0.267C0.56,-0.212 0.552,-0.164 0.535,-0.121C0.518,-0.078 0.493,-0.044 0.461,-0.02C0.429,0.005 0.392,0.017 0.349,0.017C0.296,0.017 0.253,-0.001 0.22,-0.038L0.22,0.205L0.062,0.222L0.062,-0.531L0.201,-0.531L0.209,-0.472C0.23,-0.498 0.253,-0.517 0.28,-0.53C0.307,-0.542 0.334,-0.548 0.362,-0.548ZM0.301,-0.099C0.364,-0.099 0.396,-0.154 0.396,-0.265C0.396,-0.328 0.389,-0.371 0.375,-0.396C0.361,-0.42 0.34,-0.432 0.312,-0.432C0.294,-0.432 0.277,-0.427 0.262,-0.416C0.246,-0.405 0.232,-0.39 0.22,-0.37L0.22,-0.146C0.241,-0.115 0.268,-0.099 0.301,-0.099Z" style="fill-rule:nonzero;"/>
            </g>
            <g transform="matrix(26.0417,0,0,26.0417,435.501,544.224)">
                <path d="M0.22,-0.531L0.22,-0L0.062,-0L0.062,-0.531L0.22,-0.531ZM0.14,-0.811C0.167,-0.811 0.19,-0.803 0.208,-0.786C0.225,-0.769 0.234,-0.747 0.234,-0.721C0.234,-0.695 0.225,-0.674 0.208,-0.657C0.19,-0.64 0.167,-0.631 0.14,-0.631C0.113,-0.631 0.09,-0.64 0.073,-0.657C0.056,-0.674 0.047,-0.695 0.047,-0.721C0.047,-0.747 0.056,-0.769 0.073,-0.786C0.09,-0.803 0.113,-0.811 0.14,-0.811Z" style="fill-rule:nonzero;"/>
            </g>
            <g transform="matrix(26.0417,0,0,26.0417,442.845,544.224)">
                <path d="M0.373,-0.548C0.419,-0.548 0.455,-0.534 0.481,-0.506C0.507,-0.478 0.52,-0.439 0.52,-0.388L0.52,-0L0.362,-0L0.362,-0.361C0.362,-0.388 0.358,-0.406 0.35,-0.417C0.341,-0.427 0.329,-0.432 0.312,-0.432C0.28,-0.432 0.249,-0.409 0.22,-0.363L0.22,-0L0.062,-0L0.062,-0.531L0.2,-0.531L0.211,-0.468C0.234,-0.495 0.258,-0.515 0.285,-0.528C0.311,-0.541 0.34,-0.548 0.373,-0.548Z" style="fill-rule:nonzero;"/>
            </g>
        </g>
        <g transform="matrix(1,0,0,1,285.77,120.674)">
            <g transform="matrix(26.0417,0,0,26.0417,318.496,544.224)">
                <path d="M0.289,-0.693C0.38,-0.693 0.451,-0.674 0.502,-0.636C0.553,-0.598 0.578,-0.542 0.578,-0.467C0.578,-0.389 0.553,-0.33 0.504,-0.291C0.454,-0.251 0.387,-0.231 0.304,-0.231L0.229,-0.231L0.229,-0L0.065,-0L0.065,-0.693L0.289,-0.693ZM0.29,-0.349C0.329,-0.349 0.358,-0.358 0.379,-0.377C0.399,-0.395 0.409,-0.425 0.409,-0.467C0.409,-0.54 0.368,-0.576 0.287,-0.576L0.229,-0.576L0.229,-0.349L0.29,-0.349Z" style="fill-rule:nonzero;"/>
            </g>
            <g transform="matrix(26.0417,0,0,26.0417,333.34,544.224)">
                <path d="M0.753,-0L0.592,-0L0.58,-0.271C0.577,-0.336 0.575,-0.393 0.575,-0.444C0.575,-0.483 0.576,-0.519 0.578,-0.554L0.471,-0.073L0.316,-0.073L0.202,-0.554C0.206,-0.496 0.208,-0.441 0.208,-0.39C0.208,-0.351 0.207,-0.311 0.205,-0.269L0.193,-0L0.033,-0L0.085,-0.693L0.292,-0.693L0.396,-0.223L0.493,-0.693L0.701,-0.693L0.753,-0Z" style="fill-rule:nonzero;"/>
            </g>
            <g transform="matrix(26.0417,0,0,26.0417,353.548,544.224)">
                <path d="M0.345,-0.71C0.444,-0.71 0.521,-0.678 0.576,-0.615C0.631,-0.552 0.658,-0.462 0.658,-0.347C0.658,-0.272 0.646,-0.207 0.621,-0.152C0.596,-0.097 0.56,-0.056 0.513,-0.027C0.466,0.003 0.41,0.017 0.345,0.017C0.28,0.017 0.225,0.003 0.178,-0.026C0.131,-0.055 0.095,-0.096 0.071,-0.151C0.046,-0.205 0.033,-0.27 0.033,-0.347C0.033,-0.422 0.046,-0.486 0.071,-0.541C0.095,-0.596 0.131,-0.638 0.178,-0.667C0.225,-0.696 0.28,-0.71 0.345,-0.71ZM0.345,-0.59C0.298,-0.59 0.263,-0.571 0.24,-0.533C0.217,-0.494 0.205,-0.432 0.205,-0.347C0.205,-0.262 0.217,-0.2 0.24,-0.161C0.263,-0.122 0.298,-0.103 0.345,-0.103C0.393,-0.103 0.428,-0.122 0.452,-0.161C0.474,-0.199 0.486,-0.261 0.486,-0.347C0.486,-0.433 0.474,-0.495 0.451,-0.533C0.428,-0.571 0.392,-0.59 0.345,-0.59Z" style="fill-rule:nonzero;"/>
            </g>
            <g transform="matrix(26.0417,0,0,26.0417,371.543,544.224)">
                <path d="M0.258,-0.693C0.367,-0.693 0.454,-0.669 0.52,-0.62C0.585,-0.571 0.618,-0.481 0.618,-0.35C0.618,-0.221 0.586,-0.131 0.522,-0.079C0.458,-0.026 0.375,-0 0.273,-0L0.065,-0L0.065,-0.693L0.258,-0.693ZM0.229,-0.574L0.229,-0.119L0.283,-0.119C0.337,-0.119 0.378,-0.136 0.406,-0.17C0.434,-0.203 0.448,-0.263 0.448,-0.35C0.448,-0.409 0.441,-0.455 0.427,-0.488C0.413,-0.521 0.394,-0.543 0.37,-0.556C0.346,-0.568 0.316,-0.574 0.281,-0.574L0.229,-0.574Z" style="fill-rule:nonzero;"/>
            </g>
            <g transform="matrix(26.0417,0,0,26.0417,394.668,544.224)">
                <path d="M0.382,-0.676L0.382,-0L0.227,-0L0.227,-0.522L0.082,-0.433L0.013,-0.538L0.241,-0.676L0.382,-0.676Z" style="fill-rule:nonzero;"/>
            </g>
            <g transform="matrix(26.0417,0,0,26.0417,406.751,544.224)">
                <path d="M0.238,-0.69C0.287,-0.69 0.329,-0.681 0.364,-0.664C0.399,-0.647 0.425,-0.623 0.444,-0.594C0.462,-0.565 0.471,-0.532 0.471,-0.497C0.471,-0.461 0.464,-0.427 0.449,-0.394C0.434,-0.361 0.408,-0.324 0.371,-0.282C0.334,-0.239 0.279,-0.186 0.208,-0.121L0.485,-0.121L0.469,-0L0.029,-0L0.029,-0.112C0.111,-0.193 0.171,-0.254 0.208,-0.295C0.245,-0.335 0.272,-0.37 0.287,-0.397C0.302,-0.424 0.309,-0.452 0.309,-0.481C0.309,-0.508 0.301,-0.53 0.286,-0.546C0.27,-0.561 0.249,-0.569 0.222,-0.569C0.198,-0.569 0.177,-0.564 0.158,-0.553C0.139,-0.542 0.12,-0.524 0.099,-0.499L0.006,-0.573C0.034,-0.61 0.068,-0.638 0.107,-0.659C0.146,-0.68 0.189,-0.69 0.238,-0.69Z" style="fill-rule:nonzero;"/>
            </g>
            <g transform="matrix(26.0417,0,0,26.0417,420.215,544.224)">
                <rect x="0.044" y="-0.374" width="0.319" height="0.122" style="fill-rule:nonzero;"/>
            </g>
            <g transform="matrix(26.0417,0,0,26.0417,430.814,544.224)">
                <path d="M0.362,-0.548C0.429,-0.548 0.478,-0.523 0.511,-0.474C0.544,-0.425 0.56,-0.356 0.56,-0.267C0.56,-0.212 0.552,-0.164 0.535,-0.121C0.518,-0.078 0.493,-0.044 0.461,-0.02C0.429,0.005 0.392,0.017 0.349,0.017C0.296,0.017 0.253,-0.001 0.22,-0.038L0.22,0.205L0.062,0.222L0.062,-0.531L0.201,-0.531L0.209,-0.472C0.23,-0.498 0.253,-0.517 0.28,-0.53C0.307,-0.542 0.334,-0.548 0.362,-0.548ZM0.301,-0.099C0.364,-0.099 0.396,-0.154 0.396,-0.265C0.396,-0.328 0.389,-0.371 0.375,-0.396C0.361,-0.42 0.34,-0.432 0.312,-0.432C0.294,-0.432 0.277,-0.427 0.262,-0.416C0.246,-0.405 0.232,-0.39 0.22,-0.37L0.22,-0.146C0.241,-0.115 0.268,-0.099 0.301,-0.099Z" style="fill-rule:nonzero;"/>
            </g>
            <g transform="matrix(26.0417,0,0,26.0417,446.361,544.224)">
                <path d="M0.22,-0.531L0.22,-0L0.062,-0L0.062,-0.531L0.22,-0.531ZM0.14,-0.811C0.167,-0.811 0.19,-0.803 0.208,-0.786C0.225,-0.769 0.234,-0.747 0.234,-0.721C0.234,-0.695 0.225,-0.674 0.208,-0.657C0.19,-0.64 0.167,-0.631 0.14,-0.631C0.113,-0.631 0.09,-0.64 0.073,-0.657C0.056,-0.674 0.047,-0.695 0.047,-0.721C0.047,-0.747 0.056,-0.769 0.073,-0.786C0.09,-0.803 0.113,-0.811 0.14,-0.811Z" style="fill-rule:nonzero;"/>
            </g>
            <g transform="matrix(26.0417,0,0,26.0417,453.704,544.224)">
                <path d="M0.373,-0.548C0.419,-0.548 0.455,-0.534 0.481,-0.506C0.507,-0.478 0.52,-0.439 0.52,-0.388L0.52,-0L0.362,-0L0.362,-0.361C0.362,-0.388 0.358,-0.406 0.35,-0.417C0.341,-0.427 0.329,-0.432 0.312,-0.432C0.28,-0.432 0.249,-0.409 0.22,-0.363L0.22,-0L0.062,-0L0.062,-0.531L0.2,-0.531L0.211,-0.468C0.234,-0.495 0.258,-0.515 0.285,-0.528C0.311,-0.541 0.34,-0.548 0.373,-0.548Z" style="fill-rule:nonzero;"/>
            </g>
        </g>
        <g transform="matrix(1.04669,0,0,0.8899,-11.2214,76.8572)">
            <rect x="304.596" y="698.065" width="468.728" height="199.375" style="fill:none;stroke:black;stroke-width:4.29px;stroke-dasharray:4.29,12.87,4.29,12.87,4.29,12.87;"/>
        </g>
        <g transform="matrix(6.12323e-17,-1,1,6.12323e-17,-271.373,999.415)">
            <g transform="matrix(26.0417,0,0,26.0417,168.471,568.823)">
                <path d="M0.753,-0L0.592,-0L0.58,-0.271C0.577,-0.336 0.575,-0.393 0.575,-0.444C0.575,-0.483 0.576,-0.519 0.578,-0.554L0.471,-0.073L0.316,-0.073L0.202,-0.554C0.206,-0.496 0.208,-0.441 0.208,-0.39C0.208,-0.351 0.207,-0.311 0.205,-0.269L0.193,-0L0.033,-0L0.085,-0.693L0.292,-0.693L0.396,-0.223L0.493,-0.693L0.701,-0.693L0.753,-0Z" style="fill-rule:nonzero;"/>
            </g>
            <g transform="matrix(26.0417,0,0,26.0417,188.94,568.823)">
                <path d="M0.292,-0.548C0.373,-0.548 0.437,-0.523 0.483,-0.474C0.529,-0.424 0.552,-0.354 0.552,-0.265C0.552,-0.208 0.542,-0.159 0.521,-0.117C0.5,-0.074 0.47,-0.041 0.431,-0.018C0.392,0.005 0.345,0.017 0.292,0.017C0.211,0.017 0.148,-0.008 0.102,-0.058C0.055,-0.107 0.032,-0.177 0.032,-0.266C0.032,-0.323 0.043,-0.372 0.064,-0.415C0.085,-0.457 0.115,-0.49 0.154,-0.513C0.193,-0.536 0.239,-0.548 0.292,-0.548ZM0.292,-0.432C0.26,-0.432 0.236,-0.419 0.22,-0.392C0.204,-0.365 0.196,-0.323 0.196,-0.266C0.196,-0.208 0.204,-0.166 0.22,-0.139C0.235,-0.112 0.259,-0.099 0.292,-0.099C0.324,-0.099 0.348,-0.113 0.364,-0.14C0.38,-0.167 0.388,-0.208 0.388,-0.265C0.388,-0.323 0.38,-0.365 0.365,-0.392C0.349,-0.419 0.325,-0.432 0.292,-0.432Z" style="fill-rule:nonzero;"/>
            </g>
            <g transform="matrix(26.0417,0,0,26.0417,204.149,568.823)">
                <path d="M0.538,-0.742L0.538,-0L0.398,-0L0.39,-0.062C0.353,-0.009 0.302,0.017 0.239,0.017C0.173,0.017 0.123,-0.008 0.089,-0.059C0.054,-0.11 0.037,-0.179 0.037,-0.267C0.037,-0.321 0.046,-0.369 0.064,-0.412C0.082,-0.455 0.108,-0.488 0.141,-0.512C0.173,-0.536 0.211,-0.548 0.254,-0.548C0.305,-0.548 0.347,-0.531 0.38,-0.498L0.38,-0.759L0.538,-0.742ZM0.288,-0.099C0.325,-0.099 0.355,-0.119 0.38,-0.159L0.38,-0.388C0.367,-0.403 0.355,-0.415 0.342,-0.422C0.329,-0.429 0.314,-0.433 0.297,-0.433C0.268,-0.433 0.244,-0.419 0.227,-0.392C0.21,-0.365 0.201,-0.323 0.201,-0.266C0.201,-0.204 0.209,-0.161 0.224,-0.136C0.239,-0.111 0.26,-0.099 0.288,-0.099Z" style="fill-rule:nonzero;"/>
            </g>
            <g transform="matrix(26.0417,0,0,26.0417,219.774,568.823)">
                <path d="M0.51,-0L0.373,-0L0.366,-0.067C0.327,-0.011 0.274,0.017 0.205,0.017C0.156,0.017 0.12,0.002 0.095,-0.027C0.07,-0.056 0.057,-0.097 0.057,-0.15L0.057,-0.531L0.215,-0.531L0.215,-0.17C0.215,-0.144 0.219,-0.126 0.228,-0.116C0.236,-0.105 0.249,-0.1 0.266,-0.1C0.299,-0.1 0.328,-0.121 0.352,-0.162L0.352,-0.531L0.51,-0.531L0.51,-0Z" style="fill-rule:nonzero;"/>
            </g>
            <g transform="matrix(26.0417,0,0,26.0417,234.669,568.823)">
                <path d="M0.203,0.017C0.157,0.017 0.121,0.004 0.096,-0.023C0.07,-0.049 0.057,-0.086 0.057,-0.135L0.057,-0.742L0.215,-0.759L0.215,-0.141C0.215,-0.119 0.224,-0.108 0.242,-0.108C0.251,-0.108 0.26,-0.11 0.268,-0.113L0.299,-0.001C0.27,0.011 0.238,0.017 0.203,0.017Z" style="fill-rule:nonzero;"/>
            </g>
            <g transform="matrix(26.0417,0,0,26.0417,242.274,568.823)">
                <path d="M0.525,-0.276C0.525,-0.254 0.524,-0.235 0.522,-0.219L0.193,-0.219C0.198,-0.174 0.211,-0.143 0.231,-0.125C0.251,-0.107 0.279,-0.098 0.314,-0.098C0.335,-0.098 0.356,-0.102 0.376,-0.11C0.396,-0.117 0.418,-0.129 0.441,-0.145L0.506,-0.057C0.444,-0.008 0.375,0.017 0.299,0.017C0.213,0.017 0.147,-0.008 0.101,-0.059C0.055,-0.11 0.032,-0.178 0.032,-0.263C0.032,-0.317 0.042,-0.366 0.061,-0.409C0.08,-0.452 0.109,-0.486 0.146,-0.511C0.183,-0.536 0.228,-0.548 0.28,-0.548C0.357,-0.548 0.417,-0.524 0.46,-0.476C0.503,-0.428 0.525,-0.361 0.525,-0.276ZM0.37,-0.321C0.369,-0.402 0.34,-0.443 0.284,-0.443C0.257,-0.443 0.236,-0.433 0.221,-0.413C0.206,-0.393 0.196,-0.36 0.193,-0.314L0.37,-0.314L0.37,-0.321Z" style="fill-rule:nonzero;"/>
            </g>
        </g>
        <g transform="matrix(1.04669,0,0,0.8899,-11.2214,278.457)">
            <rect x="304.596" y="698.065" width="468.728" height="199.375" style="fill:none;stroke:black;stroke-width:4.29px;stroke-dasharray:4.29,12.87,4.29,12.87,4.29,12.87;"/>
        </g>
        <g transform="matrix(6.12323e-17,-1,1,6.12323e-17,-273.092,1185.4)">
            <g transform="matrix(26.0417,0,0,26.0417,168.471,568.823)">
                <path d="M0.437,-0L0.437,-0.297L0.229,-0.297L0.229,-0L0.065,-0L0.065,-0.693L0.229,-0.693L0.229,-0.425L0.437,-0.425L0.437,-0.693L0.601,-0.693L0.601,-0L0.437,-0Z" style="fill-rule:nonzero;"/>
            </g>
            <g transform="matrix(26.0417,0,0,26.0417,185.815,568.823)">
                <path d="M0.292,-0.548C0.373,-0.548 0.437,-0.523 0.483,-0.474C0.529,-0.424 0.552,-0.354 0.552,-0.265C0.552,-0.208 0.542,-0.159 0.521,-0.117C0.5,-0.074 0.47,-0.041 0.431,-0.018C0.392,0.005 0.345,0.017 0.292,0.017C0.211,0.017 0.148,-0.008 0.102,-0.058C0.055,-0.107 0.032,-0.177 0.032,-0.266C0.032,-0.323 0.043,-0.372 0.064,-0.415C0.085,-0.457 0.115,-0.49 0.154,-0.513C0.193,-0.536 0.239,-0.548 0.292,-0.548ZM0.292,-0.432C0.26,-0.432 0.236,-0.419 0.22,-0.392C0.204,-0.365 0.196,-0.323 0.196,-0.266C0.196,-0.208 0.204,-0.166 0.22,-0.139C0.235,-0.112 0.259,-0.099 0.292,-0.099C0.324,-0.099 0.348,-0.113 0.364,-0.14C0.38,-0.167 0.388,-0.208 0.388,-0.265C0.388,-0.323 0.38,-0.365 0.365,-0.392C0.349,-0.419 0.325,-0.432 0.292,-0.432Z" style="fill-rule:nonzero;"/>
            </g>
            <g transform="matrix(26.0417,0,0,26.0417,201.024,568.823)">
                <path d="M0.249,-0.548C0.287,-0.548 0.323,-0.542 0.356,-0.531C0.389,-0.52 0.419,-0.504 0.444,-0.483L0.386,-0.394C0.343,-0.421 0.299,-0.435 0.255,-0.435C0.234,-0.435 0.219,-0.432 0.208,-0.425C0.197,-0.418 0.191,-0.408 0.191,-0.395C0.191,-0.385 0.194,-0.377 0.199,-0.371C0.204,-0.364 0.214,-0.358 0.229,-0.351C0.244,-0.344 0.268,-0.336 0.3,-0.327C0.355,-0.311 0.397,-0.29 0.424,-0.265C0.451,-0.239 0.464,-0.203 0.464,-0.158C0.464,-0.122 0.454,-0.091 0.433,-0.065C0.412,-0.038 0.384,-0.018 0.348,-0.004C0.312,0.01 0.272,0.017 0.228,0.017C0.183,0.017 0.142,0.01 0.104,-0.004C0.065,-0.018 0.033,-0.037 0.006,-0.062L0.083,-0.148C0.128,-0.113 0.175,-0.096 0.224,-0.096C0.248,-0.096 0.267,-0.1 0.281,-0.109C0.294,-0.118 0.301,-0.13 0.301,-0.146C0.301,-0.159 0.298,-0.169 0.293,-0.176C0.288,-0.183 0.277,-0.19 0.262,-0.197C0.247,-0.203 0.222,-0.211 0.189,-0.22C0.136,-0.235 0.097,-0.257 0.071,-0.284C0.045,-0.311 0.032,-0.345 0.032,-0.386C0.032,-0.417 0.041,-0.444 0.059,-0.469C0.076,-0.493 0.101,-0.512 0.135,-0.527C0.167,-0.541 0.206,-0.548 0.249,-0.548Z" style="fill-rule:nonzero;"/>
            </g>
            <g transform="matrix(26.0417,0,0,26.0417,213.602,568.823)">
                <path d="M0.395,-0.025C0.376,-0.012 0.353,-0.001 0.328,0.006C0.302,0.013 0.276,0.017 0.251,0.017C0.135,0.016 0.077,-0.048 0.077,-0.175L0.077,-0.421L0.002,-0.421L0.002,-0.531L0.077,-0.531L0.077,-0.646L0.235,-0.664L0.235,-0.531L0.357,-0.531L0.34,-0.421L0.235,-0.421L0.235,-0.177C0.235,-0.152 0.239,-0.135 0.247,-0.124C0.255,-0.113 0.268,-0.108 0.285,-0.108C0.303,-0.108 0.322,-0.114 0.342,-0.125L0.395,-0.025Z" style="fill-rule:nonzero;"/>
            </g>
        </g>
    </g>
</svg>
