<?xml version="1.0" encoding="UTF-8" standalone="no"?>
<!DOCTYPE svg PUBLIC "-//W3C//DTD SVG 1.1//EN" "http://www.w3.org/Graphics/SVG/1.1/DTD/svg11.dtd">
<svg width="100%" height="100%" viewBox="0 0 286 789" version="1.1" xmlns="http://www.w3.org/2000/svg" xmlns:xlink="http://www.w3.org/1999/xlink" xml:space="preserve" xmlns:serif="http://www.serif.com/" style="fill-rule:evenodd;clip-rule:evenodd;stroke-linecap:round;stroke-linejoin:round;stroke-miterlimit:1.5;">
    <g transform="matrix(1,0,0,1,-113.215,-742.355)">
        <g transform="matrix(1,0,0,1.48798,0,-1303.5)">
            <rect x="257.143" y="1454.41" width="117.351" height="85.662" style="fill:rgb(242,13,13);fill-opacity:0.3;"/>
        </g>
        <g transform="matrix(1,0,0,1.54258,0,-1082.49)">
            <rect x="257.143" y="1454.41" width="117.351" height="85.662" style="fill:rgb(242,13,13);fill-opacity:0.3;"/>
        </g>
        <g transform="matrix(1,0,0,1,1.46935,-72.444)">
            <g transform="matrix(1.32884,0,0,1.13813,-105.278,-149.437)">
                <rect x="257.143" y="1454.41" width="117.351" height="85.662" style="fill:rgb(242,13,13);fill-opacity:0.3;"/>
            </g>
            <g transform="matrix(1,0,0,1,-11.9828,-0.889169)">
                <g transform="matrix(34.0083,0,0,34.0083,283.304,1548.49)">
                    <path d="M0.583,-0L0.456,-0L0.176,-0.585C0.18,-0.539 0.183,-0.497 0.186,-0.458C0.188,-0.419 0.189,-0.371 0.189,-0.316L0.189,-0L0.1,-0L0.1,-0.689L0.224,-0.689L0.507,-0.103C0.505,-0.12 0.502,-0.151 0.499,-0.194C0.496,-0.237 0.494,-0.277 0.494,-0.313L0.494,-0.689L0.583,-0.689L0.583,-0Z" style="fill-rule:nonzero;"/>
                </g>
                <g transform="matrix(34.0083,0,0,34.0083,306.532,1548.49)">
                    <path d="M0.293,-0.539C0.367,-0.539 0.425,-0.514 0.466,-0.465C0.507,-0.416 0.527,-0.349 0.527,-0.264C0.527,-0.209 0.518,-0.161 0.499,-0.12C0.48,-0.078 0.453,-0.046 0.418,-0.023C0.383,0.001 0.341,0.012 0.292,0.012C0.218,0.012 0.16,-0.013 0.119,-0.062C0.078,-0.111 0.057,-0.178 0.057,-0.263C0.057,-0.318 0.066,-0.366 0.085,-0.408C0.104,-0.449 0.131,-0.482 0.166,-0.505C0.201,-0.528 0.244,-0.539 0.293,-0.539ZM0.293,-0.465C0.202,-0.465 0.156,-0.398 0.156,-0.263C0.156,-0.129 0.201,-0.062 0.292,-0.062C0.383,-0.062 0.428,-0.129 0.428,-0.264C0.428,-0.398 0.383,-0.465 0.293,-0.465Z" style="fill-rule:nonzero;"/>
                </g>
                <g transform="matrix(34.0083,0,0,34.0083,326.393,1548.49)">
                    <path d="M0.187,-0.527L0.187,-0L0.095,-0L0.095,-0.527L0.187,-0.527ZM0.14,-0.78C0.159,-0.78 0.175,-0.774 0.187,-0.762C0.199,-0.75 0.205,-0.735 0.205,-0.717C0.205,-0.699 0.199,-0.684 0.187,-0.673C0.175,-0.661 0.159,-0.655 0.14,-0.655C0.121,-0.655 0.106,-0.661 0.094,-0.673C0.082,-0.684 0.076,-0.699 0.076,-0.717C0.076,-0.735 0.082,-0.75 0.094,-0.762C0.106,-0.774 0.121,-0.78 0.14,-0.78Z" style="fill-rule:nonzero;"/>
                </g>
                <g transform="matrix(34.0083,0,0,34.0083,335.983,1548.49)">
                    <path d="M0.238,-0.539C0.274,-0.539 0.306,-0.534 0.335,-0.524C0.364,-0.514 0.391,-0.499 0.417,-0.479L0.378,-0.421C0.354,-0.436 0.331,-0.448 0.31,-0.455C0.288,-0.462 0.265,-0.466 0.241,-0.466C0.211,-0.466 0.187,-0.46 0.17,-0.448C0.153,-0.435 0.144,-0.418 0.144,-0.397C0.144,-0.376 0.152,-0.359 0.169,-0.347C0.185,-0.335 0.214,-0.323 0.257,-0.312C0.316,-0.297 0.36,-0.277 0.389,-0.252C0.418,-0.227 0.432,-0.192 0.432,-0.148C0.432,-0.096 0.412,-0.056 0.372,-0.029C0.331,-0.002 0.282,0.012 0.224,0.012C0.144,0.012 0.078,-0.011 0.025,-0.057L0.074,-0.113C0.119,-0.079 0.168,-0.062 0.222,-0.062C0.257,-0.062 0.284,-0.069 0.305,-0.084C0.325,-0.098 0.335,-0.117 0.335,-0.142C0.335,-0.16 0.331,-0.175 0.324,-0.186C0.317,-0.197 0.304,-0.206 0.286,-0.215C0.268,-0.223 0.242,-0.232 0.207,-0.241C0.151,-0.256 0.111,-0.275 0.086,-0.3C0.061,-0.325 0.048,-0.356 0.048,-0.394C0.048,-0.421 0.056,-0.446 0.073,-0.469C0.089,-0.491 0.112,-0.508 0.141,-0.521C0.169,-0.533 0.202,-0.539 0.238,-0.539Z" style="fill-rule:nonzero;"/>
                </g>
                <g transform="matrix(34.0083,0,0,34.0083,351.865,1548.49)">
                    <path d="M0.493,-0.279C0.493,-0.264 0.492,-0.248 0.491,-0.232L0.155,-0.232C0.159,-0.174 0.174,-0.131 0.199,-0.104C0.224,-0.077 0.257,-0.063 0.297,-0.063C0.322,-0.063 0.346,-0.067 0.367,-0.074C0.388,-0.081 0.411,-0.093 0.434,-0.109L0.474,-0.054C0.418,-0.01 0.357,0.012 0.29,0.012C0.217,0.012 0.16,-0.012 0.119,-0.06C0.078,-0.108 0.057,-0.174 0.057,-0.258C0.057,-0.313 0.066,-0.361 0.084,-0.404C0.101,-0.446 0.127,-0.479 0.16,-0.503C0.193,-0.527 0.231,-0.539 0.276,-0.539C0.346,-0.539 0.4,-0.516 0.437,-0.47C0.474,-0.424 0.493,-0.36 0.493,-0.279ZM0.402,-0.306C0.402,-0.358 0.392,-0.398 0.371,-0.425C0.35,-0.452 0.319,-0.466 0.278,-0.466C0.203,-0.466 0.162,-0.411 0.155,-0.3L0.402,-0.3L0.402,-0.306Z" style="fill-rule:nonzero;"/>
                </g>
                <g transform="matrix(34.0083,0,0,34.0083,274.644,1581.82)">
                    <path d="M0.716,-0L0.624,-0L0.6,-0.311C0.59,-0.433 0.584,-0.527 0.583,-0.592L0.434,-0.078L0.345,-0.078L0.188,-0.593C0.188,-0.51 0.184,-0.413 0.175,-0.304L0.152,-0L0.062,-0L0.119,-0.689L0.247,-0.689L0.392,-0.188L0.53,-0.689L0.659,-0.689L0.716,-0Z" style="fill-rule:nonzero;"/>
                </g>
                <g transform="matrix(34.0083,0,0,34.0083,301.103,1581.82)">
                    <path d="M0.45,-0.123C0.45,-0.102 0.454,-0.086 0.461,-0.076C0.468,-0.065 0.479,-0.057 0.494,-0.052L0.473,0.012C0.446,0.009 0.424,0.001 0.407,-0.011C0.39,-0.023 0.378,-0.042 0.37,-0.067C0.335,-0.014 0.282,0.012 0.213,0.012C0.161,0.012 0.12,-0.003 0.09,-0.032C0.06,-0.061 0.045,-0.1 0.045,-0.147C0.045,-0.203 0.065,-0.246 0.106,-0.276C0.146,-0.306 0.203,-0.321 0.277,-0.321L0.358,-0.321L0.358,-0.36C0.358,-0.397 0.349,-0.424 0.331,-0.44C0.313,-0.456 0.285,-0.464 0.248,-0.464C0.209,-0.464 0.162,-0.455 0.106,-0.436L0.083,-0.503C0.148,-0.527 0.209,-0.539 0.265,-0.539C0.327,-0.539 0.373,-0.524 0.404,-0.494C0.435,-0.463 0.45,-0.42 0.45,-0.364L0.45,-0.123ZM0.234,-0.057C0.287,-0.057 0.328,-0.084 0.358,-0.139L0.358,-0.26L0.289,-0.26C0.192,-0.26 0.143,-0.224 0.143,-0.152C0.143,-0.121 0.151,-0.097 0.166,-0.081C0.181,-0.065 0.204,-0.057 0.234,-0.057Z" style="fill-rule:nonzero;"/>
                </g>
                <g transform="matrix(34.0083,0,0,34.0083,319.603,1581.82)">
                    <path d="M0.324,-0.539C0.343,-0.539 0.36,-0.537 0.376,-0.533L0.359,-0.443C0.343,-0.447 0.328,-0.449 0.313,-0.449C0.28,-0.449 0.254,-0.437 0.234,-0.413C0.214,-0.389 0.198,-0.352 0.187,-0.301L0.187,-0L0.095,-0L0.095,-0.527L0.174,-0.527L0.183,-0.42C0.197,-0.459 0.216,-0.489 0.24,-0.509C0.264,-0.529 0.292,-0.539 0.324,-0.539Z" style="fill-rule:nonzero;"/>
                </g>
                <g transform="matrix(34.0083,0,0,34.0083,331.855,1581.82)">
                    <path d="M0.52,-0.503C0.5,-0.496 0.478,-0.492 0.454,-0.49C0.43,-0.488 0.401,-0.487 0.366,-0.487C0.428,-0.459 0.459,-0.415 0.459,-0.354C0.459,-0.301 0.441,-0.258 0.405,-0.225C0.369,-0.192 0.32,-0.175 0.258,-0.175C0.234,-0.175 0.212,-0.178 0.191,-0.185C0.183,-0.18 0.177,-0.172 0.172,-0.164C0.167,-0.155 0.165,-0.145 0.165,-0.136C0.165,-0.107 0.188,-0.093 0.234,-0.093L0.318,-0.093C0.353,-0.093 0.385,-0.087 0.412,-0.074C0.439,-0.061 0.46,-0.044 0.476,-0.022C0.491,0 0.498,0.025 0.498,0.053C0.498,0.104 0.477,0.144 0.435,0.172C0.393,0.199 0.332,0.213 0.251,0.213C0.194,0.213 0.15,0.207 0.117,0.196C0.084,0.184 0.06,0.166 0.046,0.143C0.032,0.12 0.025,0.09 0.025,0.053L0.108,0.053C0.108,0.074 0.112,0.091 0.12,0.104C0.128,0.116 0.142,0.125 0.163,0.132C0.184,0.138 0.213,0.141 0.251,0.141C0.306,0.141 0.346,0.134 0.37,0.121C0.393,0.107 0.405,0.086 0.405,0.059C0.405,0.034 0.396,0.016 0.377,0.003C0.358,-0.01 0.332,-0.016 0.299,-0.016L0.216,-0.016C0.171,-0.016 0.137,-0.025 0.115,-0.045C0.092,-0.064 0.08,-0.087 0.08,-0.116C0.08,-0.133 0.085,-0.15 0.095,-0.166C0.105,-0.182 0.119,-0.196 0.138,-0.209C0.107,-0.225 0.085,-0.245 0.071,-0.269C0.056,-0.292 0.049,-0.321 0.049,-0.355C0.049,-0.39 0.058,-0.422 0.076,-0.45C0.093,-0.478 0.118,-0.5 0.149,-0.516C0.18,-0.531 0.214,-0.539 0.252,-0.539C0.293,-0.538 0.328,-0.54 0.356,-0.544C0.384,-0.547 0.407,-0.552 0.426,-0.559C0.444,-0.565 0.466,-0.574 0.493,-0.586L0.52,-0.503ZM0.252,-0.473C0.217,-0.473 0.191,-0.462 0.172,-0.441C0.153,-0.419 0.143,-0.39 0.143,-0.355C0.143,-0.319 0.153,-0.29 0.172,-0.269C0.191,-0.247 0.219,-0.236 0.254,-0.236C0.29,-0.236 0.318,-0.247 0.337,-0.268C0.356,-0.289 0.365,-0.318 0.365,-0.356C0.365,-0.434 0.327,-0.473 0.252,-0.473Z" style="fill-rule:nonzero;"/>
                </g>
                <g transform="matrix(34.0083,0,0,34.0083,349.54,1581.82)">
                    <path d="M0.187,-0.527L0.187,-0L0.095,-0L0.095,-0.527L0.187,-0.527ZM0.14,-0.78C0.159,-0.78 0.175,-0.774 0.187,-0.762C0.199,-0.75 0.205,-0.735 0.205,-0.717C0.205,-0.699 0.199,-0.684 0.187,-0.673C0.175,-0.661 0.159,-0.655 0.14,-0.655C0.121,-0.655 0.106,-0.661 0.094,-0.673C0.082,-0.684 0.076,-0.699 0.076,-0.717C0.076,-0.735 0.082,-0.75 0.094,-0.762C0.106,-0.774 0.121,-0.78 0.14,-0.78Z" style="fill-rule:nonzero;"/>
                </g>
                <g transform="matrix(34.0083,0,0,34.0083,359.13,1581.82)">
                    <path d="M0.343,-0.539C0.391,-0.539 0.429,-0.525 0.456,-0.496C0.483,-0.467 0.496,-0.428 0.496,-0.378L0.496,-0L0.404,-0L0.404,-0.365C0.404,-0.402 0.397,-0.429 0.383,-0.444C0.369,-0.459 0.348,-0.467 0.321,-0.467C0.293,-0.467 0.268,-0.459 0.247,-0.443C0.226,-0.427 0.206,-0.404 0.187,-0.374L0.187,-0L0.095,-0L0.095,-0.527L0.174,-0.527L0.182,-0.449C0.201,-0.477 0.224,-0.499 0.252,-0.515C0.279,-0.531 0.31,-0.539 0.343,-0.539Z" style="fill-rule:nonzero;"/>
                </g>
            </g>
        </g>
        <path d="M239.107,772.367L392.661,772.367" style="fill:none;stroke:black;stroke-width:12.5px;"/>
        <path d="M315.884,772.367L315.884,1389.53" style="fill:none;stroke:black;stroke-width:12.5px;"/>
        <path d="M239.107,1389.53L392.661,1389.53" style="fill:none;stroke:black;stroke-width:12.5px;"/>
        <g>
            <g transform="matrix(1,0,0,1,-264.812,0.940215)">
                <g transform="matrix(58.3333,0,0,58.3333,417.152,781.606)">
                    <path d="M0.55,-0.689L0.33,-0L0.228,-0L0.006,-0.689L0.108,-0.689L0.281,-0.103L0.454,-0.689L0.55,-0.689Z" style="fill-rule:nonzero;"/>
                </g>
                <g transform="matrix(34.0083,0,0,34.0083,449.585,801.031)">
                    <path d="M0.341,-0.701C0.382,-0.701 0.417,-0.696 0.446,-0.685C0.474,-0.674 0.503,-0.657 0.532,-0.633L0.48,-0.572C0.438,-0.606 0.394,-0.623 0.347,-0.623C0.29,-0.623 0.244,-0.601 0.209,-0.557C0.173,-0.513 0.156,-0.442 0.156,-0.345C0.156,-0.25 0.173,-0.181 0.208,-0.136C0.243,-0.091 0.289,-0.068 0.346,-0.068C0.375,-0.068 0.401,-0.073 0.423,-0.083C0.445,-0.093 0.468,-0.107 0.493,-0.125L0.54,-0.065C0.519,-0.043 0.491,-0.025 0.458,-0.01C0.425,0.005 0.386,0.012 0.343,0.012C0.287,0.012 0.237,-0.002 0.194,-0.03C0.15,-0.057 0.116,-0.098 0.092,-0.152C0.067,-0.205 0.055,-0.27 0.055,-0.345C0.055,-0.42 0.068,-0.485 0.093,-0.539C0.118,-0.592 0.153,-0.633 0.196,-0.66C0.239,-0.687 0.288,-0.701 0.341,-0.701Z" style="fill-rule:nonzero;"/>
                </g>
                <g transform="matrix(34.0083,0,0,34.0083,467.463,801.031)">
                    <path d="M0.341,-0.701C0.382,-0.701 0.417,-0.696 0.446,-0.685C0.474,-0.674 0.503,-0.657 0.532,-0.633L0.48,-0.572C0.438,-0.606 0.394,-0.623 0.347,-0.623C0.29,-0.623 0.244,-0.601 0.209,-0.557C0.173,-0.513 0.156,-0.442 0.156,-0.345C0.156,-0.25 0.173,-0.181 0.208,-0.136C0.243,-0.091 0.289,-0.068 0.346,-0.068C0.375,-0.068 0.401,-0.073 0.423,-0.083C0.445,-0.093 0.468,-0.107 0.493,-0.125L0.54,-0.065C0.519,-0.043 0.491,-0.025 0.458,-0.01C0.425,0.005 0.386,0.012 0.343,0.012C0.287,0.012 0.237,-0.002 0.194,-0.03C0.15,-0.057 0.116,-0.098 0.092,-0.152C0.067,-0.205 0.055,-0.27 0.055,-0.345C0.055,-0.42 0.068,-0.485 0.093,-0.539C0.118,-0.592 0.153,-0.633 0.196,-0.66C0.239,-0.687 0.288,-0.701 0.341,-0.701Z" style="fill-rule:nonzero;"/>
                </g>
            </g>
            <g transform="matrix(1,0,0,1,-271.828,91.3706)">
                <g transform="matrix(58.3333,0,0,58.3333,417.152,781.606)">
                    <path d="M0.55,-0.689L0.33,-0L0.228,-0L0.006,-0.689L0.108,-0.689L0.281,-0.103L0.454,-0.689L0.55,-0.689Z" style="fill-rule:nonzero;"/>
                </g>
                <g transform="matrix(34.0083,0,0,34.0083,449.585,801.031)">
                    <path d="M0.346,-0.701C0.404,-0.701 0.455,-0.687 0.499,-0.66C0.542,-0.632 0.576,-0.591 0.601,-0.538C0.625,-0.485 0.637,-0.42 0.637,-0.344C0.637,-0.269 0.625,-0.205 0.601,-0.152C0.576,-0.099 0.542,-0.058 0.499,-0.03C0.455,-0.002 0.404,0.012 0.346,0.012C0.288,0.012 0.237,-0.002 0.194,-0.029C0.15,-0.056 0.116,-0.097 0.092,-0.15C0.067,-0.203 0.055,-0.268 0.055,-0.343C0.055,-0.417 0.067,-0.481 0.092,-0.535C0.116,-0.589 0.15,-0.63 0.194,-0.659C0.238,-0.687 0.289,-0.701 0.346,-0.701ZM0.346,-0.623C0.286,-0.623 0.239,-0.6 0.206,-0.555C0.173,-0.51 0.156,-0.439 0.156,-0.343C0.156,-0.248 0.173,-0.178 0.207,-0.133C0.24,-0.088 0.287,-0.066 0.346,-0.066C0.473,-0.066 0.536,-0.159 0.536,-0.344C0.536,-0.53 0.473,-0.623 0.346,-0.623Z" style="fill-rule:nonzero;"/>
                </g>
                <g transform="matrix(34.0083,0,0,34.0083,473.119,801.031)">
                    <path d="M0.485,-0L0.485,-0.323L0.195,-0.323L0.195,-0L0.1,-0L0.1,-0.689L0.195,-0.689L0.195,-0.401L0.485,-0.401L0.485,-0.689L0.58,-0.689L0.58,-0L0.485,-0Z" style="fill-rule:nonzero;"/>
                </g>
            </g>
            <g transform="matrix(1,0,0,1,-258.327,216.683)">
                <g transform="matrix(58.3333,0,0,58.3333,417.152,781.606)">
                    <path d="M0.55,-0.689L0.33,-0L0.228,-0L0.006,-0.689L0.108,-0.689L0.281,-0.103L0.454,-0.689L0.55,-0.689Z" style="fill-rule:nonzero;"/>
                </g>
                <g transform="matrix(34.0083,0,0,34.0083,449.585,801.031)">
                    <rect x="0.1" y="-0.689" width="0.095" height="0.689" style="fill-rule:nonzero;"/>
                </g>
                <g transform="matrix(34.0083,0,0,34.0083,459.618,801.031)">
                    <path d="M0.485,-0L0.485,-0.323L0.195,-0.323L0.195,-0L0.1,-0L0.1,-0.689L0.195,-0.689L0.195,-0.401L0.485,-0.401L0.485,-0.689L0.58,-0.689L0.58,-0L0.485,-0Z" style="fill-rule:nonzero;"/>
                </g>
            </g>
            <g transform="matrix(1,0,0,1,-240.847,302.528)">
                <g transform="matrix(58.3333,0,0,58.3333,417.152,781.606)">
                    <path d="M0.55,-0.689L0.33,-0L0.228,-0L0.006,-0.689L0.108,-0.689L0.281,-0.103L0.454,-0.689L0.55,-0.689Z" style="fill-rule:nonzero;"/>
                </g>
                <g transform="matrix(34.0083,0,0,34.0083,449.585,801.031)">
                    <path d="M0.361,-0.024C0.326,0 0.287,0.012 0.243,0.012C0.198,0.012 0.164,-0.001 0.139,-0.027C0.114,-0.052 0.101,-0.089 0.101,-0.138L0.101,-0.456L0.009,-0.456L0.009,-0.527L0.101,-0.527L0.101,-0.646L0.193,-0.657L0.193,-0.527L0.318,-0.527L0.308,-0.456L0.193,-0.456L0.193,-0.142C0.193,-0.115 0.198,-0.095 0.208,-0.083C0.217,-0.07 0.233,-0.064 0.256,-0.064C0.277,-0.064 0.3,-0.071 0.326,-0.085L0.361,-0.024Z" style="fill-rule:nonzero;"/>
                </g>
            </g>
            <g transform="matrix(1,0,0,1,-254.858,388.373)">
                <g transform="matrix(58.3333,0,0,58.3333,417.152,781.606)">
                    <path d="M0.55,-0.689L0.33,-0L0.228,-0L0.006,-0.689L0.108,-0.689L0.281,-0.103L0.454,-0.689L0.55,-0.689Z" style="fill-rule:nonzero;"/>
                </g>
                <g transform="matrix(34.0083,0,0,34.0083,449.585,801.031)">
                    <rect x="0.1" y="-0.689" width="0.095" height="0.689" style="fill-rule:nonzero;"/>
                </g>
                <g transform="matrix(34.0083,0,0,34.0083,459.618,801.031)">
                    <path d="M0.195,-0.689L0.195,-0.083L0.478,-0.083L0.467,-0L0.1,-0L0.1,-0.689L0.195,-0.689Z" style="fill-rule:nonzero;"/>
                </g>
            </g>
            <g transform="matrix(1,0,0,1,-268.359,520.513)">
                <g transform="matrix(58.3333,0,0,58.3333,417.152,781.606)">
                    <path d="M0.55,-0.689L0.33,-0L0.228,-0L0.006,-0.689L0.108,-0.689L0.281,-0.103L0.454,-0.689L0.55,-0.689Z" style="fill-rule:nonzero;"/>
                </g>
                <g transform="matrix(34.0083,0,0,34.0083,449.585,801.031)">
                    <path d="M0.346,-0.701C0.404,-0.701 0.455,-0.687 0.499,-0.66C0.542,-0.632 0.576,-0.591 0.601,-0.538C0.625,-0.485 0.637,-0.42 0.637,-0.344C0.637,-0.269 0.625,-0.205 0.601,-0.152C0.576,-0.099 0.542,-0.058 0.499,-0.03C0.455,-0.002 0.404,0.012 0.346,0.012C0.288,0.012 0.237,-0.002 0.194,-0.029C0.15,-0.056 0.116,-0.097 0.092,-0.15C0.067,-0.203 0.055,-0.268 0.055,-0.343C0.055,-0.417 0.067,-0.481 0.092,-0.535C0.116,-0.589 0.15,-0.63 0.194,-0.659C0.238,-0.687 0.289,-0.701 0.346,-0.701ZM0.346,-0.623C0.286,-0.623 0.239,-0.6 0.206,-0.555C0.173,-0.51 0.156,-0.439 0.156,-0.343C0.156,-0.248 0.173,-0.178 0.207,-0.133C0.24,-0.088 0.287,-0.066 0.346,-0.066C0.473,-0.066 0.536,-0.159 0.536,-0.344C0.536,-0.53 0.473,-0.623 0.346,-0.623Z" style="fill-rule:nonzero;"/>
                </g>
                <g transform="matrix(34.0083,0,0,34.0083,473.119,801.031)">
                    <path d="M0.195,-0.689L0.195,-0.083L0.478,-0.083L0.467,-0L0.1,-0L0.1,-0.689L0.195,-0.689Z" style="fill-rule:nonzero;"/>
                </g>
            </g>
            <g transform="matrix(1,0,0,1,-307.145,624.766)">
                <g transform="matrix(58.3333,0,0,58.3333,417.152,781.606)">
                    <path d="M0.354,-0.701C0.397,-0.701 0.435,-0.695 0.467,-0.683C0.498,-0.67 0.53,-0.651 0.561,-0.625L0.505,-0.567C0.48,-0.587 0.457,-0.601 0.434,-0.61C0.411,-0.619 0.385,-0.623 0.354,-0.623C0.319,-0.623 0.286,-0.614 0.257,-0.595C0.227,-0.576 0.203,-0.545 0.184,-0.504C0.165,-0.462 0.156,-0.409 0.156,-0.345C0.156,-0.248 0.172,-0.178 0.204,-0.133C0.235,-0.088 0.282,-0.066 0.344,-0.066C0.395,-0.066 0.438,-0.076 0.475,-0.097L0.475,-0.305L0.353,-0.305L0.342,-0.382L0.569,-0.382L0.569,-0.049C0.498,-0.008 0.423,0.012 0.344,0.012C0.253,0.012 0.183,-0.018 0.132,-0.079C0.081,-0.14 0.055,-0.228 0.055,-0.345C0.055,-0.42 0.069,-0.484 0.096,-0.538C0.123,-0.591 0.159,-0.632 0.205,-0.66C0.25,-0.687 0.3,-0.701 0.354,-0.701Z" style="fill-rule:nonzero;"/>
                </g>
                <g transform="matrix(58.3333,0,0,58.3333,453.96,781.606)">
                    <path d="M0.583,-0L0.456,-0L0.176,-0.585C0.18,-0.539 0.183,-0.497 0.186,-0.458C0.188,-0.419 0.189,-0.371 0.189,-0.316L0.189,-0L0.1,-0L0.1,-0.689L0.224,-0.689L0.507,-0.103C0.505,-0.12 0.502,-0.151 0.499,-0.194C0.496,-0.237 0.494,-0.277 0.494,-0.313L0.494,-0.689L0.583,-0.689L0.583,-0Z" style="fill-rule:nonzero;"/>
                </g>
                <g transform="matrix(58.3333,0,0,58.3333,493.802,781.606)">
                    <path d="M0.244,-0.689C0.348,-0.689 0.432,-0.665 0.495,-0.617C0.558,-0.568 0.589,-0.479 0.589,-0.348C0.589,-0.221 0.558,-0.131 0.495,-0.079C0.432,-0.026 0.355,-0 0.265,-0L0.1,-0L0.1,-0.689L0.244,-0.689ZM0.195,-0.613L0.195,-0.075L0.272,-0.075C0.336,-0.075 0.388,-0.095 0.428,-0.134C0.468,-0.173 0.488,-0.245 0.488,-0.348C0.488,-0.421 0.478,-0.476 0.457,-0.516C0.436,-0.555 0.41,-0.581 0.378,-0.594C0.346,-0.607 0.308,-0.613 0.265,-0.613L0.195,-0.613Z" style="fill-rule:nonzero;"/>
                </g>
            </g>
        </g>
        <path d="M257.253,862.798L374.603,862.798" style="fill:none;stroke:black;stroke-width:8.33px;"/>
        <g transform="matrix(1,0,0,1,-0.10973,125.313)">
            <path d="M257.253,862.798L374.603,862.798" style="fill:none;stroke:black;stroke-width:8.33px;"/>
        </g>
        <g transform="matrix(1,0,0,1,-0.0658381,211.157)">
            <path d="M257.253,862.798L374.603,862.798" style="fill:none;stroke:black;stroke-width:8.33px;"/>
        </g>
        <g transform="matrix(1,0,0,1,-0.0658381,297.002)">
            <path d="M257.253,862.798L374.603,862.798" style="fill:none;stroke:black;stroke-width:8.33px;"/>
        </g>
        <g transform="matrix(1,0,0,1,-0.0658381,431.225)">
            <path d="M257.253,862.798L374.603,862.798" style="fill:none;stroke:black;stroke-width:8.33px;"/>
        </g>
    </g>
</svg>
